<svg width="328" height="300" viewBox="0 0 328 300" fill="none" xmlns="http://www.w3.org/2000/svg">
<g filter="url(#filter0_d_901_7290)">
<rect x="13" y="26" width="301" height="72" rx="18" fill="white"/>
<rect x="37.25" y="42.25" width="39.5" height="39.5" rx="19.75" stroke="black" stroke-opacity="0.08" stroke-width="0.5"/>
<circle cx="57" cy="62" r="20" fill="#FF8C8A"/>
<path fill-rule="evenodd" clip-rule="evenodd" d="M57.0064 51H57.0084C57.6783 51 58.2214 51.5431 58.2214 52.213L58.2214 52.2186L58.2157 53.4501C58.2126 54.1229 57.6663 54.6667 56.9935 54.6667H56.9915C56.3216 54.6667 55.7785 54.1236 55.7785 53.4537L55.7785 53.4481L55.7842 52.2166C55.7873 51.5438 56.3336 51 57.0064 51ZM64.7828 54.2264L64.7842 54.2278C65.2579 54.7015 65.2579 55.4695 64.7842 55.9432L64.7802 55.9472L63.9054 56.8139C63.4275 57.2875 62.6567 57.2857 62.1809 56.81L62.1795 56.8086C61.7058 56.3349 61.7058 55.5669 62.1795 55.0932L62.1835 55.0892L63.0583 54.2224C63.5363 53.7489 64.3071 53.7507 64.7828 54.2264ZM68 62.0085V62.0065C68 61.3337 67.4562 60.7874 66.7834 60.7843L65.5519 60.7786L65.5463 60.7786C64.8764 60.7786 64.3333 61.3217 64.3333 61.9916V61.9936C64.3333 62.6664 64.8771 63.2127 65.5499 63.2158L66.7814 63.2215L66.787 63.2215C67.4569 63.2215 68 62.6784 68 62.0085ZM46 61.9935V61.9915C46 61.3216 46.5431 60.7785 47.213 60.7785L47.2186 60.7785L48.4501 60.7842C49.1229 60.7873 49.6667 61.3336 49.6667 62.0064V62.0084C49.6667 62.6783 49.1236 63.2214 48.4537 63.2214L48.4481 63.2214L47.2166 63.2157C46.5438 63.2126 46 62.6663 46 61.9935ZM49.2279 54.2159L49.2265 54.2173C48.7507 54.693 48.7489 55.4638 49.2225 55.9418L50.0893 56.8166L50.0932 56.8206C50.5669 57.2943 51.3349 57.2943 51.8086 56.8206L51.81 56.8192C52.2858 56.3434 52.2876 55.5726 51.814 55.0947L50.9472 54.2198L50.9433 54.2159C50.4696 53.7422 49.7016 53.7422 49.2279 54.2159ZM57 69.9444C57.675 69.9444 58.2222 70.4917 58.2222 71.1667C58.2222 71.8417 57.675 72.3889 57 72.3889C56.325 72.3889 55.7778 71.8417 55.7778 71.1667C55.7778 70.4917 56.325 69.9444 57 69.9444ZM61.8889 62C61.8889 64.0517 60.625 65.8083 58.8333 66.5335V66.8889C58.8333 67.4584 58.8333 67.7431 58.7403 67.9677C58.6162 68.2672 58.3783 68.5051 58.0788 68.6292C57.8542 68.7222 57.5695 68.7222 57 68.7222C56.4305 68.7222 56.1458 68.7222 55.9212 68.6292C55.6217 68.5051 55.3838 68.2672 55.2597 67.9677C55.1667 67.7431 55.1667 67.4584 55.1667 66.8889V66.5335C53.375 65.8083 52.1111 64.0517 52.1111 62C52.1111 59.2999 54.2999 57.1111 57 57.1111C59.7001 57.1111 61.8889 59.2999 61.8889 62Z" fill="white"/>
<path d="M95.7301 58H92.1985V47.0909H95.842C96.9109 47.0909 97.8288 47.3093 98.5959 47.7461C99.3629 48.1793 99.9506 48.8026 100.359 49.6158C100.771 50.4254 100.977 51.3967 100.977 52.5295C100.977 53.6658 100.769 54.6424 100.354 55.4592C99.9418 56.2759 99.3452 56.9045 98.5639 57.3448C97.7827 57.7816 96.8381 58 95.7301 58ZM93.8445 56.5618H95.6396C96.4705 56.5618 97.1612 56.4055 97.7116 56.093C98.2621 55.777 98.674 55.3207 98.9474 54.7241C99.2209 54.1239 99.3576 53.3924 99.3576 52.5295C99.3576 51.6737 99.2209 50.9474 98.9474 50.3509C98.6776 49.7543 98.2745 49.3015 97.7383 48.9925C97.2021 48.6836 96.5362 48.5291 95.7408 48.5291H93.8445V56.5618ZM105.277 58.1811C104.758 58.1811 104.29 58.0852 103.871 57.8935C103.452 57.6982 103.12 57.4158 102.875 57.0465C102.633 56.6772 102.512 56.2244 102.512 55.6882C102.512 55.2266 102.601 54.8466 102.779 54.5483C102.956 54.25 103.196 54.0138 103.498 53.8398C103.8 53.6658 104.137 53.5344 104.51 53.4457C104.883 53.3569 105.263 53.2894 105.65 53.2433C106.14 53.1864 106.538 53.1403 106.843 53.1048C107.148 53.0657 107.37 53.0036 107.509 52.9183C107.647 52.8331 107.717 52.6946 107.717 52.5028V52.4656C107.717 52.0004 107.585 51.6399 107.322 51.3842C107.063 51.1286 106.676 51.0007 106.161 51.0007C105.625 51.0007 105.202 51.1197 104.893 51.3576C104.588 51.592 104.377 51.853 104.259 52.1406L102.763 51.7997C102.94 51.3026 103.199 50.9013 103.54 50.5959C103.885 50.2869 104.281 50.0632 104.728 49.9247C105.176 49.7827 105.646 49.7116 106.14 49.7116C106.467 49.7116 106.813 49.7507 107.179 49.8288C107.548 49.9034 107.892 50.0419 108.212 50.2443C108.535 50.4467 108.8 50.7362 109.006 51.1126C109.212 51.4854 109.315 51.9702 109.315 52.5668V58H107.759V56.8814H107.695C107.592 57.0874 107.438 57.2898 107.232 57.4886C107.026 57.6875 106.761 57.8526 106.438 57.984C106.115 58.1154 105.728 58.1811 105.277 58.1811ZM105.623 56.9027C106.063 56.9027 106.44 56.8157 106.752 56.6417C107.068 56.4677 107.308 56.2404 107.472 55.9599C107.638 55.6758 107.722 55.3722 107.722 55.049V53.9943C107.665 54.0511 107.555 54.1044 107.392 54.1541C107.232 54.2003 107.049 54.2411 106.843 54.2766C106.637 54.3086 106.436 54.3388 106.241 54.3672C106.046 54.392 105.882 54.4134 105.751 54.4311C105.442 54.4702 105.16 54.5359 104.904 54.6282C104.652 54.7205 104.449 54.8537 104.297 55.0277C104.148 55.1982 104.073 55.4254 104.073 55.7095C104.073 56.1037 104.219 56.402 104.51 56.6044C104.801 56.8033 105.172 56.9027 105.623 56.9027ZM111.436 58V49.8182H112.975V51.1179H113.061C113.21 50.6776 113.472 50.3313 113.849 50.0792C114.229 49.8235 114.659 49.6957 115.138 49.6957C115.237 49.6957 115.355 49.6992 115.49 49.7063C115.628 49.7134 115.736 49.7223 115.814 49.733V51.2564C115.751 51.2386 115.637 51.2191 115.474 51.1978C115.31 51.1729 115.147 51.1605 114.983 51.1605C114.607 51.1605 114.271 51.2404 113.977 51.4002C113.686 51.5565 113.455 51.7749 113.284 52.0554C113.114 52.3324 113.029 52.6484 113.029 53.0036V58H111.436ZM122.376 54.6069V49.8182H123.974V58H122.408V56.5831H122.322C122.134 57.0199 121.832 57.3839 121.417 57.6751C121.005 57.9627 120.492 58.1065 119.877 58.1065C119.352 58.1065 118.887 57.9911 118.482 57.7603C118.081 57.5259 117.764 57.1797 117.534 56.7216C117.306 56.2635 117.193 55.6971 117.193 55.0224V49.8182H118.785V54.8306C118.785 55.3881 118.94 55.832 119.249 56.1623C119.558 56.4925 119.959 56.6577 120.453 56.6577C120.751 56.6577 121.047 56.5831 121.342 56.4339C121.641 56.2848 121.887 56.0593 122.083 55.7575C122.282 55.4556 122.379 55.0721 122.376 54.6069ZM132.245 51.8157L130.801 52.0714C130.741 51.8867 130.645 51.7109 130.513 51.544C130.386 51.3771 130.212 51.2404 129.991 51.1339C129.771 51.0273 129.496 50.9741 129.166 50.9741C128.715 50.9741 128.338 51.0753 128.037 51.2777C127.735 51.4766 127.584 51.734 127.584 52.0501C127.584 52.3235 127.685 52.5437 127.887 52.7106C128.09 52.8775 128.417 53.0142 128.868 53.1207L130.167 53.419C130.92 53.593 131.481 53.8612 131.85 54.2234C132.22 54.5856 132.404 55.0561 132.404 55.6349C132.404 56.125 132.262 56.5618 131.978 56.9453C131.698 57.3253 131.305 57.6236 130.801 57.8402C130.3 58.0568 129.72 58.1651 129.059 58.1651C128.143 58.1651 127.396 57.9698 126.817 57.5792C126.238 57.185 125.883 56.6257 125.751 55.9013L127.291 55.6669C127.387 56.0682 127.584 56.3718 127.882 56.5778C128.18 56.7802 128.569 56.8814 129.049 56.8814C129.571 56.8814 129.988 56.7731 130.3 56.5565C130.613 56.3363 130.769 56.0682 130.769 55.7521C130.769 55.4964 130.673 55.2816 130.482 55.1076C130.293 54.9336 130.004 54.8022 129.613 54.7134L128.228 54.4098C127.465 54.2358 126.9 53.9588 126.534 53.5788C126.172 53.1989 125.991 52.7177 125.991 52.1353C125.991 51.6523 126.126 51.2298 126.396 50.8675C126.666 50.5053 127.039 50.223 127.515 50.0206C127.99 49.8146 128.536 49.7116 129.15 49.7116C130.034 49.7116 130.73 49.9034 131.238 50.2869C131.746 50.6669 132.081 51.1765 132.245 51.8157ZM136.537 58.1811C136.018 58.1811 135.549 58.0852 135.13 57.8935C134.711 57.6982 134.379 57.4158 134.134 57.0465C133.893 56.6772 133.772 56.2244 133.772 55.6882C133.772 55.2266 133.861 54.8466 134.038 54.5483C134.216 54.25 134.456 54.0138 134.758 53.8398C135.059 53.6658 135.397 53.5344 135.77 53.4457C136.142 53.3569 136.522 53.2894 136.91 53.2433C137.4 53.1864 137.797 53.1403 138.103 53.1048C138.408 53.0657 138.63 53.0036 138.769 52.9183C138.907 52.8331 138.976 52.6946 138.976 52.5028V52.4656C138.976 52.0004 138.845 51.6399 138.582 51.3842C138.323 51.1286 137.936 51.0007 137.421 51.0007C136.885 51.0007 136.462 51.1197 136.153 51.3576C135.848 51.592 135.636 51.853 135.519 52.1406L134.022 51.7997C134.2 51.3026 134.459 50.9013 134.8 50.5959C135.145 50.2869 135.541 50.0632 135.988 49.9247C136.435 49.7827 136.906 49.7116 137.4 49.7116C137.726 49.7116 138.073 49.7507 138.438 49.8288C138.808 49.9034 139.152 50.0419 139.472 50.2443C139.795 50.4467 140.059 50.7362 140.265 51.1126C140.471 51.4854 140.574 51.9702 140.574 52.5668V58H139.019V56.8814H138.955C138.852 57.0874 138.698 57.2898 138.492 57.4886C138.286 57.6875 138.021 57.8526 137.698 57.984C137.375 58.1154 136.988 58.1811 136.537 58.1811ZM136.883 56.9027C137.323 56.9027 137.7 56.8157 138.012 56.6417C138.328 56.4677 138.568 56.2404 138.731 55.9599C138.898 55.6758 138.982 55.3722 138.982 55.049V53.9943C138.925 54.0511 138.815 54.1044 138.651 54.1541C138.492 54.2003 138.309 54.2411 138.103 54.2766C137.897 54.3086 137.696 54.3388 137.501 54.3672C137.305 54.392 137.142 54.4134 137.011 54.4311C136.702 54.4702 136.419 54.5359 136.164 54.6282C135.912 54.7205 135.709 54.8537 135.557 55.0277C135.407 55.1982 135.333 55.4254 135.333 55.7095C135.333 56.1037 135.478 56.402 135.77 56.6044C136.061 56.8033 136.432 56.9027 136.883 56.9027ZM144.288 47.0909V58H142.696V47.0909H144.288ZM148.812 58.1811C148.294 58.1811 147.825 58.0852 147.406 57.8935C146.987 57.6982 146.655 57.4158 146.41 57.0465C146.168 56.6772 146.047 56.2244 146.047 55.6882C146.047 55.2266 146.136 54.8466 146.314 54.5483C146.491 54.25 146.731 54.0138 147.033 53.8398C147.335 53.6658 147.672 53.5344 148.045 53.4457C148.418 53.3569 148.798 53.2894 149.185 53.2433C149.675 53.1864 150.073 53.1403 150.378 53.1048C150.684 53.0657 150.905 53.0036 151.044 52.9183C151.182 52.8331 151.252 52.6946 151.252 52.5028V52.4656C151.252 52.0004 151.12 51.6399 150.858 51.3842C150.598 51.1286 150.211 51.0007 149.696 51.0007C149.16 51.0007 148.737 51.1197 148.429 51.3576C148.123 51.592 147.912 51.853 147.795 52.1406L146.298 51.7997C146.475 51.3026 146.735 50.9013 147.076 50.5959C147.42 50.2869 147.816 50.0632 148.263 49.9247C148.711 49.7827 149.181 49.7116 149.675 49.7116C150.002 49.7116 150.348 49.7507 150.714 49.8288C151.083 49.9034 151.427 50.0419 151.747 50.2443C152.07 50.4467 152.335 50.7362 152.541 51.1126C152.747 51.4854 152.85 51.9702 152.85 52.5668V58H151.294V56.8814H151.23C151.127 57.0874 150.973 57.2898 150.767 57.4886C150.561 57.6875 150.296 57.8526 149.973 57.984C149.65 58.1154 149.263 58.1811 148.812 58.1811ZM149.158 56.9027C149.599 56.9027 149.975 56.8157 150.288 56.6417C150.604 56.4677 150.843 56.2404 151.007 55.9599C151.174 55.6758 151.257 55.3722 151.257 55.049V53.9943C151.2 54.0511 151.09 54.1044 150.927 54.1541C150.767 54.2003 150.584 54.2411 150.378 54.2766C150.172 54.3086 149.972 54.3388 149.776 54.3672C149.581 54.392 149.418 54.4134 149.286 54.4311C148.977 54.4702 148.695 54.5359 148.439 54.6282C148.187 54.7205 147.985 54.8537 147.832 55.0277C147.683 55.1982 147.608 55.4254 147.608 55.7095C147.608 56.1037 147.754 56.402 148.045 56.6044C148.336 56.8033 148.707 56.9027 149.158 56.9027ZM154.971 58V49.8182H156.5V51.1499H156.601C156.771 50.6989 157.05 50.3473 157.437 50.0952C157.824 49.8395 158.288 49.7116 158.828 49.7116C159.374 49.7116 159.833 49.8395 160.202 50.0952C160.575 50.3509 160.85 50.7024 161.028 51.1499H161.113C161.308 50.7131 161.619 50.3651 162.045 50.1058C162.471 49.843 162.979 49.7116 163.568 49.7116C164.311 49.7116 164.916 49.9442 165.385 50.4094C165.857 50.8746 166.093 51.576 166.093 52.5135V58H164.501V52.6626C164.501 52.1087 164.35 51.7074 164.048 51.4588C163.746 51.2102 163.385 51.0859 162.966 51.0859C162.448 51.0859 162.045 51.2457 161.757 51.5653C161.47 51.8814 161.326 52.288 161.326 52.7852V58H159.738V52.5614C159.738 52.1175 159.6 51.7607 159.323 51.4908C159.046 51.2209 158.686 51.0859 158.242 51.0859C157.94 51.0859 157.661 51.1658 157.405 51.3256C157.153 51.4819 156.949 51.7003 156.793 51.9808C156.64 52.2614 156.564 52.5863 156.564 52.9556V58H154.971Z" fill="#131314"/>
<path d="M92.1449 78V68.5455H97.8139V69.5611H93.2898V72.7557H97.3892V73.7713H93.2898V78H92.1449ZM101.636 78.1662C101.186 78.1662 100.779 78.0816 100.412 77.9123C100.046 77.7399 99.7552 77.4922 99.5398 77.169C99.3244 76.8428 99.2167 76.4489 99.2167 75.9872C99.2167 75.581 99.2967 75.2517 99.4567 74.9993C99.6168 74.7438 99.8306 74.5438 100.098 74.3991C100.366 74.2545 100.662 74.1468 100.985 74.076C101.311 74.0021 101.639 73.9437 101.968 73.9006C102.399 73.8452 102.748 73.8036 103.016 73.7759C103.287 73.7451 103.484 73.6944 103.607 73.6236C103.733 73.5528 103.796 73.4297 103.796 73.2543V73.2173C103.796 72.7618 103.672 72.4079 103.422 72.1555C103.176 71.9032 102.802 71.777 102.3 71.777C101.78 71.777 101.373 71.8909 101.077 72.1186C100.782 72.3464 100.574 72.5895 100.454 72.848L99.4198 72.4787C99.6044 72.0478 99.8507 71.7124 100.158 71.4723C100.469 71.2292 100.808 71.0599 101.174 70.9645C101.543 70.866 101.907 70.8168 102.264 70.8168C102.491 70.8168 102.753 70.8445 103.048 70.8999C103.347 70.9522 103.635 71.0614 103.912 71.2276C104.192 71.3938 104.424 71.6446 104.609 71.9801C104.793 72.3156 104.886 72.7649 104.886 73.3281V78H103.796V77.0398H103.741C103.667 77.1937 103.544 77.3583 103.371 77.5337C103.199 77.7092 102.97 77.8584 102.684 77.9815C102.397 78.1046 102.048 78.1662 101.636 78.1662ZM101.802 77.1875C102.233 77.1875 102.596 77.1029 102.891 76.9336C103.19 76.7643 103.415 76.5458 103.565 76.2781C103.719 76.0103 103.796 75.7287 103.796 75.4332V74.4361C103.75 74.4915 103.648 74.5423 103.492 74.5884C103.338 74.6315 103.159 74.67 102.956 74.7038C102.756 74.7346 102.561 74.7623 102.37 74.7869C102.182 74.8085 102.03 74.8269 101.913 74.8423C101.63 74.8793 101.365 74.9393 101.119 75.0224C100.876 75.1024 100.679 75.224 100.528 75.3871C100.38 75.5471 100.306 75.7656 100.306 76.0426C100.306 76.4212 100.446 76.7074 100.726 76.9013C101.009 77.0921 101.368 77.1875 101.802 77.1875ZM109.677 78.1477C109.012 78.1477 108.44 77.9908 107.96 77.6768C107.479 77.3629 107.11 76.9305 106.852 76.3796C106.593 75.8287 106.464 75.1993 106.464 74.4915C106.464 73.7713 106.596 73.1358 106.861 72.5849C107.129 72.0309 107.501 71.5985 107.978 71.2876C108.458 70.9737 109.018 70.8168 109.658 70.8168C110.157 70.8168 110.606 70.9091 111.006 71.0938C111.407 71.2784 111.734 71.5369 111.99 71.8693C112.245 72.2017 112.404 72.5895 112.465 73.0327H111.376C111.293 72.7095 111.108 72.4233 110.822 72.174C110.539 71.9216 110.157 71.7955 109.677 71.7955C109.252 71.7955 108.88 71.9062 108.56 72.1278C108.243 72.3464 107.995 72.6557 107.816 73.0558C107.641 73.4528 107.553 73.919 107.553 74.4545C107.553 75.0024 107.64 75.4794 107.812 75.8857C107.987 76.2919 108.234 76.6074 108.55 76.832C108.871 77.0567 109.246 77.169 109.677 77.169C109.96 77.169 110.217 77.1198 110.448 77.0213C110.679 76.9228 110.874 76.7812 111.034 76.5966C111.194 76.4119 111.308 76.1903 111.376 75.9318H112.465C112.404 76.3504 112.251 76.7274 112.008 77.0629C111.768 77.3952 111.45 77.6599 111.053 77.8569C110.659 78.0508 110.2 78.1477 109.677 78.1477ZM117.064 70.9091V71.8324H113.389V70.9091H117.064ZM114.46 69.2102H115.55V75.9688C115.55 76.2765 115.594 76.5073 115.683 76.6612C115.776 76.812 115.893 76.9136 116.034 76.9659C116.179 77.0152 116.331 77.0398 116.491 77.0398C116.611 77.0398 116.71 77.0336 116.787 77.0213C116.864 77.0059 116.925 76.9936 116.971 76.9844L117.193 77.9631C117.119 77.9908 117.016 78.0185 116.884 78.0462C116.751 78.0769 116.584 78.0923 116.381 78.0923C116.073 78.0923 115.771 78.0262 115.476 77.8938C115.183 77.7615 114.94 77.5599 114.746 77.2891C114.555 77.0182 114.46 76.6766 114.46 76.2642V69.2102ZM123.093 75.1009V70.9091H124.183V78H123.093V76.7997H123.019C122.853 77.1598 122.595 77.466 122.244 77.7184C121.893 77.9677 121.45 78.0923 120.914 78.0923C120.471 78.0923 120.077 77.9954 119.733 77.8015C119.388 77.6045 119.117 77.3091 118.92 76.9151C118.723 76.5181 118.625 76.018 118.625 75.4148V70.9091H119.714V75.3409C119.714 75.858 119.859 76.2704 120.148 76.5781C120.44 76.8859 120.813 77.0398 121.265 77.0398C121.536 77.0398 121.812 76.9705 122.092 76.832C122.375 76.6935 122.612 76.4812 122.803 76.195C122.996 75.9087 123.093 75.544 123.093 75.1009ZM126.1 78V70.9091H127.153V71.9801H127.227C127.356 71.6293 127.59 71.3446 127.928 71.1261C128.267 70.9076 128.649 70.7983 129.073 70.7983C129.153 70.7983 129.253 70.7998 129.373 70.8029C129.493 70.806 129.584 70.8106 129.646 70.8168V71.9247C129.609 71.9155 129.524 71.9016 129.392 71.8832C129.263 71.8616 129.126 71.8509 128.981 71.8509C128.636 71.8509 128.329 71.9232 128.058 72.0678C127.79 72.2094 127.578 72.4064 127.421 72.6587C127.267 72.908 127.19 73.1927 127.19 73.5128V78H126.1ZM133.616 78.1477C132.933 78.1477 132.344 77.9969 131.848 77.6953C131.356 77.3906 130.976 76.9659 130.708 76.4212C130.443 75.8733 130.311 75.2363 130.311 74.5099C130.311 73.7836 130.443 73.1435 130.708 72.5895C130.976 72.0324 131.348 71.5985 131.825 71.2876C132.305 70.9737 132.865 70.8168 133.506 70.8168C133.875 70.8168 134.24 70.8783 134.6 71.0014C134.96 71.1245 135.288 71.3246 135.583 71.6016C135.879 71.8755 136.114 72.2386 136.289 72.6911C136.465 73.1435 136.553 73.7005 136.553 74.3622V74.8239H131.087V73.8821H135.445C135.445 73.482 135.365 73.125 135.204 72.8111C135.048 72.4972 134.823 72.2494 134.53 72.0678C134.241 71.8862 133.9 71.7955 133.506 71.7955C133.072 71.7955 132.696 71.9032 132.379 72.1186C132.065 72.331 131.824 72.608 131.654 72.9496C131.485 73.2912 131.401 73.6574 131.401 74.0483V74.6761C131.401 75.2116 131.493 75.6656 131.678 76.038C131.865 76.4073 132.125 76.6889 132.458 76.8828C132.79 77.0736 133.176 77.169 133.616 77.169C133.903 77.169 134.161 77.129 134.392 77.049C134.626 76.9659 134.827 76.8428 134.997 76.6797C135.166 76.5135 135.297 76.3073 135.389 76.0611L136.442 76.3565C136.331 76.7135 136.145 77.0275 135.883 77.2983C135.622 77.5661 135.298 77.7753 134.914 77.9261C134.529 78.0739 134.097 78.1477 133.616 78.1477ZM149.355 68.5455V78H148.247L143.095 70.5767H143.003V78H141.858V68.5455H142.966L148.136 75.9872H148.229V68.5455H149.355ZM154.301 78.1477C153.661 78.1477 153.099 77.9954 152.616 77.6907C152.136 77.386 151.76 76.9598 151.489 76.4119C151.222 75.8641 151.088 75.224 151.088 74.4915C151.088 73.7528 151.222 73.1081 151.489 72.5572C151.76 72.0063 152.136 71.5785 152.616 71.2738C153.099 70.9691 153.661 70.8168 154.301 70.8168C154.941 70.8168 155.501 70.9691 155.981 71.2738C156.464 71.5785 156.84 72.0063 157.108 72.5572C157.378 73.1081 157.514 73.7528 157.514 74.4915C157.514 75.224 157.378 75.8641 157.108 76.4119C156.84 76.9598 156.464 77.386 155.981 77.6907C155.501 77.9954 154.941 78.1477 154.301 78.1477ZM154.301 77.169C154.787 77.169 155.187 77.0444 155.501 76.7951C155.815 76.5458 156.047 76.218 156.198 75.8118C156.349 75.4055 156.424 74.9654 156.424 74.4915C156.424 74.0175 156.349 73.5759 156.198 73.1665C156.047 72.7572 155.815 72.4264 155.501 72.174C155.187 71.9216 154.787 71.7955 154.301 71.7955C153.815 71.7955 153.414 71.9216 153.101 72.174C152.787 72.4264 152.554 72.7572 152.403 73.1665C152.253 73.5759 152.177 74.0175 152.177 74.4915C152.177 74.9654 152.253 75.4055 152.403 75.8118C152.554 76.218 152.787 76.5458 153.101 76.7951C153.414 77.0444 153.815 77.169 154.301 77.169ZM159.893 78.0739C159.665 78.0739 159.47 77.9923 159.307 77.8292C159.144 77.6661 159.062 77.4706 159.062 77.2429C159.062 77.0152 159.144 76.8197 159.307 76.6566C159.47 76.4935 159.665 76.4119 159.893 76.4119C160.121 76.4119 160.316 76.4935 160.479 76.6566C160.642 76.8197 160.724 77.0152 160.724 77.2429C160.724 77.3937 160.686 77.5322 160.609 77.6584C160.535 77.7846 160.435 77.8861 160.309 77.9631C160.185 78.0369 160.047 78.0739 159.893 78.0739ZM159.893 72.8111C159.665 72.8111 159.47 72.7295 159.307 72.5664C159.144 72.4033 159.062 72.2079 159.062 71.9801C159.062 71.7524 159.144 71.5569 159.307 71.3938C159.47 71.2307 159.665 71.1491 159.893 71.1491C160.121 71.1491 160.316 71.2307 160.479 71.3938C160.642 71.5569 160.724 71.7524 160.724 71.9801C160.724 72.1309 160.686 72.2694 160.609 72.3956C160.535 72.5218 160.435 72.6233 160.309 72.7003C160.185 72.7741 160.047 72.8111 159.893 72.8111ZM169.485 68.5455V78H168.34V69.7457H168.284L165.976 71.2784V70.1151L168.34 68.5455H169.485ZM175.154 78.1293C174.52 78.1293 173.96 78.0169 173.474 77.7923C172.991 77.5645 172.614 77.2521 172.343 76.8551C172.072 76.455 171.938 75.9995 171.941 75.4886C171.938 75.0885 172.017 74.7192 172.177 74.3807C172.337 74.0391 172.555 73.7544 172.832 73.5266C173.112 73.2958 173.425 73.1496 173.769 73.0881V73.0327C173.317 72.9157 172.957 72.6618 172.689 72.271C172.421 71.877 172.289 71.4292 172.292 70.9276C172.289 70.4474 172.411 70.0181 172.657 69.6396C172.903 69.261 173.241 68.9625 173.672 68.744C174.106 68.5254 174.6 68.4162 175.154 68.4162C175.702 68.4162 176.191 68.5254 176.622 68.744C177.053 68.9625 177.392 69.261 177.638 69.6396C177.887 70.0181 178.013 70.4474 178.016 70.9276C178.013 71.4292 177.876 71.877 177.606 72.271C177.338 72.6618 176.982 72.9157 176.539 73.0327V73.0881C176.881 73.1496 177.189 73.2958 177.462 73.5266C177.736 73.7544 177.955 74.0391 178.118 74.3807C178.281 74.7192 178.364 75.0885 178.367 75.4886C178.364 75.9995 178.226 76.455 177.952 76.8551C177.681 77.2521 177.304 77.5645 176.821 77.7923C176.341 78.0169 175.785 78.1293 175.154 78.1293ZM175.154 77.1136C175.582 77.1136 175.951 77.0444 176.262 76.9059C176.573 76.7674 176.813 76.572 176.982 76.3196C177.152 76.0672 177.238 75.7718 177.241 75.4332C177.238 75.0762 177.145 74.7608 176.964 74.4869C176.782 74.2129 176.535 73.9975 176.221 73.8406C175.91 73.6836 175.554 73.6051 175.154 73.6051C174.751 73.6051 174.391 73.6836 174.074 73.8406C173.76 73.9975 173.512 74.2129 173.331 74.4869C173.152 74.7608 173.065 75.0762 173.068 75.4332C173.065 75.7718 173.146 76.0672 173.312 76.3196C173.482 76.572 173.723 76.7674 174.037 76.9059C174.351 77.0444 174.723 77.1136 175.154 77.1136ZM175.154 72.6264C175.493 72.6264 175.793 72.5587 176.054 72.4233C176.319 72.2879 176.527 72.0986 176.678 71.8555C176.828 71.6123 176.905 71.3277 176.908 71.0014C176.905 70.6813 176.83 70.4028 176.682 70.1658C176.535 69.9258 176.33 69.7411 176.068 69.6119C175.807 69.4795 175.502 69.4134 175.154 69.4134C174.8 69.4134 174.491 69.4795 174.226 69.6119C173.962 69.7411 173.757 69.9258 173.612 70.1658C173.468 70.4028 173.397 70.6813 173.4 71.0014C173.397 71.3277 173.469 71.6123 173.617 71.8555C173.768 72.0986 173.975 72.2879 174.24 72.4233C174.505 72.5587 174.81 72.6264 175.154 72.6264ZM183.013 78.1293C182.471 78.1293 181.984 78.0215 181.55 77.8061C181.116 77.5907 180.768 77.2952 180.506 76.9197C180.245 76.5443 180.102 76.1165 180.077 75.6364H181.185C181.228 76.0642 181.422 76.4181 181.767 76.6982C182.114 76.9751 182.53 77.1136 183.013 77.1136C183.401 77.1136 183.746 77.0228 184.047 76.8413C184.352 76.6597 184.59 76.4104 184.763 76.0934C184.938 75.7733 185.026 75.4117 185.026 75.0085C185.026 74.5961 184.935 74.2283 184.754 73.9052C184.575 73.579 184.329 73.322 184.015 73.1342C183.701 72.9465 183.342 72.8511 182.939 72.848C182.65 72.8449 182.353 72.8896 182.048 72.9819C181.744 73.0711 181.493 73.1866 181.296 73.3281L180.225 73.1989L180.797 68.5455H185.709V69.5611H181.757L181.425 72.3494H181.48C181.674 72.1955 181.917 72.0678 182.21 71.9663C182.502 71.8647 182.807 71.8139 183.124 71.8139C183.703 71.8139 184.218 71.9524 184.67 72.2294C185.126 72.5033 185.483 72.8788 185.741 73.3558C186.003 73.8329 186.134 74.3776 186.134 74.9901C186.134 75.5933 185.998 76.1319 185.728 76.6058C185.46 77.0767 185.091 77.4491 184.62 77.723C184.149 77.9938 183.613 78.1293 183.013 78.1293ZM188.185 78L192.414 69.6349V69.5611H187.539V68.5455H193.596V69.6165L189.385 78H188.185ZM198.076 78.1293C197.442 78.1293 196.882 78.0169 196.396 77.7923C195.913 77.5645 195.536 77.2521 195.265 76.8551C194.994 76.455 194.86 75.9995 194.863 75.4886C194.86 75.0885 194.939 74.7192 195.099 74.3807C195.259 74.0391 195.477 73.7544 195.754 73.5266C196.034 73.2958 196.347 73.1496 196.692 73.0881V73.0327C196.239 72.9157 195.879 72.6618 195.611 72.271C195.344 71.877 195.211 71.4292 195.214 70.9276C195.211 70.4474 195.333 70.0181 195.579 69.6396C195.825 69.261 196.164 68.9625 196.595 68.744C197.029 68.5254 197.523 68.4162 198.076 68.4162C198.624 68.4162 199.114 68.5254 199.545 68.744C199.975 68.9625 200.314 69.261 200.56 69.6396C200.809 70.0181 200.936 70.4474 200.939 70.9276C200.936 71.4292 200.799 71.877 200.528 72.271C200.26 72.6618 199.905 72.9157 199.461 73.0327V73.0881C199.803 73.1496 200.111 73.2958 200.385 73.5266C200.659 73.7544 200.877 74.0391 201.04 74.3807C201.203 74.7192 201.286 75.0885 201.29 75.4886C201.286 75.9995 201.148 76.455 200.874 76.8551C200.603 77.2521 200.226 77.5645 199.743 77.7923C199.263 78.0169 198.707 78.1293 198.076 78.1293ZM198.076 77.1136C198.504 77.1136 198.874 77.0444 199.184 76.9059C199.495 76.7674 199.735 76.572 199.905 76.3196C200.074 76.0672 200.16 75.7718 200.163 75.4332C200.16 75.0762 200.068 74.7608 199.886 74.4869C199.705 74.2129 199.457 73.9975 199.143 73.8406C198.832 73.6836 198.477 73.6051 198.076 73.6051C197.673 73.6051 197.313 73.6836 196.996 73.8406C196.682 73.9975 196.435 74.2129 196.253 74.4869C196.074 74.7608 195.987 75.0762 195.99 75.4332C195.987 75.7718 196.068 76.0672 196.235 76.3196C196.404 76.572 196.645 76.7674 196.959 76.9059C197.273 77.0444 197.646 77.1136 198.076 77.1136ZM198.076 72.6264C198.415 72.6264 198.715 72.5587 198.977 72.4233C199.241 72.2879 199.449 72.0986 199.6 71.8555C199.751 71.6123 199.828 71.3277 199.831 71.0014C199.828 70.6813 199.752 70.4028 199.605 70.1658C199.457 69.9258 199.252 69.7411 198.991 69.6119C198.729 69.4795 198.424 69.4134 198.076 69.4134C197.723 69.4134 197.413 69.4795 197.149 69.6119C196.884 69.7411 196.679 69.9258 196.535 70.1658C196.39 70.4028 196.319 70.6813 196.322 71.0014C196.319 71.3277 196.391 71.6123 196.539 71.8555C196.69 72.0986 196.898 72.2879 197.162 72.4233C197.427 72.5587 197.732 72.6264 198.076 72.6264Z" fill="#96969C"/>
<path d="M237.891 60.853V62.2379H233.055V60.853H237.891ZM243.359 68.3636V54.7273H244.233V68.3636H243.359ZM246.092 58.9567C246.035 58.4524 245.801 58.0618 245.389 57.7848C244.977 57.5043 244.458 57.364 243.833 57.364C243.386 57.364 242.999 57.435 242.672 57.5771C242.345 57.7156 242.091 57.9073 241.91 58.1523C241.733 58.3938 241.644 58.669 241.644 58.978C241.644 59.2372 241.704 59.4609 241.825 59.6491C241.949 59.8374 242.111 59.9954 242.31 60.1232C242.512 60.2475 242.729 60.3523 242.96 60.4375C243.191 60.5192 243.412 60.5866 243.626 60.6399L244.691 60.9169C245.039 61.0021 245.396 61.1175 245.762 61.2631C246.127 61.4087 246.466 61.6005 246.779 61.8384C247.091 62.0763 247.344 62.3711 247.535 62.7227C247.731 63.0742 247.828 63.495 247.828 63.9851C247.828 64.603 247.669 65.1516 247.349 65.631C247.033 66.1104 246.573 66.4886 245.969 66.7656C245.369 67.0426 244.643 67.1811 243.791 67.1811C242.974 67.1811 242.267 67.0515 241.671 66.7923C241.074 66.533 240.607 66.1655 240.27 65.6896C239.932 65.2102 239.746 64.642 239.71 63.9851H241.362C241.394 64.3793 241.521 64.7077 241.745 64.9705C241.972 65.2298 242.262 65.4233 242.613 65.5511C242.969 65.6754 243.357 65.7376 243.78 65.7376C244.245 65.7376 244.659 65.6648 245.021 65.5192C245.387 65.37 245.675 65.1641 245.884 64.9013C246.094 64.6349 246.198 64.3242 246.198 63.9691C246.198 63.646 246.106 63.3814 245.921 63.1754C245.74 62.9695 245.493 62.799 245.181 62.6641C244.872 62.5291 244.522 62.4102 244.132 62.3072L242.843 61.9556C241.969 61.7177 241.276 61.3679 240.765 60.9062C240.257 60.4446 240.003 59.8338 240.003 59.0739C240.003 58.4453 240.174 57.8967 240.515 57.4279C240.856 56.9592 241.317 56.5952 241.9 56.3359C242.482 56.0732 243.139 55.9418 243.871 55.9418C244.609 55.9418 245.261 56.0714 245.825 56.3306C246.394 56.5898 246.841 56.9467 247.168 57.4013C247.494 57.8523 247.665 58.3707 247.679 58.9567H246.092ZM250.014 67L254.776 57.5824V57.5025H249.268V56.0909H256.48V57.5504L251.734 67H250.014ZM261.799 67.1491C261.035 67.1491 260.361 67.0178 259.775 66.755C259.192 66.4922 258.736 66.13 258.406 65.6683C258.076 65.2067 257.912 64.6811 257.916 64.0916C257.912 63.63 258.006 63.2056 258.198 62.8185C258.393 62.4279 258.658 62.103 258.992 61.8438C259.326 61.581 259.698 61.4141 260.11 61.343V61.2791C259.567 61.1477 259.132 60.8565 258.805 60.4055C258.479 59.9545 258.317 59.4361 258.321 58.8501C258.317 58.2926 258.464 57.7955 258.763 57.3587C259.065 56.9183 259.478 56.5721 260.004 56.32C260.529 56.0678 261.128 55.9418 261.799 55.9418C262.463 55.9418 263.056 56.0696 263.578 56.3253C264.104 56.5774 264.517 56.9237 264.819 57.364C265.121 57.8008 265.274 58.2962 265.277 58.8501C265.274 59.4361 265.107 59.9545 264.777 60.4055C264.446 60.8565 264.017 61.1477 263.487 61.2791V61.343C263.896 61.4141 264.263 61.581 264.59 61.8438C264.92 62.103 265.183 62.4279 265.378 62.8185C265.577 63.2056 265.679 63.63 265.682 64.0916C265.679 64.6811 265.512 65.2067 265.181 65.6683C264.851 66.13 264.393 66.4922 263.807 66.755C263.225 67.0178 262.555 67.1491 261.799 67.1491ZM261.799 65.8015C262.25 65.8015 262.641 65.7269 262.971 65.5778C263.301 65.4251 263.557 65.2138 263.738 64.9439C263.919 64.6705 264.011 64.3509 264.015 63.9851C264.011 63.6051 263.912 63.2695 263.717 62.9783C263.525 62.6871 263.264 62.4581 262.934 62.2912C262.603 62.1243 262.225 62.0408 261.799 62.0408C261.369 62.0408 260.987 62.1243 260.654 62.2912C260.32 62.4581 260.057 62.6871 259.865 62.9783C259.674 63.2695 259.579 63.6051 259.583 63.9851C259.579 64.3509 259.666 64.6705 259.844 64.9439C260.025 65.2138 260.283 65.4251 260.616 65.5778C260.95 65.7269 261.344 65.8015 261.799 65.8015ZM261.799 60.7251C262.161 60.7251 262.483 60.6523 262.763 60.5067C263.044 60.3612 263.264 60.1587 263.424 59.8995C263.587 59.6403 263.67 59.3366 263.674 58.9886C263.67 58.6477 263.589 58.3494 263.429 58.0938C263.273 57.8381 263.054 57.641 262.774 57.5025C262.493 57.3604 262.168 57.2894 261.799 57.2894C261.422 57.2894 261.092 57.3604 260.808 57.5025C260.528 57.641 260.309 57.8381 260.153 58.0938C259.997 58.3494 259.92 58.6477 259.924 58.9886C259.92 59.3366 259.998 59.6403 260.158 59.8995C260.318 60.1587 260.538 60.3612 260.819 60.5067C261.103 60.6523 261.43 60.7251 261.799 60.7251ZM268.339 67.1012C268.048 67.1012 267.797 66.9982 267.588 66.7923C267.378 66.5827 267.273 66.3306 267.273 66.0359C267.273 65.7447 267.378 65.4961 267.588 65.2901C267.797 65.0806 268.048 64.9759 268.339 64.9759C268.63 64.9759 268.88 65.0806 269.09 65.2901C269.299 65.4961 269.404 65.7447 269.404 66.0359C269.404 66.2312 269.354 66.4105 269.255 66.5739C269.159 66.7337 269.031 66.8615 268.871 66.9574C268.712 67.0533 268.534 67.1012 268.339 67.1012ZM274.919 67.1811C274.077 67.1776 273.358 66.9556 272.761 66.5153C272.165 66.0749 271.708 65.4339 271.392 64.5923C271.076 63.7507 270.918 62.7369 270.918 61.5508C270.918 60.3683 271.076 59.358 271.392 58.5199C271.712 57.6818 272.17 57.0426 272.767 56.6023C273.367 56.1619 274.084 55.9418 274.919 55.9418C275.753 55.9418 276.469 56.1637 277.065 56.6076C277.662 57.0479 278.118 57.6871 278.434 58.5252C278.754 59.3597 278.914 60.3683 278.914 61.5508C278.914 62.7404 278.756 63.756 278.44 64.5977C278.123 65.4357 277.667 66.0767 277.071 66.5206C276.474 66.9609 275.757 67.1811 274.919 67.1811ZM274.919 65.7589C275.657 65.7589 276.234 65.3984 276.65 64.6776C277.069 63.9567 277.278 62.9144 277.278 61.5508C277.278 60.6452 277.182 59.88 276.991 59.255C276.802 58.6264 276.531 58.1506 276.176 57.8274C275.824 57.5007 275.405 57.3374 274.919 57.3374C274.184 57.3374 273.606 57.6996 273.187 58.424C272.768 59.1484 272.557 60.1907 272.554 61.5508C272.554 62.4599 272.648 63.2287 272.836 63.8572C273.028 64.4822 273.299 64.9563 273.651 65.2795C274.002 65.5991 274.425 65.7589 274.919 65.7589ZM284.601 67.1811C283.76 67.1776 283.04 66.9556 282.444 66.5153C281.847 66.0749 281.391 65.4339 281.075 64.5923C280.759 63.7507 280.601 62.7369 280.601 61.5508C280.601 60.3683 280.759 59.358 281.075 58.5199C281.395 57.6818 281.853 57.0426 282.449 56.6023C283.049 56.1619 283.767 55.9418 284.601 55.9418C285.436 55.9418 286.151 56.1637 286.748 56.6076C287.344 57.0479 287.801 57.6871 288.117 58.5252C288.436 59.3597 288.596 60.3683 288.596 61.5508C288.596 62.7404 288.438 63.756 288.122 64.5977C287.806 65.4357 287.35 66.0767 286.753 66.5206C286.157 66.9609 285.439 67.1811 284.601 67.1811ZM284.601 65.7589C285.34 65.7589 285.917 65.3984 286.332 64.6776C286.751 63.9567 286.961 62.9144 286.961 61.5508C286.961 60.6452 286.865 59.88 286.673 59.255C286.485 58.6264 286.213 58.1506 285.858 57.8274C285.507 57.5007 285.088 57.3374 284.601 57.3374C283.866 57.3374 283.289 57.6996 282.87 58.424C282.451 59.1484 282.24 60.1907 282.236 61.5508C282.236 62.4599 282.33 63.2287 282.518 63.8572C282.71 64.4822 282.982 64.9563 283.333 65.2795C283.685 65.5991 284.108 65.7589 284.601 65.7589Z" fill="#131314"/>
</g>
<rect x="13" y="114" width="301" height="72" rx="18" fill="white"/>
<rect x="37.25" y="130.25" width="39.5" height="39.5" rx="19.75" stroke="black" stroke-opacity="0.08" stroke-width="0.5"/>
<circle cx="57" cy="150" r="20" fill="#0DBD8B"/>
<path fill-rule="evenodd" clip-rule="evenodd" d="M61.8 141.429C63.7202 141.429 64.6803 141.429 65.4137 141.803C66.0589 142.132 66.5834 142.656 66.9121 143.301C67.2858 144.035 67.2858 144.995 67.2858 146.915V150.515C67.2858 152.435 67.2858 153.395 66.9121 154.129C66.5834 154.774 66.0589 155.298 65.4137 155.627C64.6803 156.001 63.7202 156.001 61.8 156.001L60.8571 156.001L61.8284 157.166C62.2937 157.725 61.8967 158.572 61.1699 158.572H52.83C52.1033 158.572 51.7063 157.725 52.1715 157.166L53.1428 156.001L52.2 156.001C50.2799 156.001 49.3198 156.001 48.5864 155.627C47.9412 155.298 47.4167 154.774 47.088 154.129C46.7143 153.395 46.7143 152.435 46.7143 150.515V146.915C46.7143 144.995 46.7143 144.035 47.088 143.301C47.4167 142.656 47.9412 142.132 48.5864 141.803C49.3198 141.429 50.2799 141.429 52.2 141.429H61.8ZM65.5715 146.915V150.515C65.5715 151.503 65.5701 152.142 65.5305 152.627C65.4924 153.093 65.4278 153.266 65.3846 153.35C65.2203 153.673 64.958 153.935 64.6355 154.1C64.5507 154.143 64.378 154.207 63.9123 154.245C63.4266 154.285 62.7884 154.286 61.8 154.286L52.2 154.286C51.2117 154.286 50.5735 154.285 50.0878 154.245C49.6221 154.207 49.4494 154.143 49.3646 154.1C49.0421 153.935 48.7798 153.673 48.6155 153.35C48.5723 153.266 48.5077 153.093 48.4696 152.627C48.4299 152.142 48.4286 151.503 48.4286 150.515V146.915C48.4286 145.927 48.4299 145.288 48.4696 144.803C48.5077 144.337 48.5723 144.164 48.6155 144.08C48.7798 143.757 49.0421 143.495 49.3646 143.33C49.4494 143.287 49.6221 143.223 50.0878 143.185C50.5735 143.145 51.2117 143.144 52.2 143.144L61.8 143.144C62.7884 143.144 63.4266 143.145 63.9123 143.185C64.378 143.223 64.5507 143.287 64.6355 143.33C64.958 143.495 65.2203 143.757 65.3846 144.08C65.4278 144.164 65.4924 144.337 65.5305 144.803C65.5701 145.288 65.5715 145.927 65.5715 146.915Z" fill="white"/>
<path fill-rule="evenodd" clip-rule="evenodd" d="M64.0845 141.077C64.681 141.126 65.1628 141.226 65.5953 141.447C66.3157 141.814 66.9014 142.399 67.2685 143.12C67.4888 143.552 67.589 144.034 67.6377 144.631C67.6858 145.219 67.6858 145.952 67.6858 146.897V150.533C67.6858 151.478 67.6858 152.211 67.6377 152.799C67.589 153.396 67.4888 153.878 67.2685 154.31C66.9014 155.031 66.3157 155.616 65.5953 155.983C65.1628 156.204 64.681 156.304 64.0845 156.353C63.4965 156.401 62.763 156.401 61.8183 156.401H61.7111L62.1357 156.91C62.8181 157.729 62.2358 158.972 61.1699 158.972H52.83C51.7642 158.972 51.1819 157.729 51.8643 156.91L52.2888 156.401H52.1818C51.2371 156.401 50.5036 156.401 49.9156 156.353C49.3191 156.304 48.8373 156.204 48.4048 155.983C47.6844 155.616 47.0987 155.031 46.7316 154.31C46.5113 153.878 46.4111 153.396 46.3624 152.799C46.3143 152.211 46.3143 151.478 46.3143 150.533V146.897C46.3143 145.952 46.3143 145.219 46.3624 144.631C46.4111 144.034 46.5113 143.552 46.7316 143.12C47.0987 142.399 47.6844 141.814 48.4048 141.447C48.8373 141.226 49.3191 141.126 49.9156 141.077C50.5036 141.029 51.2372 141.029 52.1819 141.029H61.8182C62.7629 141.029 63.4965 141.029 64.0845 141.077ZM52.2 156.001C50.2799 156.001 49.3198 156.001 48.5864 155.627C47.9412 155.298 47.4167 154.774 47.088 154.129C46.7143 153.395 46.7143 152.435 46.7143 150.515V146.915C46.7143 144.995 46.7143 144.035 47.088 143.301C47.4167 142.656 47.9412 142.132 48.5864 141.803C49.3198 141.429 50.2799 141.429 52.2 141.429H61.8C63.7202 141.429 64.6803 141.429 65.4137 141.803C66.0589 142.132 66.5834 142.656 66.9121 143.301C67.2858 144.035 67.2858 144.995 67.2858 146.915V150.515C67.2858 152.435 67.2858 153.395 66.9121 154.129C66.5834 154.774 66.0589 155.298 65.4137 155.627C64.6803 156.001 63.7202 156.001 61.8 156.001L60.8571 156.001L61.8284 157.166C62.2937 157.725 61.8967 158.572 61.1699 158.572H52.83C52.1033 158.572 51.7063 157.725 52.1715 157.166L53.1428 156.001L52.2 156.001Z" fill="white"/>
<path d="M101.259 138.638H99.5973C99.5334 138.283 99.4144 137.971 99.2404 137.701C99.0664 137.431 98.8533 137.202 98.6012 137.014C98.3491 136.826 98.0668 136.684 97.7543 136.588C97.4453 136.492 97.1168 136.444 96.7688 136.444C96.1403 136.444 95.5774 136.602 95.0803 136.918C94.5866 137.234 94.196 137.697 93.9084 138.308C93.6243 138.919 93.4822 139.665 93.4822 140.545C93.4822 141.433 93.6243 142.183 93.9084 142.793C94.196 143.404 94.5884 143.866 95.0856 144.178C95.5827 144.491 96.142 144.647 96.7635 144.647C97.108 144.647 97.4347 144.601 97.7436 144.509C98.0561 144.413 98.3384 144.272 98.5906 144.088C98.8427 143.903 99.0558 143.678 99.2298 143.411C99.4073 143.141 99.5298 142.832 99.5973 142.484L101.259 142.49C101.17 143.026 100.998 143.52 100.743 143.971C100.49 144.418 100.165 144.805 99.7678 145.132C99.3736 145.455 98.9226 145.705 98.4148 145.883C97.907 146.06 97.353 146.149 96.7528 146.149C95.8082 146.149 94.9666 145.925 94.228 145.478C93.4893 145.027 92.907 144.382 92.4808 143.544C92.0582 142.706 91.8469 141.707 91.8469 140.545C91.8469 139.381 92.06 138.381 92.4862 137.547C92.9123 136.708 93.4947 136.066 94.2333 135.618C94.9719 135.167 95.8118 134.942 96.7528 134.942C97.3317 134.942 97.8714 135.025 98.3722 135.192C98.8764 135.355 99.3292 135.597 99.7305 135.917C100.132 136.233 100.464 136.62 100.727 137.078C100.989 137.532 101.167 138.053 101.259 138.638ZM105.482 146.181C104.964 146.181 104.495 146.085 104.076 145.893C103.657 145.698 103.325 145.416 103.08 145.047C102.838 144.677 102.717 144.224 102.717 143.688C102.717 143.227 102.806 142.847 102.984 142.548C103.161 142.25 103.401 142.014 103.703 141.84C104.005 141.666 104.342 141.534 104.715 141.446C105.088 141.357 105.468 141.289 105.855 141.243C106.345 141.186 106.743 141.14 107.048 141.105C107.353 141.066 107.575 141.004 107.714 140.918C107.852 140.833 107.922 140.695 107.922 140.503V140.466C107.922 140 107.79 139.64 107.527 139.384C107.268 139.129 106.881 139.001 106.366 139.001C105.83 139.001 105.407 139.12 105.098 139.358C104.793 139.592 104.582 139.853 104.465 140.141L102.968 139.8C103.145 139.303 103.405 138.901 103.745 138.596C104.09 138.287 104.486 138.063 104.933 137.925C105.381 137.783 105.851 137.712 106.345 137.712C106.672 137.712 107.018 137.751 107.384 137.829C107.753 137.903 108.097 138.042 108.417 138.244C108.74 138.447 109.005 138.736 109.211 139.113C109.417 139.485 109.52 139.97 109.52 140.567V146H107.964V144.881H107.9C107.797 145.087 107.643 145.29 107.437 145.489C107.231 145.687 106.966 145.853 106.643 145.984C106.32 146.115 105.933 146.181 105.482 146.181ZM105.828 144.903C106.269 144.903 106.645 144.816 106.957 144.642C107.274 144.468 107.513 144.24 107.677 143.96C107.843 143.676 107.927 143.372 107.927 143.049V141.994C107.87 142.051 107.76 142.104 107.597 142.154C107.437 142.2 107.254 142.241 107.048 142.277C106.842 142.309 106.641 142.339 106.446 142.367C106.251 142.392 106.087 142.413 105.956 142.431C105.647 142.47 105.365 142.536 105.109 142.628C104.857 142.721 104.655 142.854 104.502 143.028C104.353 143.198 104.278 143.425 104.278 143.71C104.278 144.104 104.424 144.402 104.715 144.604C105.006 144.803 105.377 144.903 105.828 144.903ZM111.769 146V135.091H113.362V139.145H113.457C113.55 138.974 113.683 138.777 113.857 138.553C114.031 138.33 114.272 138.134 114.581 137.967C114.89 137.797 115.299 137.712 115.806 137.712C116.467 137.712 117.056 137.879 117.575 138.212C118.093 138.546 118.5 139.027 118.795 139.656C119.093 140.284 119.242 141.041 119.242 141.925C119.242 142.809 119.095 143.567 118.8 144.2C118.505 144.828 118.1 145.313 117.586 145.654C117.071 145.991 116.483 146.16 115.822 146.16C115.325 146.16 114.919 146.076 114.603 145.909C114.29 145.743 114.045 145.547 113.868 145.324C113.69 145.1 113.553 144.901 113.457 144.727H113.324V146H111.769ZM113.33 141.909C113.33 142.484 113.413 142.989 113.58 143.422C113.747 143.855 113.988 144.194 114.304 144.439C114.62 144.681 115.007 144.801 115.466 144.801C115.941 144.801 116.339 144.675 116.659 144.423C116.978 144.168 117.22 143.821 117.383 143.385C117.55 142.948 117.634 142.456 117.634 141.909C117.634 141.369 117.552 140.885 117.388 140.455C117.229 140.025 116.987 139.686 116.664 139.438C116.344 139.189 115.945 139.065 115.466 139.065C115.004 139.065 114.613 139.184 114.294 139.422C113.978 139.659 113.738 139.991 113.575 140.418C113.411 140.844 113.33 141.341 113.33 141.909ZM122.623 135.091V146H121.031V135.091H122.623ZM128.292 146.165C127.486 146.165 126.792 145.993 126.21 145.648C125.631 145.3 125.183 144.812 124.867 144.184C124.555 143.551 124.398 142.811 124.398 141.962C124.398 141.124 124.555 140.386 124.867 139.746C125.183 139.107 125.624 138.608 126.188 138.25C126.756 137.891 127.42 137.712 128.18 137.712C128.642 137.712 129.089 137.788 129.523 137.941C129.956 138.093 130.345 138.333 130.689 138.66C131.034 138.987 131.305 139.411 131.504 139.933C131.703 140.451 131.803 141.082 131.803 141.824V142.388H125.299V141.195H130.242C130.242 140.776 130.157 140.405 129.986 140.082C129.816 139.755 129.576 139.498 129.267 139.31C128.962 139.121 128.603 139.027 128.191 139.027C127.744 139.027 127.353 139.137 127.019 139.358C126.689 139.574 126.433 139.858 126.252 140.21C126.075 140.558 125.986 140.936 125.986 141.344V142.277C125.986 142.824 126.082 143.289 126.273 143.672C126.469 144.056 126.74 144.349 127.088 144.551C127.436 144.75 127.843 144.849 128.308 144.849C128.61 144.849 128.885 144.807 129.134 144.722C129.382 144.633 129.597 144.501 129.778 144.327C129.96 144.153 130.098 143.939 130.194 143.683L131.701 143.955C131.581 144.398 131.364 144.787 131.051 145.121C130.743 145.451 130.354 145.709 129.885 145.893C129.42 146.075 128.889 146.165 128.292 146.165ZM137.129 136.508V135.091H145.572V136.508H142.168V146H140.528V136.508H137.129ZM148.391 135.091L151.427 143.976H151.55L154.586 135.091H156.365L152.44 146H150.538L146.612 135.091H148.391Z" fill="#131314"/>
<path d="M92.1449 166V156.545H97.8139V157.561H93.2898V160.756H97.3892V161.771H93.2898V166H92.1449ZM101.636 166.166C101.186 166.166 100.779 166.082 100.412 165.912C100.046 165.74 99.7552 165.492 99.5398 165.169C99.3244 164.843 99.2167 164.449 99.2167 163.987C99.2167 163.581 99.2967 163.252 99.4567 162.999C99.6168 162.744 99.8306 162.544 100.098 162.399C100.366 162.254 100.662 162.147 100.985 162.076C101.311 162.002 101.639 161.944 101.968 161.901C102.399 161.845 102.748 161.804 103.016 161.776C103.287 161.745 103.484 161.694 103.607 161.624C103.733 161.553 103.796 161.43 103.796 161.254V161.217C103.796 160.762 103.672 160.408 103.422 160.156C103.176 159.903 102.802 159.777 102.3 159.777C101.78 159.777 101.373 159.891 101.077 160.119C100.782 160.346 100.574 160.589 100.454 160.848L99.4198 160.479C99.6044 160.048 99.8507 159.712 100.158 159.472C100.469 159.229 100.808 159.06 101.174 158.964C101.543 158.866 101.907 158.817 102.264 158.817C102.491 158.817 102.753 158.844 103.048 158.9C103.347 158.952 103.635 159.061 103.912 159.228C104.192 159.394 104.424 159.645 104.609 159.98C104.793 160.316 104.886 160.765 104.886 161.328V166H103.796V165.04H103.741C103.667 165.194 103.544 165.358 103.371 165.534C103.199 165.709 102.97 165.858 102.684 165.982C102.397 166.105 102.048 166.166 101.636 166.166ZM101.802 165.188C102.233 165.188 102.596 165.103 102.891 164.934C103.19 164.764 103.415 164.546 103.565 164.278C103.719 164.01 103.796 163.729 103.796 163.433V162.436C103.75 162.491 103.648 162.542 103.492 162.588C103.338 162.632 103.159 162.67 102.956 162.704C102.756 162.735 102.561 162.762 102.37 162.787C102.182 162.808 102.03 162.827 101.913 162.842C101.63 162.879 101.365 162.939 101.119 163.022C100.876 163.102 100.679 163.224 100.528 163.387C100.38 163.547 100.306 163.766 100.306 164.043C100.306 164.421 100.446 164.707 100.726 164.901C101.009 165.092 101.368 165.188 101.802 165.188ZM109.677 166.148C109.012 166.148 108.44 165.991 107.96 165.677C107.479 165.363 107.11 164.931 106.852 164.38C106.593 163.829 106.464 163.199 106.464 162.491C106.464 161.771 106.596 161.136 106.861 160.585C107.129 160.031 107.501 159.598 107.978 159.288C108.458 158.974 109.018 158.817 109.658 158.817C110.157 158.817 110.606 158.909 111.006 159.094C111.407 159.278 111.734 159.537 111.99 159.869C112.245 160.202 112.404 160.589 112.465 161.033H111.376C111.293 160.71 111.108 160.423 110.822 160.174C110.539 159.922 110.157 159.795 109.677 159.795C109.252 159.795 108.88 159.906 108.56 160.128C108.243 160.346 107.995 160.656 107.816 161.056C107.641 161.453 107.553 161.919 107.553 162.455C107.553 163.002 107.64 163.479 107.812 163.886C107.987 164.292 108.234 164.607 108.55 164.832C108.871 165.057 109.246 165.169 109.677 165.169C109.96 165.169 110.217 165.12 110.448 165.021C110.679 164.923 110.874 164.781 111.034 164.597C111.194 164.412 111.308 164.19 111.376 163.932H112.465C112.404 164.35 112.251 164.727 112.008 165.063C111.768 165.395 111.45 165.66 111.053 165.857C110.659 166.051 110.2 166.148 109.677 166.148ZM117.064 158.909V159.832H113.389V158.909H117.064ZM114.46 157.21H115.55V163.969C115.55 164.277 115.594 164.507 115.683 164.661C115.776 164.812 115.893 164.914 116.034 164.966C116.179 165.015 116.331 165.04 116.491 165.04C116.611 165.04 116.71 165.034 116.787 165.021C116.864 165.006 116.925 164.994 116.971 164.984L117.193 165.963C117.119 165.991 117.016 166.018 116.884 166.046C116.751 166.077 116.584 166.092 116.381 166.092C116.073 166.092 115.771 166.026 115.476 165.894C115.183 165.761 114.94 165.56 114.746 165.289C114.555 165.018 114.46 164.677 114.46 164.264V157.21ZM123.093 163.101V158.909H124.183V166H123.093V164.8H123.019C122.853 165.16 122.595 165.466 122.244 165.718C121.893 165.968 121.45 166.092 120.914 166.092C120.471 166.092 120.077 165.995 119.733 165.801C119.388 165.605 119.117 165.309 118.92 164.915C118.723 164.518 118.625 164.018 118.625 163.415V158.909H119.714V163.341C119.714 163.858 119.859 164.27 120.148 164.578C120.44 164.886 120.813 165.04 121.265 165.04C121.536 165.04 121.812 164.971 122.092 164.832C122.375 164.694 122.612 164.481 122.803 164.195C122.996 163.909 123.093 163.544 123.093 163.101ZM126.1 166V158.909H127.153V159.98H127.227C127.356 159.629 127.59 159.345 127.928 159.126C128.267 158.908 128.649 158.798 129.073 158.798C129.153 158.798 129.253 158.8 129.373 158.803C129.493 158.806 129.584 158.811 129.646 158.817V159.925C129.609 159.915 129.524 159.902 129.392 159.883C129.263 159.862 129.126 159.851 128.981 159.851C128.636 159.851 128.329 159.923 128.058 160.068C127.79 160.209 127.578 160.406 127.421 160.659C127.267 160.908 127.19 161.193 127.19 161.513V166H126.1ZM133.616 166.148C132.933 166.148 132.344 165.997 131.848 165.695C131.356 165.391 130.976 164.966 130.708 164.421C130.443 163.873 130.311 163.236 130.311 162.51C130.311 161.784 130.443 161.143 130.708 160.589C130.976 160.032 131.348 159.598 131.825 159.288C132.305 158.974 132.865 158.817 133.506 158.817C133.875 158.817 134.24 158.878 134.6 159.001C134.96 159.125 135.288 159.325 135.583 159.602C135.879 159.875 136.114 160.239 136.289 160.691C136.465 161.143 136.553 161.701 136.553 162.362V162.824H131.087V161.882H135.445C135.445 161.482 135.365 161.125 135.204 160.811C135.048 160.497 134.823 160.249 134.53 160.068C134.241 159.886 133.9 159.795 133.506 159.795C133.072 159.795 132.696 159.903 132.379 160.119C132.065 160.331 131.824 160.608 131.654 160.95C131.485 161.291 131.401 161.657 131.401 162.048V162.676C131.401 163.212 131.493 163.666 131.678 164.038C131.865 164.407 132.125 164.689 132.458 164.883C132.79 165.074 133.176 165.169 133.616 165.169C133.903 165.169 134.161 165.129 134.392 165.049C134.626 164.966 134.827 164.843 134.997 164.68C135.166 164.513 135.297 164.307 135.389 164.061L136.442 164.357C136.331 164.714 136.145 165.027 135.883 165.298C135.622 165.566 135.298 165.775 134.914 165.926C134.529 166.074 134.097 166.148 133.616 166.148ZM149.355 156.545V166H148.247L143.095 158.577H143.003V166H141.858V156.545H142.966L148.136 163.987H148.229V156.545H149.355ZM154.301 166.148C153.661 166.148 153.099 165.995 152.616 165.691C152.136 165.386 151.76 164.96 151.489 164.412C151.222 163.864 151.088 163.224 151.088 162.491C151.088 161.753 151.222 161.108 151.489 160.557C151.76 160.006 152.136 159.578 152.616 159.274C153.099 158.969 153.661 158.817 154.301 158.817C154.941 158.817 155.501 158.969 155.981 159.274C156.464 159.578 156.84 160.006 157.108 160.557C157.378 161.108 157.514 161.753 157.514 162.491C157.514 163.224 157.378 163.864 157.108 164.412C156.84 164.96 156.464 165.386 155.981 165.691C155.501 165.995 154.941 166.148 154.301 166.148ZM154.301 165.169C154.787 165.169 155.187 165.044 155.501 164.795C155.815 164.546 156.047 164.218 156.198 163.812C156.349 163.406 156.424 162.965 156.424 162.491C156.424 162.018 156.349 161.576 156.198 161.167C156.047 160.757 155.815 160.426 155.501 160.174C155.187 159.922 154.787 159.795 154.301 159.795C153.815 159.795 153.414 159.922 153.101 160.174C152.787 160.426 152.554 160.757 152.403 161.167C152.253 161.576 152.177 162.018 152.177 162.491C152.177 162.965 152.253 163.406 152.403 163.812C152.554 164.218 152.787 164.546 153.101 164.795C153.414 165.044 153.815 165.169 154.301 165.169ZM159.893 166.074C159.665 166.074 159.47 165.992 159.307 165.829C159.144 165.666 159.062 165.471 159.062 165.243C159.062 165.015 159.144 164.82 159.307 164.657C159.47 164.493 159.665 164.412 159.893 164.412C160.121 164.412 160.316 164.493 160.479 164.657C160.642 164.82 160.724 165.015 160.724 165.243C160.724 165.394 160.686 165.532 160.609 165.658C160.535 165.785 160.435 165.886 160.309 165.963C160.185 166.037 160.047 166.074 159.893 166.074ZM159.893 160.811C159.665 160.811 159.47 160.73 159.307 160.566C159.144 160.403 159.062 160.208 159.062 159.98C159.062 159.752 159.144 159.557 159.307 159.394C159.47 159.231 159.665 159.149 159.893 159.149C160.121 159.149 160.316 159.231 160.479 159.394C160.642 159.557 160.724 159.752 160.724 159.98C160.724 160.131 160.686 160.269 160.609 160.396C160.535 160.522 160.435 160.623 160.309 160.7C160.185 160.774 160.047 160.811 159.893 160.811ZM169.485 156.545V166H168.34V157.746H168.284L165.976 159.278V158.115L168.34 156.545H169.485ZM175.265 166.129C174.877 166.123 174.489 166.049 174.102 165.908C173.714 165.766 173.36 165.528 173.04 165.192C172.72 164.854 172.463 164.397 172.269 163.821C172.075 163.242 171.978 162.516 171.978 161.642C171.978 160.805 172.057 160.063 172.214 159.417C172.37 158.768 172.598 158.221 172.897 157.778C173.195 157.332 173.555 156.993 173.977 156.762C174.402 156.532 174.88 156.416 175.413 156.416C175.942 156.416 176.413 156.522 176.825 156.735C177.241 156.944 177.579 157.236 177.841 157.612C178.103 157.987 178.272 158.42 178.349 158.909H177.222C177.118 158.484 176.915 158.132 176.613 157.852C176.311 157.572 175.911 157.432 175.413 157.432C174.68 157.432 174.103 157.75 173.682 158.387C173.263 159.025 173.052 159.919 173.049 161.07H173.123C173.295 160.808 173.5 160.585 173.737 160.4C173.977 160.212 174.242 160.068 174.531 159.966C174.82 159.865 175.127 159.814 175.45 159.814C175.991 159.814 176.487 159.949 176.936 160.22C177.386 160.488 177.746 160.859 178.016 161.333C178.287 161.804 178.423 162.344 178.423 162.953C178.423 163.538 178.292 164.073 178.03 164.56C177.769 165.043 177.401 165.428 176.927 165.714C176.456 165.997 175.902 166.135 175.265 166.129ZM175.265 165.114C175.653 165.114 176.001 165.017 176.308 164.823C176.619 164.629 176.864 164.369 177.042 164.043C177.224 163.716 177.315 163.353 177.315 162.953C177.315 162.562 177.227 162.207 177.052 161.887C176.879 161.564 176.641 161.307 176.336 161.116C176.034 160.925 175.69 160.83 175.302 160.83C175.01 160.83 174.737 160.888 174.485 161.005C174.232 161.119 174.011 161.276 173.82 161.476C173.632 161.676 173.485 161.905 173.377 162.164C173.269 162.419 173.215 162.688 173.215 162.972C173.215 163.347 173.303 163.698 173.478 164.024C173.657 164.35 173.9 164.614 174.208 164.814C174.519 165.014 174.871 165.114 175.265 165.114ZM183.115 166.129C182.573 166.129 182.085 166.022 181.651 165.806C181.217 165.591 180.87 165.295 180.608 164.92C180.346 164.544 180.203 164.116 180.179 163.636H181.287C181.33 164.064 181.524 164.418 181.868 164.698C182.216 164.975 182.631 165.114 183.115 165.114C183.502 165.114 183.847 165.023 184.149 164.841C184.453 164.66 184.692 164.41 184.864 164.093C185.04 163.773 185.127 163.412 185.127 163.009C185.127 162.596 185.037 162.228 184.855 161.905C184.677 161.579 184.43 161.322 184.116 161.134C183.803 160.946 183.444 160.851 183.041 160.848C182.752 160.845 182.455 160.89 182.15 160.982C181.845 161.071 181.594 161.187 181.397 161.328L180.326 161.199L180.899 156.545H185.811V157.561H181.859L181.527 160.349H181.582C181.776 160.196 182.019 160.068 182.311 159.966C182.604 159.865 182.908 159.814 183.225 159.814C183.804 159.814 184.32 159.952 184.772 160.229C185.227 160.503 185.584 160.879 185.843 161.356C186.105 161.833 186.235 162.378 186.235 162.99C186.235 163.593 186.1 164.132 185.829 164.606C185.561 165.077 185.192 165.449 184.721 165.723C184.25 165.994 183.715 166.129 183.115 166.129ZM187.77 164.061V163.119L191.925 156.545H192.608V158.004H192.146L189.007 162.972V163.045H194.602V164.061H187.77ZM192.22 166V163.775V163.336V156.545H193.309V166H192.22ZM199.449 166.129C198.839 166.129 198.296 166.025 197.819 165.815C197.345 165.606 196.968 165.315 196.688 164.943C196.411 164.567 196.26 164.132 196.236 163.636H197.399C197.424 163.941 197.528 164.204 197.713 164.426C197.898 164.644 198.139 164.814 198.438 164.934C198.736 165.054 199.067 165.114 199.43 165.114C199.837 165.114 200.197 165.043 200.511 164.901C200.824 164.76 201.071 164.563 201.249 164.31C201.428 164.058 201.517 163.766 201.517 163.433C201.517 163.085 201.431 162.779 201.258 162.515C201.086 162.247 200.834 162.038 200.501 161.887C200.169 161.736 199.763 161.661 199.283 161.661H198.525V160.645H199.283C199.658 160.645 199.987 160.577 200.27 160.442C200.557 160.306 200.78 160.116 200.94 159.869C201.103 159.623 201.185 159.334 201.185 159.001C201.185 158.681 201.114 158.403 200.972 158.166C200.831 157.929 200.631 157.744 200.372 157.612C200.117 157.48 199.815 157.413 199.467 157.413C199.141 157.413 198.833 157.473 198.544 157.593C198.258 157.71 198.024 157.881 197.842 158.106C197.661 158.327 197.562 158.595 197.547 158.909H196.439C196.457 158.414 196.607 157.98 196.887 157.607C197.167 157.232 197.533 156.939 197.985 156.73C198.441 156.521 198.941 156.416 199.486 156.416C200.07 156.416 200.572 156.535 200.991 156.772C201.409 157.006 201.731 157.315 201.955 157.7C202.18 158.084 202.292 158.5 202.292 158.946C202.292 159.478 202.152 159.932 201.872 160.308C201.595 160.683 201.218 160.943 200.741 161.088V161.162C201.338 161.26 201.805 161.514 202.14 161.924C202.476 162.33 202.643 162.833 202.643 163.433C202.643 163.947 202.503 164.409 202.223 164.818C201.946 165.224 201.568 165.545 201.088 165.778C200.607 166.012 200.061 166.129 199.449 166.129Z" fill="#96969C"/>
<path d="M236.891 148.853V150.238H232.055V148.853H236.891ZM242.359 156.364V142.727H243.233V156.364H242.359ZM245.092 146.957C245.035 146.452 244.801 146.062 244.389 145.785C243.977 145.504 243.458 145.364 242.833 145.364C242.386 145.364 241.999 145.435 241.672 145.577C241.345 145.716 241.091 145.907 240.91 146.152C240.733 146.394 240.644 146.669 240.644 146.978C240.644 147.237 240.704 147.461 240.825 147.649C240.949 147.837 241.111 147.995 241.31 148.123C241.512 148.248 241.729 148.352 241.96 148.438C242.191 148.519 242.412 148.587 242.626 148.64L243.691 148.917C244.039 149.002 244.396 149.118 244.762 149.263C245.127 149.409 245.466 149.6 245.779 149.838C246.091 150.076 246.344 150.371 246.535 150.723C246.731 151.074 246.828 151.495 246.828 151.985C246.828 152.603 246.669 153.152 246.349 153.631C246.033 154.11 245.573 154.489 244.969 154.766C244.369 155.043 243.643 155.181 242.791 155.181C241.974 155.181 241.267 155.051 240.671 154.792C240.074 154.533 239.607 154.165 239.27 153.69C238.932 153.21 238.746 152.642 238.71 151.985H240.362C240.394 152.379 240.521 152.708 240.745 152.971C240.972 153.23 241.262 153.423 241.613 153.551C241.969 153.675 242.357 153.738 242.78 153.738C243.245 153.738 243.659 153.665 244.021 153.519C244.387 153.37 244.675 153.164 244.884 152.901C245.094 152.635 245.198 152.324 245.198 151.969C245.198 151.646 245.106 151.381 244.921 151.175C244.74 150.969 244.493 150.799 244.181 150.664C243.872 150.529 243.522 150.41 243.132 150.307L241.843 149.956C240.969 149.718 240.276 149.368 239.765 148.906C239.257 148.445 239.003 147.834 239.003 147.074C239.003 146.445 239.174 145.897 239.515 145.428C239.856 144.959 240.317 144.595 240.9 144.336C241.482 144.073 242.139 143.942 242.871 143.942C243.609 143.942 244.261 144.071 244.825 144.331C245.394 144.59 245.841 144.947 246.168 145.401C246.494 145.852 246.665 146.371 246.679 146.957H245.092ZM248.646 155V153.807L252.337 149.982C252.732 149.567 253.057 149.203 253.312 148.89C253.571 148.574 253.765 148.274 253.893 147.99C254.021 147.706 254.085 147.404 254.085 147.085C254.085 146.722 253.999 146.41 253.829 146.147C253.658 145.881 253.426 145.676 253.131 145.534C252.836 145.389 252.504 145.316 252.135 145.316C251.744 145.316 251.403 145.396 251.112 145.556C250.821 145.716 250.597 145.941 250.441 146.232C250.285 146.523 250.207 146.864 250.207 147.255H248.635C248.635 146.591 248.788 146.01 249.093 145.513C249.399 145.016 249.818 144.631 250.351 144.357C250.883 144.08 251.489 143.942 252.167 143.942C252.852 143.942 253.456 144.078 253.978 144.352C254.504 144.622 254.914 144.991 255.209 145.46C255.503 145.925 255.651 146.451 255.651 147.037C255.651 147.441 255.574 147.837 255.422 148.224C255.272 148.612 255.011 149.043 254.639 149.519C254.266 149.991 253.747 150.565 253.083 151.239L250.915 153.509V153.588H255.826V155H248.646ZM257.382 152.869V151.538L262.096 144.091H263.145V146.051H262.479L259.108 151.388V151.474H265.569V152.869H257.382ZM262.554 155V152.464L262.565 151.857V144.091H264.125V155H262.554ZM268.086 155.101C267.795 155.101 267.544 154.998 267.335 154.792C267.125 154.583 267.021 154.331 267.021 154.036C267.021 153.745 267.125 153.496 267.335 153.29C267.544 153.081 267.795 152.976 268.086 152.976C268.377 152.976 268.627 153.081 268.837 153.29C269.046 153.496 269.151 153.745 269.151 154.036C269.151 154.231 269.101 154.411 269.002 154.574C268.906 154.734 268.778 154.862 268.619 154.957C268.459 155.053 268.281 155.101 268.086 155.101ZM274.666 155.181C273.824 155.178 273.105 154.956 272.508 154.515C271.912 154.075 271.455 153.434 271.139 152.592C270.823 151.751 270.665 150.737 270.665 149.551C270.665 148.368 270.823 147.358 271.139 146.52C271.459 145.682 271.917 145.043 272.514 144.602C273.114 144.162 273.831 143.942 274.666 143.942C275.5 143.942 276.216 144.164 276.812 144.608C277.409 145.048 277.865 145.687 278.181 146.525C278.501 147.36 278.661 148.368 278.661 149.551C278.661 150.74 278.503 151.756 278.187 152.598C277.871 153.436 277.414 154.077 276.818 154.521C276.221 154.961 275.504 155.181 274.666 155.181ZM274.666 153.759C275.404 153.759 275.981 153.398 276.397 152.678C276.816 151.957 277.025 150.914 277.025 149.551C277.025 148.645 276.93 147.88 276.738 147.255C276.55 146.626 276.278 146.151 275.923 145.827C275.571 145.501 275.152 145.337 274.666 145.337C273.931 145.337 273.354 145.7 272.934 146.424C272.515 147.148 272.304 148.191 272.301 149.551C272.301 150.46 272.395 151.229 272.583 151.857C272.775 152.482 273.046 152.956 273.398 153.279C273.749 153.599 274.172 153.759 274.666 153.759ZM284.348 155.181C283.507 155.178 282.788 154.956 282.191 154.515C281.594 154.075 281.138 153.434 280.822 152.592C280.506 151.751 280.348 150.737 280.348 149.551C280.348 148.368 280.506 147.358 280.822 146.52C281.142 145.682 281.6 145.043 282.196 144.602C282.796 144.162 283.514 143.942 284.348 143.942C285.183 143.942 285.898 144.164 286.495 144.608C287.092 145.048 287.548 145.687 287.864 146.525C288.184 147.36 288.343 148.368 288.343 149.551C288.343 150.74 288.185 151.756 287.869 152.598C287.553 153.436 287.097 154.077 286.5 154.521C285.904 154.961 285.186 155.181 284.348 155.181ZM284.348 153.759C285.087 153.759 285.664 153.398 286.079 152.678C286.498 151.957 286.708 150.914 286.708 149.551C286.708 148.645 286.612 147.88 286.42 147.255C286.232 146.626 285.96 146.151 285.605 145.827C285.254 145.501 284.835 145.337 284.348 145.337C283.613 145.337 283.036 145.7 282.617 146.424C282.198 147.148 281.987 148.191 281.983 149.551C281.983 150.46 282.077 151.229 282.266 151.857C282.457 152.482 282.729 152.956 283.081 153.279C283.432 153.599 283.855 153.759 284.348 153.759Z" fill="#131314"/>
<g opacity="0.6">
<rect x="13" y="202" width="301" height="72" rx="18" fill="white"/>
<rect x="37.25" y="218.25" width="39.5" height="39.5" rx="19.75" stroke="black" stroke-opacity="0.08" stroke-width="0.5"/>
<circle cx="57" cy="238" r="20" fill="#6EC5F6"/>
<path d="M57.0716 228.5C59.7969 228.5 65.1702 234.874 65.1702 239.415C65.1702 243.88 61.5504 247.5 57.0851 247.5C52.6198 247.5 49 243.88 49 239.415C49 234.873 54.3497 228.5 57.0716 228.5Z" fill="white"/>
<path d="M94.3345 234L91.3089 223.091H93.0401L95.1655 231.539H95.2667L97.4773 223.091H99.1925L101.403 231.544H101.504L103.624 223.091H105.361L102.33 234H100.673L98.3775 225.829H98.2923L95.9964 234H94.3345ZM108.309 234.181C107.791 234.181 107.322 234.085 106.903 233.893C106.484 233.698 106.152 233.416 105.907 233.047C105.665 232.677 105.545 232.224 105.545 231.688C105.545 231.227 105.633 230.847 105.811 230.548C105.988 230.25 106.228 230.014 106.53 229.84C106.832 229.666 107.169 229.534 107.542 229.446C107.915 229.357 108.295 229.289 108.682 229.243C109.172 229.186 109.57 229.14 109.875 229.105C110.181 229.066 110.403 229.004 110.541 228.918C110.68 228.833 110.749 228.695 110.749 228.503V228.466C110.749 228 110.617 227.64 110.355 227.384C110.095 227.129 109.708 227.001 109.193 227.001C108.657 227.001 108.235 227.12 107.926 227.358C107.62 227.592 107.409 227.853 107.292 228.141L105.795 227.8C105.972 227.303 106.232 226.901 106.573 226.596C106.917 226.287 107.313 226.063 107.76 225.925C108.208 225.783 108.678 225.712 109.172 225.712C109.499 225.712 109.845 225.751 110.211 225.829C110.58 225.903 110.925 226.042 111.244 226.244C111.567 226.447 111.832 226.736 112.038 227.113C112.244 227.485 112.347 227.97 112.347 228.567V234H110.791V232.881H110.727C110.624 233.087 110.47 233.29 110.264 233.489C110.058 233.687 109.794 233.853 109.47 233.984C109.147 234.115 108.76 234.181 108.309 234.181ZM108.655 232.903C109.096 232.903 109.472 232.816 109.785 232.642C110.101 232.468 110.34 232.24 110.504 231.96C110.671 231.676 110.754 231.372 110.754 231.049V229.994C110.697 230.051 110.587 230.104 110.424 230.154C110.264 230.2 110.081 230.241 109.875 230.277C109.669 230.309 109.469 230.339 109.273 230.367C109.078 230.392 108.915 230.413 108.783 230.431C108.474 230.47 108.192 230.536 107.936 230.628C107.684 230.721 107.482 230.854 107.329 231.028C107.18 231.198 107.105 231.425 107.105 231.71C107.105 232.104 107.251 232.402 107.542 232.604C107.833 232.803 108.204 232.903 108.655 232.903ZM118.287 225.818V227.097H113.818V225.818H118.287ZM115.017 223.858H116.609V231.598C116.609 231.907 116.656 232.139 116.748 232.295C116.84 232.448 116.959 232.553 117.105 232.61C117.254 232.663 117.416 232.69 117.59 232.69C117.717 232.69 117.829 232.681 117.925 232.663C118.021 232.645 118.096 232.631 118.149 232.62L118.437 233.936C118.344 233.972 118.213 234.007 118.042 234.043C117.872 234.082 117.659 234.103 117.403 234.107C116.984 234.114 116.593 234.039 116.231 233.883C115.869 233.727 115.576 233.485 115.352 233.158C115.129 232.832 115.017 232.422 115.017 231.928V223.858ZM123.488 234.165C122.681 234.165 121.987 233.993 121.405 233.648C120.826 233.3 120.379 232.812 120.062 232.184C119.75 231.551 119.594 230.811 119.594 229.962C119.594 229.124 119.75 228.386 120.062 227.746C120.379 227.107 120.819 226.608 121.384 226.25C121.952 225.891 122.616 225.712 123.376 225.712C123.837 225.712 124.285 225.788 124.718 225.941C125.151 226.093 125.54 226.333 125.885 226.66C126.229 226.987 126.501 227.411 126.7 227.933C126.898 228.451 126.998 229.082 126.998 229.824V230.388H120.494V229.195H125.437C125.437 228.776 125.352 228.405 125.181 228.082C125.011 227.755 124.771 227.498 124.462 227.31C124.157 227.121 123.798 227.027 123.386 227.027C122.939 227.027 122.548 227.137 122.214 227.358C121.884 227.574 121.629 227.858 121.447 228.21C121.27 228.558 121.181 228.936 121.181 229.344V230.277C121.181 230.824 121.277 231.289 121.469 231.672C121.664 232.056 121.936 232.349 122.284 232.551C122.632 232.75 123.038 232.849 123.504 232.849C123.805 232.849 124.081 232.807 124.329 232.722C124.578 232.633 124.793 232.501 124.974 232.327C125.155 232.153 125.293 231.939 125.389 231.683L126.897 231.955C126.776 232.398 126.559 232.787 126.247 233.121C125.938 233.451 125.549 233.709 125.08 233.893C124.615 234.075 124.084 234.165 123.488 234.165ZM128.765 234V225.818H130.304V227.118H130.39C130.539 226.678 130.802 226.331 131.178 226.079C131.558 225.824 131.988 225.696 132.467 225.696C132.566 225.696 132.684 225.699 132.819 225.706C132.957 225.713 133.065 225.722 133.144 225.733V227.256C133.08 227.239 132.966 227.219 132.803 227.198C132.639 227.173 132.476 227.161 132.313 227.161C131.936 227.161 131.601 227.24 131.306 227.4C131.015 227.556 130.784 227.775 130.613 228.055C130.443 228.332 130.358 228.648 130.358 229.004V234H128.765ZM144.569 225.957C144.513 225.452 144.278 225.062 143.866 224.785C143.454 224.504 142.936 224.364 142.311 224.364C141.863 224.364 141.476 224.435 141.15 224.577C140.823 224.716 140.569 224.907 140.388 225.152C140.21 225.394 140.122 225.669 140.122 225.978C140.122 226.237 140.182 226.461 140.303 226.649C140.427 226.837 140.589 226.995 140.787 227.123C140.99 227.248 141.206 227.352 141.437 227.438C141.668 227.519 141.89 227.587 142.103 227.64L143.168 227.917C143.516 228.002 143.873 228.118 144.239 228.263C144.605 228.409 144.944 228.6 145.256 228.838C145.569 229.076 145.821 229.371 146.013 229.723C146.208 230.074 146.306 230.495 146.306 230.985C146.306 231.603 146.146 232.152 145.826 232.631C145.51 233.11 145.051 233.489 144.447 233.766C143.847 234.043 143.12 234.181 142.268 234.181C141.451 234.181 140.745 234.051 140.148 233.792C139.552 233.533 139.085 233.165 138.747 232.69C138.41 232.21 138.223 231.642 138.188 230.985H139.839C139.871 231.379 139.999 231.708 140.223 231.971C140.45 232.23 140.739 232.423 141.091 232.551C141.446 232.675 141.835 232.738 142.258 232.738C142.723 232.738 143.136 232.665 143.499 232.519C143.864 232.37 144.152 232.164 144.362 231.901C144.571 231.635 144.676 231.324 144.676 230.969C144.676 230.646 144.584 230.381 144.399 230.175C144.218 229.969 143.971 229.799 143.658 229.664C143.35 229.529 143 229.41 142.609 229.307L141.32 228.956C140.446 228.718 139.754 228.368 139.243 227.906C138.735 227.445 138.481 226.834 138.481 226.074C138.481 225.445 138.651 224.897 138.992 224.428C139.333 223.959 139.795 223.595 140.377 223.336C140.96 223.073 141.617 222.942 142.348 222.942C143.087 222.942 143.738 223.071 144.303 223.331C144.871 223.59 145.319 223.947 145.645 224.401C145.972 224.852 146.142 225.371 146.157 225.957H144.569ZM153.328 230.607V225.818H154.926V234H153.36V232.583H153.275C153.086 233.02 152.784 233.384 152.369 233.675C151.957 233.963 151.444 234.107 150.83 234.107C150.304 234.107 149.839 233.991 149.434 233.76C149.033 233.526 148.717 233.18 148.486 232.722C148.259 232.263 148.145 231.697 148.145 231.022V225.818H149.738V230.831C149.738 231.388 149.892 231.832 150.201 232.162C150.51 232.493 150.911 232.658 151.405 232.658C151.703 232.658 152 232.583 152.294 232.434C152.593 232.285 152.839 232.059 153.035 231.757C153.234 231.456 153.331 231.072 153.328 230.607ZM157.066 237.068V225.818H158.621V227.145H158.754C158.847 226.974 158.98 226.777 159.154 226.553C159.328 226.33 159.569 226.134 159.878 225.967C160.187 225.797 160.596 225.712 161.103 225.712C161.764 225.712 162.353 225.879 162.872 226.212C163.39 226.546 163.797 227.027 164.092 227.656C164.39 228.284 164.539 229.041 164.539 229.925C164.539 230.809 164.392 231.567 164.097 232.2C163.802 232.828 163.397 233.313 162.883 233.654C162.368 233.991 161.78 234.16 161.119 234.16C160.622 234.16 160.216 234.076 159.9 233.909C159.587 233.743 159.342 233.547 159.165 233.324C158.987 233.1 158.85 232.901 158.754 232.727H158.658V237.068H157.066ZM158.627 229.909C158.627 230.484 158.71 230.989 158.877 231.422C159.044 231.855 159.285 232.194 159.601 232.439C159.917 232.681 160.304 232.801 160.763 232.801C161.238 232.801 161.636 232.675 161.956 232.423C162.275 232.168 162.517 231.821 162.68 231.385C162.847 230.948 162.93 230.456 162.93 229.909C162.93 229.369 162.849 228.885 162.685 228.455C162.526 228.025 162.284 227.686 161.961 227.438C161.641 227.189 161.242 227.065 160.763 227.065C160.301 227.065 159.91 227.184 159.591 227.422C159.275 227.659 159.035 227.991 158.872 228.418C158.708 228.844 158.627 229.341 158.627 229.909ZM166.324 237.068V225.818H167.879V227.145H168.012C168.104 226.974 168.238 226.777 168.412 226.553C168.586 226.33 168.827 226.134 169.136 225.967C169.445 225.797 169.853 225.712 170.361 225.712C171.022 225.712 171.611 225.879 172.13 226.212C172.648 226.546 173.055 227.027 173.35 227.656C173.648 228.284 173.797 229.041 173.797 229.925C173.797 230.809 173.65 231.567 173.355 232.2C173.06 232.828 172.655 233.313 172.14 233.654C171.625 233.991 171.038 234.16 170.377 234.16C169.88 234.16 169.473 234.076 169.157 233.909C168.845 233.743 168.6 233.547 168.422 233.324C168.245 233.1 168.108 232.901 168.012 232.727H167.916V237.068H166.324ZM167.884 229.909C167.884 230.484 167.968 230.989 168.135 231.422C168.302 231.855 168.543 232.194 168.859 232.439C169.175 232.681 169.562 232.801 170.02 232.801C170.496 232.801 170.894 232.675 171.214 232.423C171.533 232.168 171.775 231.821 171.938 231.385C172.105 230.948 172.188 230.456 172.188 229.909C172.188 229.369 172.107 228.885 171.943 228.455C171.783 228.025 171.542 227.686 171.219 227.438C170.899 227.189 170.5 227.065 170.02 227.065C169.559 227.065 169.168 227.184 168.848 227.422C168.532 227.659 168.293 227.991 168.129 228.418C167.966 228.844 167.884 229.341 167.884 229.909ZM177.174 223.091V234H175.581V223.091H177.174ZM180.324 237.068C180.086 237.068 179.869 237.049 179.674 237.01C179.478 236.974 179.333 236.935 179.237 236.892L179.62 235.587C179.912 235.665 180.171 235.699 180.398 235.689C180.625 235.678 180.826 235.593 181 235.433C181.178 235.273 181.334 235.012 181.469 234.65L181.666 234.107L178.672 225.818H180.377L182.449 232.168H182.534L184.606 225.818H186.316L182.944 235.092C182.788 235.518 182.589 235.879 182.348 236.173C182.106 236.472 181.819 236.695 181.485 236.844C181.151 236.994 180.764 237.068 180.324 237.068Z" fill="#131314"/>
<path d="M92.1449 254V244.545H97.8139V245.561H93.2898V248.756H97.3892V249.771H93.2898V254H92.1449ZM101.636 254.166C101.186 254.166 100.779 254.082 100.412 253.912C100.046 253.74 99.7552 253.492 99.5398 253.169C99.3244 252.843 99.2167 252.449 99.2167 251.987C99.2167 251.581 99.2967 251.252 99.4567 250.999C99.6168 250.744 99.8306 250.544 100.098 250.399C100.366 250.254 100.662 250.147 100.985 250.076C101.311 250.002 101.639 249.944 101.968 249.901C102.399 249.845 102.748 249.804 103.016 249.776C103.287 249.745 103.484 249.694 103.607 249.624C103.733 249.553 103.796 249.43 103.796 249.254V249.217C103.796 248.762 103.672 248.408 103.422 248.156C103.176 247.903 102.802 247.777 102.3 247.777C101.78 247.777 101.373 247.891 101.077 248.119C100.782 248.346 100.574 248.589 100.454 248.848L99.4198 248.479C99.6044 248.048 99.8507 247.712 100.158 247.472C100.469 247.229 100.808 247.06 101.174 246.964C101.543 246.866 101.907 246.817 102.264 246.817C102.491 246.817 102.753 246.844 103.048 246.9C103.347 246.952 103.635 247.061 103.912 247.228C104.192 247.394 104.424 247.645 104.609 247.98C104.793 248.316 104.886 248.765 104.886 249.328V254H103.796V253.04H103.741C103.667 253.194 103.544 253.358 103.371 253.534C103.199 253.709 102.97 253.858 102.684 253.982C102.397 254.105 102.048 254.166 101.636 254.166ZM101.802 253.188C102.233 253.188 102.596 253.103 102.891 252.934C103.19 252.764 103.415 252.546 103.565 252.278C103.719 252.01 103.796 251.729 103.796 251.433V250.436C103.75 250.491 103.648 250.542 103.492 250.588C103.338 250.632 103.159 250.67 102.956 250.704C102.756 250.735 102.561 250.762 102.37 250.787C102.182 250.808 102.03 250.827 101.913 250.842C101.63 250.879 101.365 250.939 101.119 251.022C100.876 251.102 100.679 251.224 100.528 251.387C100.38 251.547 100.306 251.766 100.306 252.043C100.306 252.421 100.446 252.707 100.726 252.901C101.009 253.092 101.368 253.188 101.802 253.188ZM109.677 254.148C109.012 254.148 108.44 253.991 107.96 253.677C107.479 253.363 107.11 252.931 106.852 252.38C106.593 251.829 106.464 251.199 106.464 250.491C106.464 249.771 106.596 249.136 106.861 248.585C107.129 248.031 107.501 247.598 107.978 247.288C108.458 246.974 109.018 246.817 109.658 246.817C110.157 246.817 110.606 246.909 111.006 247.094C111.407 247.278 111.734 247.537 111.99 247.869C112.245 248.202 112.404 248.589 112.465 249.033H111.376C111.293 248.71 111.108 248.423 110.822 248.174C110.539 247.922 110.157 247.795 109.677 247.795C109.252 247.795 108.88 247.906 108.56 248.128C108.243 248.346 107.995 248.656 107.816 249.056C107.641 249.453 107.553 249.919 107.553 250.455C107.553 251.002 107.64 251.479 107.812 251.886C107.987 252.292 108.234 252.607 108.55 252.832C108.871 253.057 109.246 253.169 109.677 253.169C109.96 253.169 110.217 253.12 110.448 253.021C110.679 252.923 110.874 252.781 111.034 252.597C111.194 252.412 111.308 252.19 111.376 251.932H112.465C112.404 252.35 112.251 252.727 112.008 253.063C111.768 253.395 111.45 253.66 111.053 253.857C110.659 254.051 110.2 254.148 109.677 254.148ZM117.064 246.909V247.832H113.389V246.909H117.064ZM114.46 245.21H115.55V251.969C115.55 252.277 115.594 252.507 115.683 252.661C115.776 252.812 115.893 252.914 116.034 252.966C116.179 253.015 116.331 253.04 116.491 253.04C116.611 253.04 116.71 253.034 116.787 253.021C116.864 253.006 116.925 252.994 116.971 252.984L117.193 253.963C117.119 253.991 117.016 254.018 116.884 254.046C116.751 254.077 116.584 254.092 116.381 254.092C116.073 254.092 115.771 254.026 115.476 253.894C115.183 253.761 114.94 253.56 114.746 253.289C114.555 253.018 114.46 252.677 114.46 252.264V245.21ZM123.093 251.101V246.909H124.183V254H123.093V252.8H123.019C122.853 253.16 122.595 253.466 122.244 253.718C121.893 253.968 121.45 254.092 120.914 254.092C120.471 254.092 120.077 253.995 119.733 253.801C119.388 253.605 119.117 253.309 118.92 252.915C118.723 252.518 118.625 252.018 118.625 251.415V246.909H119.714V251.341C119.714 251.858 119.859 252.27 120.148 252.578C120.44 252.886 120.813 253.04 121.265 253.04C121.536 253.04 121.812 252.971 122.092 252.832C122.375 252.694 122.612 252.481 122.803 252.195C122.996 251.909 123.093 251.544 123.093 251.101ZM126.1 254V246.909H127.153V247.98H127.227C127.356 247.629 127.59 247.345 127.928 247.126C128.267 246.908 128.649 246.798 129.073 246.798C129.153 246.798 129.253 246.8 129.373 246.803C129.493 246.806 129.584 246.811 129.646 246.817V247.925C129.609 247.915 129.524 247.902 129.392 247.883C129.263 247.862 129.126 247.851 128.981 247.851C128.636 247.851 128.329 247.923 128.058 248.068C127.79 248.209 127.578 248.406 127.421 248.659C127.267 248.908 127.19 249.193 127.19 249.513V254H126.1ZM133.616 254.148C132.933 254.148 132.344 253.997 131.848 253.695C131.356 253.391 130.976 252.966 130.708 252.421C130.443 251.873 130.311 251.236 130.311 250.51C130.311 249.784 130.443 249.143 130.708 248.589C130.976 248.032 131.348 247.598 131.825 247.288C132.305 246.974 132.865 246.817 133.506 246.817C133.875 246.817 134.24 246.878 134.6 247.001C134.96 247.125 135.288 247.325 135.583 247.602C135.879 247.875 136.114 248.239 136.289 248.691C136.465 249.143 136.553 249.701 136.553 250.362V250.824H131.087V249.882H135.445C135.445 249.482 135.365 249.125 135.204 248.811C135.048 248.497 134.823 248.249 134.53 248.068C134.241 247.886 133.9 247.795 133.506 247.795C133.072 247.795 132.696 247.903 132.379 248.119C132.065 248.331 131.824 248.608 131.654 248.95C131.485 249.291 131.401 249.657 131.401 250.048V250.676C131.401 251.212 131.493 251.666 131.678 252.038C131.865 252.407 132.125 252.689 132.458 252.883C132.79 253.074 133.176 253.169 133.616 253.169C133.903 253.169 134.161 253.129 134.392 253.049C134.626 252.966 134.827 252.843 134.997 252.68C135.166 252.513 135.297 252.307 135.389 252.061L136.442 252.357C136.331 252.714 136.145 253.027 135.883 253.298C135.622 253.566 135.298 253.775 134.914 253.926C134.529 254.074 134.097 254.148 133.616 254.148ZM149.355 244.545V254H148.247L143.095 246.577H143.003V254H141.858V244.545H142.966L148.136 251.987H148.229V244.545H149.355ZM154.301 254.148C153.661 254.148 153.099 253.995 152.616 253.691C152.136 253.386 151.76 252.96 151.489 252.412C151.222 251.864 151.088 251.224 151.088 250.491C151.088 249.753 151.222 249.108 151.489 248.557C151.76 248.006 152.136 247.578 152.616 247.274C153.099 246.969 153.661 246.817 154.301 246.817C154.941 246.817 155.501 246.969 155.981 247.274C156.464 247.578 156.84 248.006 157.108 248.557C157.378 249.108 157.514 249.753 157.514 250.491C157.514 251.224 157.378 251.864 157.108 252.412C156.84 252.96 156.464 253.386 155.981 253.691C155.501 253.995 154.941 254.148 154.301 254.148ZM154.301 253.169C154.787 253.169 155.187 253.044 155.501 252.795C155.815 252.546 156.047 252.218 156.198 251.812C156.349 251.406 156.424 250.965 156.424 250.491C156.424 250.018 156.349 249.576 156.198 249.167C156.047 248.757 155.815 248.426 155.501 248.174C155.187 247.922 154.787 247.795 154.301 247.795C153.815 247.795 153.414 247.922 153.101 248.174C152.787 248.426 152.554 248.757 152.403 249.167C152.253 249.576 152.177 250.018 152.177 250.491C152.177 250.965 152.253 251.406 152.403 251.812C152.554 252.218 152.787 252.546 153.101 252.795C153.414 253.044 153.815 253.169 154.301 253.169ZM159.893 254.074C159.665 254.074 159.47 253.992 159.307 253.829C159.144 253.666 159.062 253.471 159.062 253.243C159.062 253.015 159.144 252.82 159.307 252.657C159.47 252.493 159.665 252.412 159.893 252.412C160.121 252.412 160.316 252.493 160.479 252.657C160.642 252.82 160.724 253.015 160.724 253.243C160.724 253.394 160.686 253.532 160.609 253.658C160.535 253.785 160.435 253.886 160.309 253.963C160.185 254.037 160.047 254.074 159.893 254.074ZM159.893 248.811C159.665 248.811 159.47 248.73 159.307 248.566C159.144 248.403 159.062 248.208 159.062 247.98C159.062 247.752 159.144 247.557 159.307 247.394C159.47 247.231 159.665 247.149 159.893 247.149C160.121 247.149 160.316 247.231 160.479 247.394C160.642 247.557 160.724 247.752 160.724 247.98C160.724 248.131 160.686 248.269 160.609 248.396C160.535 248.522 160.435 248.623 160.309 248.7C160.185 248.774 160.047 248.811 159.893 248.811ZM169.485 244.545V254H168.34V245.746H168.284L165.976 247.278V246.115L168.34 244.545H169.485ZM175.154 254.129C174.52 254.129 173.96 254.017 173.474 253.792C172.991 253.565 172.614 253.252 172.343 252.855C172.072 252.455 171.938 252 171.941 251.489C171.938 251.089 172.017 250.719 172.177 250.381C172.337 250.039 172.555 249.754 172.832 249.527C173.112 249.296 173.425 249.15 173.769 249.088V249.033C173.317 248.916 172.957 248.662 172.689 248.271C172.421 247.877 172.289 247.429 172.292 246.928C172.289 246.447 172.411 246.018 172.657 245.64C172.903 245.261 173.241 244.962 173.672 244.744C174.106 244.525 174.6 244.416 175.154 244.416C175.702 244.416 176.191 244.525 176.622 244.744C177.053 244.962 177.392 245.261 177.638 245.64C177.887 246.018 178.013 246.447 178.016 246.928C178.013 247.429 177.876 247.877 177.606 248.271C177.338 248.662 176.982 248.916 176.539 249.033V249.088C176.881 249.15 177.189 249.296 177.462 249.527C177.736 249.754 177.955 250.039 178.118 250.381C178.281 250.719 178.364 251.089 178.367 251.489C178.364 252 178.226 252.455 177.952 252.855C177.681 253.252 177.304 253.565 176.821 253.792C176.341 254.017 175.785 254.129 175.154 254.129ZM175.154 253.114C175.582 253.114 175.951 253.044 176.262 252.906C176.573 252.767 176.813 252.572 176.982 252.32C177.152 252.067 177.238 251.772 177.241 251.433C177.238 251.076 177.145 250.761 176.964 250.487C176.782 250.213 176.535 249.998 176.221 249.841C175.91 249.684 175.554 249.605 175.154 249.605C174.751 249.605 174.391 249.684 174.074 249.841C173.76 249.998 173.512 250.213 173.331 250.487C173.152 250.761 173.065 251.076 173.068 251.433C173.065 251.772 173.146 252.067 173.312 252.32C173.482 252.572 173.723 252.767 174.037 252.906C174.351 253.044 174.723 253.114 175.154 253.114ZM175.154 248.626C175.493 248.626 175.793 248.559 176.054 248.423C176.319 248.288 176.527 248.099 176.678 247.855C176.828 247.612 176.905 247.328 176.908 247.001C176.905 246.681 176.83 246.403 176.682 246.166C176.535 245.926 176.33 245.741 176.068 245.612C175.807 245.48 175.502 245.413 175.154 245.413C174.8 245.413 174.491 245.48 174.226 245.612C173.962 245.741 173.757 245.926 173.612 246.166C173.468 246.403 173.397 246.681 173.4 247.001C173.397 247.328 173.469 247.612 173.617 247.855C173.768 248.099 173.975 248.288 174.24 248.423C174.505 248.559 174.81 248.626 175.154 248.626ZM183.013 254.129C182.471 254.129 181.984 254.022 181.55 253.806C181.116 253.591 180.768 253.295 180.506 252.92C180.245 252.544 180.102 252.116 180.077 251.636H181.185C181.228 252.064 181.422 252.418 181.767 252.698C182.114 252.975 182.53 253.114 183.013 253.114C183.401 253.114 183.746 253.023 184.047 252.841C184.352 252.66 184.59 252.41 184.763 252.093C184.938 251.773 185.026 251.412 185.026 251.009C185.026 250.596 184.935 250.228 184.754 249.905C184.575 249.579 184.329 249.322 184.015 249.134C183.701 248.946 183.342 248.851 182.939 248.848C182.65 248.845 182.353 248.89 182.048 248.982C181.744 249.071 181.493 249.187 181.296 249.328L180.225 249.199L180.797 244.545H185.709V245.561H181.757L181.425 248.349H181.48C181.674 248.196 181.917 248.068 182.21 247.966C182.502 247.865 182.807 247.814 183.124 247.814C183.703 247.814 184.218 247.952 184.67 248.229C185.126 248.503 185.483 248.879 185.741 249.356C186.003 249.833 186.134 250.378 186.134 250.99C186.134 251.593 185.998 252.132 185.728 252.606C185.46 253.077 185.091 253.449 184.62 253.723C184.149 253.994 183.613 254.129 183.013 254.129ZM188.185 254L192.414 245.635V245.561H187.539V244.545H193.596V245.616L189.385 254H188.185ZM198.076 254.129C197.442 254.129 196.882 254.017 196.396 253.792C195.913 253.565 195.536 253.252 195.265 252.855C194.994 252.455 194.86 252 194.863 251.489C194.86 251.089 194.939 250.719 195.099 250.381C195.259 250.039 195.477 249.754 195.754 249.527C196.034 249.296 196.347 249.15 196.692 249.088V249.033C196.239 248.916 195.879 248.662 195.611 248.271C195.344 247.877 195.211 247.429 195.214 246.928C195.211 246.447 195.333 246.018 195.579 245.64C195.825 245.261 196.164 244.962 196.595 244.744C197.029 244.525 197.523 244.416 198.076 244.416C198.624 244.416 199.114 244.525 199.545 244.744C199.975 244.962 200.314 245.261 200.56 245.64C200.809 246.018 200.936 246.447 200.939 246.928C200.936 247.429 200.799 247.877 200.528 248.271C200.26 248.662 199.905 248.916 199.461 249.033V249.088C199.803 249.15 200.111 249.296 200.385 249.527C200.659 249.754 200.877 250.039 201.04 250.381C201.203 250.719 201.286 251.089 201.29 251.489C201.286 252 201.148 252.455 200.874 252.855C200.603 253.252 200.226 253.565 199.743 253.792C199.263 254.017 198.707 254.129 198.076 254.129ZM198.076 253.114C198.504 253.114 198.874 253.044 199.184 252.906C199.495 252.767 199.735 252.572 199.905 252.32C200.074 252.067 200.16 251.772 200.163 251.433C200.16 251.076 200.068 250.761 199.886 250.487C199.705 250.213 199.457 249.998 199.143 249.841C198.832 249.684 198.477 249.605 198.076 249.605C197.673 249.605 197.313 249.684 196.996 249.841C196.682 249.998 196.435 250.213 196.253 250.487C196.074 250.761 195.987 251.076 195.99 251.433C195.987 251.772 196.068 252.067 196.235 252.32C196.404 252.572 196.645 252.767 196.959 252.906C197.273 253.044 197.646 253.114 198.076 253.114ZM198.076 248.626C198.415 248.626 198.715 248.559 198.977 248.423C199.241 248.288 199.449 248.099 199.6 247.855C199.751 247.612 199.828 247.328 199.831 247.001C199.828 246.681 199.752 246.403 199.605 246.166C199.457 245.926 199.252 245.741 198.991 245.612C198.729 245.48 198.424 245.413 198.076 245.413C197.723 245.413 197.413 245.48 197.149 245.612C196.884 245.741 196.679 245.926 196.535 246.166C196.39 246.403 196.319 246.681 196.322 247.001C196.319 247.328 196.391 247.612 196.539 247.855C196.69 248.099 196.898 248.288 197.162 248.423C197.427 248.559 197.732 248.626 198.076 248.626Z" fill="#96969C"/>
<path d="M238.891 236.853V238.238H234.055V236.853H238.891ZM244.359 244.364V230.727H245.233V244.364H244.359ZM247.092 234.957C247.035 234.452 246.801 234.062 246.389 233.785C245.977 233.504 245.458 233.364 244.833 233.364C244.386 233.364 243.999 233.435 243.672 233.577C243.345 233.716 243.091 233.907 242.91 234.152C242.733 234.394 242.644 234.669 242.644 234.978C242.644 235.237 242.704 235.461 242.825 235.649C242.949 235.837 243.111 235.995 243.31 236.123C243.512 236.248 243.729 236.352 243.96 236.438C244.191 236.519 244.412 236.587 244.626 236.64L245.691 236.917C246.039 237.002 246.396 237.118 246.762 237.263C247.127 237.409 247.466 237.6 247.779 237.838C248.091 238.076 248.344 238.371 248.535 238.723C248.731 239.074 248.828 239.495 248.828 239.985C248.828 240.603 248.669 241.152 248.349 241.631C248.033 242.11 247.573 242.489 246.969 242.766C246.369 243.043 245.643 243.181 244.791 243.181C243.974 243.181 243.267 243.051 242.671 242.792C242.074 242.533 241.607 242.165 241.27 241.69C240.932 241.21 240.746 240.642 240.71 239.985H242.362C242.394 240.379 242.521 240.708 242.745 240.971C242.972 241.23 243.262 241.423 243.613 241.551C243.969 241.675 244.357 241.738 244.78 241.738C245.245 241.738 245.659 241.665 246.021 241.519C246.387 241.37 246.675 241.164 246.884 240.901C247.094 240.635 247.198 240.324 247.198 239.969C247.198 239.646 247.106 239.381 246.921 239.175C246.74 238.969 246.493 238.799 246.181 238.664C245.872 238.529 245.522 238.41 245.132 238.307L243.843 237.956C242.969 237.718 242.276 237.368 241.765 236.906C241.257 236.445 241.003 235.834 241.003 235.074C241.003 234.445 241.174 233.897 241.515 233.428C241.856 232.959 242.317 232.595 242.9 232.336C243.482 232.073 244.139 231.942 244.871 231.942C245.609 231.942 246.261 232.071 246.825 232.331C247.394 232.59 247.841 232.947 248.168 233.401C248.494 233.852 248.665 234.371 248.679 234.957H247.092ZM254.785 232.091V243H253.134V233.742H253.07L250.46 235.447V233.87L253.182 232.091H254.785ZM261.422 243.149C260.658 243.149 259.984 243.018 259.398 242.755C258.815 242.492 258.359 242.13 258.029 241.668C257.699 241.207 257.535 240.681 257.539 240.092C257.535 239.63 257.629 239.206 257.821 238.819C258.016 238.428 258.281 238.103 258.615 237.844C258.949 237.581 259.321 237.414 259.733 237.343V237.279C259.19 237.148 258.755 236.857 258.428 236.406C258.102 235.955 257.94 235.436 257.944 234.85C257.94 234.293 258.087 233.795 258.386 233.359C258.688 232.918 259.101 232.572 259.627 232.32C260.152 232.068 260.751 231.942 261.422 231.942C262.086 231.942 262.679 232.07 263.201 232.325C263.727 232.577 264.14 232.924 264.442 233.364C264.744 233.801 264.897 234.296 264.9 234.85C264.897 235.436 264.73 235.955 264.4 236.406C264.069 236.857 263.64 237.148 263.111 237.279V237.343C263.519 237.414 263.886 237.581 264.213 237.844C264.543 238.103 264.806 238.428 265.002 238.819C265.2 239.206 265.302 239.63 265.305 240.092C265.302 240.681 265.135 241.207 264.804 241.668C264.474 242.13 264.016 242.492 263.43 242.755C262.848 243.018 262.178 243.149 261.422 243.149ZM261.422 241.801C261.873 241.801 262.264 241.727 262.594 241.578C262.924 241.425 263.18 241.214 263.361 240.944C263.542 240.67 263.634 240.351 263.638 239.985C263.634 239.605 263.535 239.27 263.34 238.978C263.148 238.687 262.887 238.458 262.557 238.291C262.226 238.124 261.848 238.041 261.422 238.041C260.992 238.041 260.611 238.124 260.277 238.291C259.943 238.458 259.68 238.687 259.488 238.978C259.297 239.27 259.203 239.605 259.206 239.985C259.203 240.351 259.29 240.67 259.467 240.944C259.648 241.214 259.906 241.425 260.239 241.578C260.573 241.727 260.967 241.801 261.422 241.801ZM261.422 236.725C261.784 236.725 262.106 236.652 262.386 236.507C262.667 236.361 262.887 236.159 263.047 235.9C263.21 235.64 263.293 235.337 263.297 234.989C263.293 234.648 263.212 234.349 263.052 234.094C262.896 233.838 262.677 233.641 262.397 233.502C262.116 233.36 261.791 233.289 261.422 233.289C261.046 233.289 260.715 233.36 260.431 233.502C260.151 233.641 259.932 233.838 259.776 234.094C259.62 234.349 259.543 234.648 259.547 234.989C259.543 235.337 259.622 235.64 259.781 235.9C259.941 236.159 260.161 236.361 260.442 236.507C260.726 236.652 261.053 236.725 261.422 236.725ZM267.962 243.101C267.671 243.101 267.42 242.998 267.211 242.792C267.001 242.583 266.896 242.331 266.896 242.036C266.896 241.745 267.001 241.496 267.211 241.29C267.42 241.081 267.671 240.976 267.962 240.976C268.253 240.976 268.503 241.081 268.713 241.29C268.922 241.496 269.027 241.745 269.027 242.036C269.027 242.231 268.977 242.411 268.878 242.574C268.782 242.734 268.654 242.862 268.494 242.957C268.335 243.053 268.157 243.101 267.962 243.101ZM274.542 243.181C273.7 243.178 272.981 242.956 272.384 242.515C271.788 242.075 271.331 241.434 271.015 240.592C270.699 239.751 270.541 238.737 270.541 237.551C270.541 236.368 270.699 235.358 271.015 234.52C271.335 233.682 271.793 233.043 272.39 232.602C272.99 232.162 273.707 231.942 274.542 231.942C275.376 231.942 276.092 232.164 276.688 232.608C277.285 233.048 277.741 233.687 278.057 234.525C278.377 235.36 278.537 236.368 278.537 237.551C278.537 238.74 278.379 239.756 278.063 240.598C277.747 241.436 277.29 242.077 276.694 242.521C276.097 242.961 275.38 243.181 274.542 243.181ZM274.542 241.759C275.28 241.759 275.857 241.398 276.273 240.678C276.692 239.957 276.901 238.914 276.901 237.551C276.901 236.645 276.805 235.88 276.614 235.255C276.426 234.626 276.154 234.151 275.799 233.827C275.447 233.501 275.028 233.337 274.542 233.337C273.807 233.337 273.229 233.7 272.81 234.424C272.391 235.148 272.18 236.191 272.177 237.551C272.177 238.46 272.271 239.229 272.459 239.857C272.651 240.482 272.922 240.956 273.274 241.279C273.625 241.599 274.048 241.759 274.542 241.759ZM284.224 243.181C283.383 243.178 282.664 242.956 282.067 242.515C281.47 242.075 281.014 241.434 280.698 240.592C280.382 239.751 280.224 238.737 280.224 237.551C280.224 236.368 280.382 235.358 280.698 234.52C281.018 233.682 281.476 233.043 282.072 232.602C282.672 232.162 283.39 231.942 284.224 231.942C285.059 231.942 285.774 232.164 286.371 232.608C286.968 233.048 287.424 233.687 287.74 234.525C288.059 235.36 288.219 236.368 288.219 237.551C288.219 238.74 288.061 239.756 287.745 240.598C287.429 241.436 286.973 242.077 286.376 242.521C285.78 242.961 285.062 243.181 284.224 243.181ZM284.224 241.759C284.963 241.759 285.54 241.398 285.955 240.678C286.374 239.957 286.584 238.914 286.584 237.551C286.584 236.645 286.488 235.88 286.296 235.255C286.108 234.626 285.836 234.151 285.481 233.827C285.13 233.501 284.711 233.337 284.224 233.337C283.489 233.337 282.912 233.7 282.493 234.424C282.074 235.148 281.863 236.191 281.859 237.551C281.859 238.46 281.953 239.229 282.142 239.857C282.333 240.482 282.605 240.956 282.956 241.279C283.308 241.599 283.731 241.759 284.224 241.759Z" fill="#131314"/>
</g>
<defs>
<filter id="filter0_d_901_7290" x="5" y="22" width="317" height="88" filterUnits="userSpaceOnUse" color-interpolation-filters="sRGB">
<feFlood flood-opacity="0" result="BackgroundImageFix"/>
<feColorMatrix in="SourceAlpha" type="matrix" values="0 0 0 0 0 0 0 0 0 0 0 0 0 0 0 0 0 0 127 0" result="hardAlpha"/>
<feOffset dy="4"/>
<feGaussianBlur stdDeviation="4"/>
<feComposite in2="hardAlpha" operator="out"/>
<feColorMatrix type="matrix" values="0 0 0 0 0.588235 0 0 0 0 0.588235 0 0 0 0 0.611765 0 0 0 0.08 0"/>
<feBlend mode="normal" in2="BackgroundImageFix" result="effect1_dropShadow_901_7290"/>
<feBlend mode="normal" in="SourceGraphic" in2="effect1_dropShadow_901_7290" result="shape"/>
</filter>
</defs>
</svg>
