<svg width="58" height="58" viewBox="0 0 58 58" fill="none" xmlns="http://www.w3.org/2000/svg">
<rect width="58" height="58" rx="9.66667" fill="#6EC5F6"/>
<path d="M19.3333 29C19.3333 25.422 21.2773 22.298 24.1667 20.6266M38.6667 28.6821C38.6667 32.2601 36.7227 35.3841 33.8333 37.0556M43.5 29C43.5 37.0081 37.0081 43.5 29 43.5C20.9919 43.5 14.5 37.0081 14.5 29C14.5 20.9919 20.9919 14.5 29 14.5C37.0081 14.5 43.5 20.9919 43.5 29ZM32.2222 29C32.2222 30.7796 30.7796 32.2222 29 32.2222C27.2204 32.2222 25.7778 30.7796 25.7778 29C25.7778 27.2204 27.2204 25.7778 29 25.7778C30.7796 25.7778 32.2222 27.2204 32.2222 29Z" stroke="white" stroke-width="2.175" stroke-linecap="round" stroke-linejoin="round"/>
</svg>
