<svg width="270" height="222" viewBox="0 0 270 222" fill="none" xmlns="http://www.w3.org/2000/svg">
<rect width="270" height="263" rx="18" fill="white"/>
<path d="M31.6662 164.818H33.2074V171.515C33.2074 172.228 33.04 172.859 32.7053 173.409C32.3705 173.956 31.8999 174.387 31.2933 174.702C30.6868 175.013 29.9759 175.169 29.1605 175.169C28.3485 175.169 27.6392 175.013 27.0327 174.702C26.4261 174.387 25.9555 173.956 25.6207 173.409C25.286 172.859 25.1186 172.228 25.1186 171.515V164.818H26.6548V171.391C26.6548 171.851 26.7559 172.261 26.9581 172.619C27.1636 172.977 27.4536 173.258 27.8281 173.464C28.2027 173.666 28.6468 173.767 29.1605 173.767C29.6776 173.767 30.1233 173.666 30.4979 173.464C30.8757 173.258 31.1641 172.977 31.3629 172.619C31.5651 172.261 31.6662 171.851 31.6662 171.391V164.818ZM35.3216 177.864V167.364H36.7733V168.602H36.8975C36.9837 168.442 37.108 168.259 37.2704 168.05C37.4328 167.841 37.6582 167.659 37.9466 167.503C38.2349 167.344 38.6161 167.264 39.09 167.264C39.7065 167.264 40.2567 167.42 40.7406 167.732C41.2245 168.043 41.604 168.492 41.8791 169.079C42.1575 169.665 42.2967 170.371 42.2967 171.197C42.2967 172.022 42.1592 172.73 41.8841 173.32C41.609 173.906 41.2311 174.359 40.7505 174.677C40.2699 174.992 39.7214 175.149 39.1049 175.149C38.6409 175.149 38.2614 175.071 37.9664 174.915C37.6748 174.76 37.4461 174.577 37.2804 174.369C37.1146 174.16 36.987 173.974 36.8975 173.812H36.8081V177.864H35.3216ZM36.7782 171.182C36.7782 171.719 36.8561 172.189 37.0119 172.594C37.1677 172.998 37.3931 173.315 37.688 173.543C37.983 173.769 38.3443 173.881 38.7718 173.881C39.216 173.881 39.5872 173.764 39.8855 173.528C40.1838 173.29 40.4092 172.967 40.5616 172.559C40.7174 172.151 40.7953 171.692 40.7953 171.182C40.7953 170.678 40.719 170.226 40.5666 169.825C40.4174 169.424 40.1921 169.107 39.8904 168.875C39.5922 168.643 39.2193 168.527 38.7718 168.527C38.341 168.527 37.9764 168.638 37.6781 168.86C37.3831 169.082 37.1594 169.392 37.0069 169.79C36.8545 170.187 36.7782 170.652 36.7782 171.182ZM45.4487 164.818V175H43.9622V164.818H45.4487ZM50.6651 175.154C49.9492 175.154 49.3245 174.99 48.7908 174.662C48.2572 174.334 47.8429 173.875 47.5479 173.285C47.253 172.695 47.1055 172.005 47.1055 171.217C47.1055 170.424 47.253 169.732 47.5479 169.138C47.8429 168.545 48.2572 168.085 48.7908 167.756C49.3245 167.428 49.9492 167.264 50.6651 167.264C51.381 167.264 52.0058 167.428 52.5394 167.756C53.073 168.085 53.4873 168.545 53.7823 169.138C54.0773 169.732 54.2248 170.424 54.2248 171.217C54.2248 172.005 54.0773 172.695 53.7823 173.285C53.4873 173.875 53.073 174.334 52.5394 174.662C52.0058 174.99 51.381 175.154 50.6651 175.154ZM50.6701 173.906C51.1341 173.906 51.5186 173.784 51.8235 173.538C52.1284 173.293 52.3538 172.967 52.4996 172.559C52.6488 172.151 52.7234 171.702 52.7234 171.212C52.7234 170.724 52.6488 170.277 52.4996 169.869C52.3538 169.458 52.1284 169.129 51.8235 168.88C51.5186 168.631 51.1341 168.507 50.6701 168.507C50.2028 168.507 49.815 168.631 49.5067 168.88C49.2018 169.129 48.9748 169.458 48.8256 169.869C48.6798 170.277 48.6069 170.724 48.6069 171.212C48.6069 171.702 48.6798 172.151 48.8256 172.559C48.9748 172.967 49.2018 173.293 49.5067 173.538C49.815 173.784 50.2028 173.906 50.6701 173.906ZM58.1064 175.169C57.6225 175.169 57.185 175.08 56.7939 174.901C56.4028 174.718 56.0929 174.455 55.8642 174.11C55.6388 173.765 55.5261 173.343 55.5261 172.842C55.5261 172.411 55.609 172.057 55.7747 171.778C55.9404 171.5 56.1641 171.28 56.4458 171.117C56.7276 170.955 57.0424 170.832 57.3904 170.749C57.7385 170.666 58.0931 170.603 58.4544 170.56C58.9118 170.507 59.283 170.464 59.568 170.431C59.853 170.395 60.0602 170.337 60.1895 170.257C60.3187 170.178 60.3833 170.048 60.3833 169.869V169.835C60.3833 169.4 60.2607 169.064 60.0154 168.825C59.7735 168.587 59.4122 168.467 58.9316 168.467C58.4312 168.467 58.0368 168.578 57.7484 168.8C57.4634 169.019 57.2662 169.263 57.1568 169.531L55.7598 169.213C55.9255 168.749 56.1674 168.375 56.4856 168.089C56.8071 167.801 57.1767 167.592 57.5943 167.463C58.0119 167.33 58.4511 167.264 58.9118 167.264C59.2167 167.264 59.5398 167.301 59.8812 167.374C60.2259 167.443 60.5474 167.572 60.8457 167.761C61.1473 167.95 61.3942 168.22 61.5865 168.572C61.7787 168.92 61.8748 169.372 61.8748 169.929V175H60.4231V173.956H60.3635C60.2673 174.148 60.1232 174.337 59.9309 174.523C59.7387 174.708 59.4918 174.862 59.1902 174.985C58.8886 175.108 58.5273 175.169 58.1064 175.169ZM58.4295 173.976C58.8405 173.976 59.1918 173.895 59.4835 173.732C59.7785 173.57 60.0022 173.358 60.1547 173.096C60.3104 172.831 60.3883 172.547 60.3883 172.246V171.261C60.3353 171.314 60.2325 171.364 60.0801 171.411C59.9309 171.454 59.7602 171.492 59.568 171.525C59.3758 171.555 59.1885 171.583 59.0062 171.609C58.8239 171.633 58.6715 171.652 58.5488 171.669C58.2605 171.705 57.997 171.767 57.7583 171.853C57.523 171.939 57.3341 172.063 57.1916 172.226C57.0524 172.385 56.9828 172.597 56.9828 172.862C56.9828 173.23 57.1187 173.509 57.3904 173.697C57.6622 173.883 58.0086 173.976 58.4295 173.976ZM66.7134 175.149C66.0969 175.149 65.5468 174.992 65.0629 174.677C64.5823 174.359 64.2044 173.906 63.9293 173.32C63.6576 172.73 63.5217 172.022 63.5217 171.197C63.5217 170.371 63.6592 169.665 63.9343 169.079C64.2127 168.492 64.5939 168.043 65.0778 167.732C65.5617 167.42 66.1102 167.264 66.7234 167.264C67.1973 167.264 67.5785 167.344 67.8668 167.503C68.1585 167.659 68.3839 167.841 68.543 168.05C68.7054 168.259 68.8313 168.442 68.9208 168.602H69.0103V164.818H70.4968V175H69.0451V173.812H68.9208C68.8313 173.974 68.7021 174.16 68.533 174.369C68.3673 174.577 68.1386 174.76 67.8469 174.915C67.5553 175.071 67.1774 175.149 66.7134 175.149ZM67.0415 173.881C67.4691 173.881 67.8304 173.769 68.1254 173.543C68.4237 173.315 68.649 172.998 68.8015 172.594C68.9573 172.189 69.0352 171.719 69.0352 171.182C69.0352 170.652 68.9589 170.187 68.8065 169.79C68.654 169.392 68.4303 169.082 68.1353 168.86C67.8403 168.638 67.4757 168.527 67.0415 168.527C66.5941 168.527 66.2212 168.643 65.9229 168.875C65.6246 169.107 65.3993 169.424 65.2468 169.825C65.0977 170.226 65.0231 170.678 65.0231 171.182C65.0231 171.692 65.0993 172.151 65.2518 172.559C65.4042 172.967 65.6296 173.29 65.9279 173.528C66.2295 173.764 66.6007 173.881 67.0415 173.881ZM76.4428 175V164.818H80.0721C80.8609 164.818 81.5155 164.954 82.0359 165.226C82.5595 165.498 82.9506 165.874 83.2092 166.354C83.4677 166.832 83.5969 167.384 83.5969 168.01C83.5969 168.633 83.466 169.182 83.2042 169.656C82.9457 170.126 82.5546 170.492 82.0309 170.754C81.5105 171.016 80.8559 171.147 80.0671 171.147H77.3178V169.825H79.9279C80.4251 169.825 80.8294 169.753 81.141 169.611C81.4558 169.468 81.6862 169.261 81.832 168.989C81.9779 168.718 82.0508 168.391 82.0508 168.01C82.0508 167.625 81.9762 167.292 81.8271 167.011C81.6812 166.729 81.4509 166.513 81.136 166.364C80.8245 166.212 80.4151 166.136 79.908 166.136H77.979V175H76.4428ZM81.4691 170.406L83.9847 175H82.2347L79.7688 170.406H81.4691ZM88.5424 175.154C87.7901 175.154 87.1421 174.993 86.5985 174.672C86.0583 174.347 85.6407 173.891 85.3457 173.305C85.054 172.715 84.9082 172.024 84.9082 171.232C84.9082 170.449 85.054 169.76 85.3457 169.163C85.6407 168.567 86.0517 168.101 86.5787 167.766C87.109 167.432 87.7288 167.264 88.438 167.264C88.8689 167.264 89.2865 167.335 89.6909 167.478C90.0952 167.621 90.4582 167.844 90.7797 168.149C91.1011 168.454 91.3547 168.85 91.5403 169.337C91.7259 169.821 91.8187 170.41 91.8187 171.102V171.629H85.7484V170.516H90.362C90.362 170.125 90.2825 169.778 90.1234 169.477C89.9643 169.172 89.7406 168.931 89.4522 168.756C89.1672 168.58 88.8324 168.492 88.448 168.492C88.0304 168.492 87.6658 168.595 87.3542 168.8C87.046 169.003 86.8074 169.268 86.6383 169.596C86.4726 169.921 86.3897 170.274 86.3897 170.655V171.525C86.3897 172.035 86.4792 172.469 86.6582 172.827C86.8405 173.185 87.094 173.459 87.4189 173.648C87.7437 173.833 88.1232 173.926 88.5574 173.926C88.8391 173.926 89.0959 173.886 89.3279 173.807C89.56 173.724 89.7605 173.601 89.9295 173.439C90.0985 173.277 90.2278 173.076 90.3173 172.837L91.7243 173.091C91.6116 173.505 91.4094 173.868 91.1177 174.18C90.8294 174.488 90.4664 174.728 90.0289 174.901C89.5948 175.07 89.0993 175.154 88.5424 175.154ZM96.6847 175.154C95.9455 175.154 95.3092 174.987 94.7756 174.652C94.2453 174.314 93.8376 173.848 93.5526 173.255C93.2675 172.662 93.125 171.982 93.125 171.217C93.125 170.441 93.2708 169.757 93.5625 169.163C93.8542 168.567 94.2652 168.101 94.7955 167.766C95.3258 167.432 95.9505 167.264 96.6697 167.264C97.2498 167.264 97.7668 167.372 98.2209 167.587C98.675 167.799 99.0412 168.098 99.3196 168.482C99.6013 168.867 99.7687 169.316 99.8217 169.83H98.375C98.2955 169.472 98.1132 169.163 97.8281 168.905C97.5464 168.646 97.1686 168.517 96.6946 168.517C96.2803 168.517 95.9174 168.626 95.6058 168.845C95.2976 169.061 95.0573 169.369 94.8849 169.77C94.7126 170.168 94.6264 170.638 94.6264 171.182C94.6264 171.739 94.7109 172.219 94.88 172.624C95.049 173.028 95.2876 173.341 95.5959 173.563C95.9074 173.785 96.2737 173.896 96.6946 173.896C96.9763 173.896 97.2315 173.845 97.4602 173.742C97.6922 173.636 97.8861 173.485 98.0419 173.29C98.201 173.094 98.312 172.859 98.375 172.584H99.8217C99.7687 173.078 99.608 173.518 99.3395 173.906C99.071 174.294 98.7114 174.599 98.2607 174.821C97.8132 175.043 97.2879 175.154 96.6847 175.154ZM104.703 175.154C103.95 175.154 103.302 174.993 102.759 174.672C102.218 174.347 101.801 173.891 101.506 173.305C101.214 172.715 101.068 172.024 101.068 171.232C101.068 170.449 101.214 169.76 101.506 169.163C101.801 168.567 102.212 168.101 102.739 167.766C103.269 167.432 103.889 167.264 104.598 167.264C105.029 167.264 105.447 167.335 105.851 167.478C106.255 167.621 106.618 167.844 106.94 168.149C107.261 168.454 107.515 168.85 107.7 169.337C107.886 169.821 107.979 170.41 107.979 171.102V171.629H101.909V170.516H106.522C106.522 170.125 106.443 169.778 106.284 169.477C106.124 169.172 105.901 168.931 105.612 168.756C105.327 168.58 104.993 168.492 104.608 168.492C104.191 168.492 103.826 168.595 103.514 168.8C103.206 169.003 102.968 169.268 102.798 169.596C102.633 169.921 102.55 170.274 102.55 170.655V171.525C102.55 172.035 102.639 172.469 102.818 172.827C103.001 173.185 103.254 173.459 103.579 173.648C103.904 173.833 104.283 173.926 104.718 173.926C104.999 173.926 105.256 173.886 105.488 173.807C105.72 173.724 105.921 173.601 106.09 173.439C106.259 173.277 106.388 173.076 106.477 172.837L107.884 173.091C107.772 173.505 107.57 173.868 107.278 174.18C106.99 174.488 106.627 174.728 106.189 174.901C105.755 175.07 105.259 175.154 104.703 175.154ZM109.628 175V167.364H111.115V175H109.628ZM110.379 166.185C110.12 166.185 109.898 166.099 109.713 165.927C109.53 165.751 109.439 165.542 109.439 165.3C109.439 165.055 109.53 164.846 109.713 164.674C109.898 164.498 110.12 164.411 110.379 164.411C110.637 164.411 110.858 164.498 111.04 164.674C111.226 164.846 111.319 165.055 111.319 165.3C111.319 165.542 111.226 165.751 111.04 165.927C110.858 166.099 110.637 166.185 110.379 166.185ZM113.115 177.864V167.364H114.566V168.602H114.691C114.777 168.442 114.901 168.259 115.063 168.05C115.226 167.841 115.451 167.659 115.74 167.503C116.028 167.344 116.409 167.264 116.883 167.264C117.499 167.264 118.05 167.42 118.534 167.732C119.017 168.043 119.397 168.492 119.672 169.079C119.95 169.665 120.09 170.371 120.09 171.197C120.09 172.022 119.952 172.73 119.677 173.32C119.402 173.906 119.024 174.359 118.544 174.677C118.063 174.992 117.514 175.149 116.898 175.149C116.434 175.149 116.054 175.071 115.759 174.915C115.468 174.76 115.239 174.577 115.073 174.369C114.908 174.16 114.78 173.974 114.691 173.812H114.601V177.864H113.115ZM114.571 171.182C114.571 171.719 114.649 172.189 114.805 172.594C114.961 172.998 115.186 173.315 115.481 173.543C115.776 173.769 116.137 173.881 116.565 173.881C117.009 173.881 117.38 173.764 117.678 173.528C117.977 173.29 118.202 172.967 118.355 172.559C118.51 172.151 118.588 171.692 118.588 171.182C118.588 170.678 118.512 170.226 118.36 169.825C118.21 169.424 117.985 169.107 117.683 168.875C117.385 168.643 117.012 168.527 116.565 168.527C116.134 168.527 115.769 168.638 115.471 168.86C115.176 169.082 114.952 169.392 114.8 169.79C114.647 170.187 114.571 170.652 114.571 171.182ZM125.32 167.364V168.557H121.149V167.364H125.32ZM122.267 165.534H123.754V172.758C123.754 173.046 123.797 173.263 123.883 173.409C123.969 173.552 124.08 173.649 124.216 173.702C124.355 173.752 124.506 173.777 124.669 173.777C124.788 173.777 124.892 173.769 124.982 173.752C125.071 173.736 125.141 173.722 125.191 173.712L125.459 174.94C125.373 174.973 125.25 175.007 125.091 175.04C124.932 175.076 124.733 175.096 124.494 175.099C124.103 175.106 123.739 175.036 123.401 174.891C123.063 174.745 122.789 174.519 122.58 174.214C122.372 173.91 122.267 173.527 122.267 173.066V165.534Z" fill="#131314" fill-opacity="0.9"/>
<path fill-rule="evenodd" clip-rule="evenodd" d="M217.533 159.159C218.798 159.086 220.062 159.092 221.328 159.092C221.336 159.092 227.74 159.092 227.74 159.092C229.03 159.092 230.294 159.086 231.559 159.159C232.709 159.224 233.829 159.364 234.944 159.676C237.291 160.332 239.34 161.702 240.822 163.645C242.294 165.575 243.091 167.938 243.091 170.364C243.091 172.793 242.294 175.154 240.822 177.085C239.34 179.026 237.291 180.397 234.944 181.053C233.829 181.365 232.709 181.504 231.559 181.57C230.294 181.643 229.03 181.637 227.765 181.637C227.756 181.637 221.351 181.637 221.351 181.637C220.062 181.637 218.798 181.643 217.533 181.57C216.384 181.504 215.264 181.365 214.149 181.053C211.802 180.397 209.752 179.026 208.271 177.085C206.798 175.154 206 172.793 206 170.365C206 167.938 206.798 165.575 208.271 163.645C209.752 161.702 211.802 160.332 214.149 159.676C215.264 159.364 216.384 159.224 217.533 159.159Z" fill="#96969C" fill-opacity="0.2"/>
<g filter="url(#filter0_d_901_7089)">
<path fill-rule="evenodd" clip-rule="evenodd" d="M217.274 180.183C222.696 180.183 227.092 175.787 227.092 170.365C227.092 164.943 222.696 160.547 217.274 160.547C211.851 160.547 207.456 164.943 207.456 170.365C207.456 175.787 211.851 180.183 217.274 180.183Z" fill="white"/>
</g>
<rect x="24.2" y="20.2" width="31.6" height="31.6" rx="15.8" stroke="black" stroke-opacity="0.08" stroke-width="0.4"/>
<circle cx="40" cy="36" r="16" fill="#0DBD8B"/>
<path fill-rule="evenodd" clip-rule="evenodd" d="M34.0001 29.5996H46.0001C46.5524 29.5996 47.0001 30.0473 47.0001 30.5996V31.5996H33.0001V30.5996C33.0001 30.0473 33.4478 29.5996 34.0001 29.5996ZM33.0001 32.5996H47.0001C47.5524 32.5996 48.0001 33.0066 48.0001 33.5087V41.6905C48.0001 42.1926 47.5524 42.5996 47.0001 42.5996H33.0001C32.4478 42.5996 32.0001 42.1926 32.0001 41.6905V33.5087C32.0001 33.0066 32.4478 32.5996 33.0001 32.5996ZM42.5001 37.5996C42.5001 38.9803 41.3808 40.0996 40.0001 40.0996C38.6194 40.0996 37.5001 38.9803 37.5001 37.5996C37.5001 36.2189 38.6194 35.0996 40.0001 35.0996C41.3808 35.0996 42.5001 36.2189 42.5001 37.5996Z" fill="white"/>
<path d="M69.1985 30.0909H71.196L74.669 38.571H74.7969L78.2699 30.0909H80.2674V41H78.7013V33.1058H78.6001L75.3828 40.984H74.0831L70.8658 33.1005H70.7646V41H69.1985V30.0909ZM86.0589 41.1651C85.2528 41.1651 84.5585 40.9929 83.9761 40.6484C83.3973 40.3004 82.9498 39.8121 82.6338 39.1836C82.3213 38.5515 82.165 37.8111 82.165 36.9624C82.165 36.1243 82.3213 35.3857 82.6338 34.7464C82.9498 34.1072 83.3902 33.6083 83.9548 33.2496C84.523 32.891 85.1871 32.7116 85.947 32.7116C86.4086 32.7116 86.8561 32.788 87.2893 32.9407C87.7226 33.0934 88.1114 33.3331 88.4559 33.6598C88.8003 33.9865 89.072 34.4109 89.2709 34.9329C89.4697 35.4513 89.5692 36.0817 89.5692 36.8239V37.3885H83.0653V36.1953H88.0084C88.0084 35.7763 87.9232 35.4052 87.7528 35.082C87.5823 34.7553 87.3426 34.4979 87.0336 34.3097C86.7282 34.1214 86.3696 34.0273 85.9577 34.0273C85.5102 34.0273 85.1196 34.1374 84.7858 34.3576C84.4555 34.5742 84.1998 34.8583 84.0187 35.2099C83.8412 35.5579 83.7524 35.9361 83.7524 36.3445V37.2766C83.7524 37.8235 83.8483 38.2887 84.04 38.6722C84.2354 39.0558 84.507 39.3487 84.855 39.5511C85.203 39.75 85.6096 39.8494 86.0748 39.8494C86.3767 39.8494 86.6519 39.8068 86.9005 39.7216C87.1491 39.6328 87.3639 39.5014 87.545 39.3274C87.7261 39.1534 87.8646 38.9386 87.9605 38.6829L89.468 38.9545C89.3472 39.3984 89.1306 39.7873 88.8181 40.1211C88.5091 40.4513 88.1203 40.7088 87.6515 40.8935C87.1863 41.0746 86.6555 41.1651 86.0589 41.1651ZM91.3363 41V32.8182H92.8757V34.1179H92.9609C93.1101 33.6776 93.3729 33.3313 93.7493 33.0792C94.1293 32.8235 94.5589 32.6957 95.0384 32.6957C95.1378 32.6957 95.255 32.6992 95.3899 32.7063C95.5284 32.7134 95.6367 32.7223 95.7148 32.733V34.2564C95.6509 34.2386 95.5373 34.2191 95.3739 34.1978C95.2106 34.1729 95.0472 34.1605 94.8839 34.1605C94.5075 34.1605 94.1719 34.2404 93.8771 34.4002C93.5859 34.5565 93.3551 34.7749 93.1847 35.0554C93.0142 35.3324 92.929 35.6484 92.929 36.0036V41H91.3363ZM100.247 41.1651C99.4546 41.1651 98.7728 40.9858 98.2011 40.6271C97.6329 40.2649 97.1961 39.766 96.8907 39.1303C96.5853 38.4947 96.4326 37.7667 96.4326 36.9464C96.4326 36.1154 96.5889 35.3821 96.9014 34.7464C97.2139 34.1072 97.6542 33.6083 98.2224 33.2496C98.7906 32.891 99.46 32.7116 100.231 32.7116C100.852 32.7116 101.406 32.8271 101.892 33.0579C102.379 33.2852 102.771 33.6048 103.07 34.0167C103.372 34.4286 103.551 34.9098 103.608 35.4602H102.058C101.972 35.0767 101.777 34.7464 101.472 34.4695C101.17 34.1925 100.765 34.054 100.257 34.054C99.8133 34.054 99.4244 34.1712 99.0906 34.4055C98.7604 34.6364 98.5029 34.9666 98.3183 35.3963C98.1336 35.8224 98.0413 36.3267 98.0413 36.9091C98.0413 37.5057 98.1318 38.0206 98.3129 38.4538C98.4941 38.8871 98.7497 39.2227 99.08 39.4606C99.4138 39.6985 99.8062 39.8175 100.257 39.8175C100.559 39.8175 100.832 39.7624 101.078 39.6523C101.326 39.5387 101.534 39.3771 101.701 39.1676C101.871 38.9581 101.99 38.706 102.058 38.4112H103.608C103.551 38.9403 103.379 39.4126 103.091 39.8281C102.803 40.2436 102.418 40.5703 101.935 40.8082C101.456 41.0462 100.893 41.1651 100.247 41.1651ZM106.904 36.142V41H105.311V30.0909H106.882V34.1499H106.983C107.175 33.7095 107.468 33.3597 107.862 33.1005C108.257 32.8413 108.771 32.7116 109.407 32.7116C109.968 32.7116 110.458 32.8271 110.877 33.0579C111.3 33.2887 111.627 33.6332 111.857 34.0913C112.092 34.5458 112.209 35.114 112.209 35.7958V41H110.616V35.9876C110.616 35.3874 110.462 34.9222 110.153 34.592C109.844 34.2582 109.414 34.0913 108.864 34.0913C108.487 34.0913 108.15 34.1712 107.852 34.331C107.557 34.4908 107.324 34.7251 107.154 35.0341C106.987 35.3395 106.904 35.7088 106.904 36.142ZM116.715 41.1811C116.197 41.1811 115.728 41.0852 115.309 40.8935C114.89 40.6982 114.558 40.4158 114.313 40.0465C114.072 39.6772 113.951 39.2244 113.951 38.6882C113.951 38.2266 114.04 37.8466 114.217 37.5483C114.395 37.25 114.634 37.0138 114.936 36.8398C115.238 36.6658 115.575 36.5344 115.948 36.4457C116.321 36.3569 116.701 36.2894 117.088 36.2433C117.578 36.1864 117.976 36.1403 118.281 36.1048C118.587 36.0657 118.809 36.0036 118.947 35.9183C119.086 35.8331 119.155 35.6946 119.155 35.5028V35.4656C119.155 35.0004 119.024 34.6399 118.761 34.3842C118.502 34.1286 118.115 34.0007 117.6 34.0007C117.063 34.0007 116.641 34.1197 116.332 34.3576C116.026 34.592 115.815 34.853 115.698 35.1406L114.201 34.7997C114.379 34.3026 114.638 33.9013 114.979 33.5959C115.323 33.2869 115.719 33.0632 116.167 32.9247C116.614 32.7827 117.085 32.7116 117.578 32.7116C117.905 32.7116 118.251 32.7507 118.617 32.8288C118.986 32.9034 119.331 33.0419 119.65 33.2443C119.974 33.4467 120.238 33.7362 120.444 34.1126C120.65 34.4854 120.753 34.9702 120.753 35.5668V41H119.198V39.8814H119.134C119.031 40.0874 118.876 40.2898 118.67 40.4886C118.464 40.6875 118.2 40.8526 117.877 40.984C117.553 41.1154 117.166 41.1811 116.715 41.1811ZM117.062 39.9027C117.502 39.9027 117.878 39.8157 118.191 39.6417C118.507 39.4677 118.747 39.2404 118.91 38.9599C119.077 38.6758 119.16 38.3722 119.16 38.049V36.9943C119.104 37.0511 118.993 37.1044 118.83 37.1541C118.67 37.2003 118.487 37.2411 118.281 37.2766C118.075 37.3086 117.875 37.3388 117.68 37.3672C117.484 37.392 117.321 37.4134 117.189 37.4311C116.881 37.4702 116.598 37.5359 116.343 37.6282C116.09 37.7205 115.888 37.8537 115.735 38.0277C115.586 38.1982 115.512 38.4254 115.512 38.7095C115.512 39.1037 115.657 39.402 115.948 39.6044C116.24 39.8033 116.611 39.9027 117.062 39.9027ZM124.467 36.142V41H122.874V32.8182H124.403V34.1499H124.504C124.693 33.7166 124.987 33.3686 125.389 33.1058C125.793 32.843 126.303 32.7116 126.917 32.7116C127.475 32.7116 127.963 32.8288 128.382 33.0632C128.801 33.294 129.126 33.6385 129.357 34.0966C129.588 34.5547 129.703 35.1211 129.703 35.7958V41H128.111V35.9876C128.111 35.3945 127.956 34.9311 127.647 34.5973C127.338 34.2599 126.914 34.0913 126.374 34.0913C126.005 34.0913 125.676 34.1712 125.389 34.331C125.104 34.4908 124.879 34.7251 124.712 35.0341C124.549 35.3395 124.467 35.7088 124.467 36.142ZM135.658 32.8182V34.0966H131.189V32.8182H135.658ZM132.388 30.858H133.981V38.5977C133.981 38.9066 134.027 39.1392 134.119 39.2955C134.211 39.4482 134.33 39.5529 134.476 39.6097C134.625 39.663 134.787 39.6896 134.961 39.6896C135.089 39.6896 135.2 39.6808 135.296 39.663C135.392 39.6452 135.467 39.631 135.52 39.6204L135.808 40.9361C135.715 40.9716 135.584 41.0071 135.413 41.0426C135.243 41.0817 135.03 41.103 134.774 41.1065C134.355 41.1136 133.965 41.0391 133.602 40.8828C133.24 40.7266 132.947 40.4851 132.723 40.1584C132.5 39.8317 132.388 39.4215 132.388 38.9279V30.858Z" fill="#131314"/>
<path d="M199.691 41H198.548V32.8687H195.597V31.8403H202.643V32.8687H199.691V41ZM203.237 41V34.1572H204.278V35.1729H204.38C204.583 34.5063 205.37 34.0366 206.278 34.0366C206.456 34.0366 206.684 34.0493 206.824 34.0684V35.1602C206.735 35.1348 206.341 35.0967 206.126 35.0967C205.085 35.0967 204.329 35.7949 204.329 36.7598V41H203.237ZM210.218 40.1621C211.342 40.1621 212.173 39.4258 212.173 38.4482V37.8198L210.332 37.9404C209.291 38.0103 208.834 38.3721 208.834 39.0576C208.834 39.7559 209.425 40.1621 210.218 40.1621ZM210.015 41.1206C208.688 41.1206 207.704 40.3335 207.704 39.083C207.704 37.8579 208.606 37.1533 210.199 37.0581L212.173 36.9375V36.3154C212.173 35.4712 211.646 35.0078 210.624 35.0078C209.805 35.0078 209.234 35.3188 209.082 35.8584H207.977C208.123 34.7603 209.202 34.0366 210.662 34.0366C212.332 34.0366 213.265 34.8936 213.265 36.3154V41H212.224V39.9907H212.122C211.678 40.7207 210.929 41.1206 210.015 41.1206ZM215.205 41V34.1572H216.246V35.2363H216.348C216.691 34.481 217.357 34.0366 218.405 34.0366C219.941 34.0366 220.798 34.9443 220.798 36.5693V41H219.706V36.8359C219.706 35.6045 219.185 35.0205 218.094 35.0205C217.002 35.0205 216.297 35.7505 216.297 36.9502V41H215.205ZM222.561 36.0298C222.561 34.8936 223.659 34.0366 225.112 34.0366C226.547 34.0366 227.543 34.7476 227.689 35.8711H226.61C226.464 35.3252 225.931 34.9634 225.106 34.9634C224.293 34.9634 223.659 35.376 223.659 35.9854C223.659 36.4551 224.04 36.7471 224.846 36.9438L225.899 37.1978C227.188 37.5088 227.81 38.0674 227.81 39.0513C227.81 40.2764 226.623 41.1206 225.068 41.1206C223.544 41.1206 222.497 40.3906 222.376 39.2544H223.5C223.684 39.832 224.23 40.2002 225.106 40.2002C226.026 40.2002 226.687 39.7622 226.687 39.1338C226.687 38.6641 226.331 38.3467 225.601 38.1689L224.427 37.8833C223.145 37.5723 222.561 37.02 222.561 36.0298ZM229.903 41V35.0713H228.767V34.1572H229.903V33.3955C229.903 32.0308 230.589 31.377 231.89 31.377C232.156 31.377 232.398 31.396 232.626 31.4404V32.3291C232.493 32.3037 232.309 32.2974 232.112 32.2974C231.325 32.2974 230.995 32.6782 230.995 33.4272V34.1572H232.563V35.0713H230.995V41H229.903ZM236.515 35.0015C235.424 35.0015 234.662 35.8013 234.579 37.0137H238.35C238.324 35.8013 237.601 35.0015 236.515 35.0015ZM238.318 39.229H239.41C239.08 40.4033 238.026 41.1206 236.528 41.1206C234.63 41.1206 233.443 39.7495 233.443 37.585C233.443 35.4331 234.649 34.0366 236.528 34.0366C238.375 34.0366 239.499 35.3506 239.499 37.4771V37.896H234.579V37.9468C234.636 39.2988 235.392 40.1558 236.553 40.1558C237.436 40.1558 238.032 39.832 238.318 39.229ZM241.135 41V34.1572H242.176V35.1729H242.277C242.48 34.5063 243.267 34.0366 244.175 34.0366C244.353 34.0366 244.581 34.0493 244.721 34.0684V35.1602C244.632 35.1348 244.239 35.0967 244.023 35.0967C242.982 35.0967 242.226 35.7949 242.226 36.7598V41H241.135Z" fill="#96969C"/>
<rect x="24" y="64" width="222" height="72" rx="8" fill="#F4FCF8"/>
<path d="M92.5985 103.182V81.3636H93.9963V103.182H92.5985ZM96.9707 88.1307C96.8798 87.3239 96.5048 86.6989 95.8457 86.2557C95.1866 85.8068 94.3571 85.5824 93.3571 85.5824C92.6412 85.5824 92.0218 85.696 91.4991 85.9233C90.9764 86.1449 90.5701 86.4517 90.2804 86.8438C89.9963 87.2301 89.8542 87.6705 89.8542 88.1648C89.8542 88.5795 89.9508 88.9375 90.144 89.2386C90.3429 89.5398 90.6014 89.7926 90.9196 89.9972C91.2434 90.196 91.59 90.3636 91.9593 90.5C92.3287 90.6307 92.6838 90.7386 93.0247 90.8239L94.7292 91.267C95.286 91.4034 95.8571 91.5881 96.4423 91.821C97.0275 92.054 97.5701 92.3608 98.0701 92.7415C98.5701 93.1222 98.9735 93.5938 99.2804 94.1562C99.5929 94.7188 99.7491 95.392 99.7491 96.1761C99.7491 97.1648 99.4934 98.0426 98.9821 98.8097C98.4764 99.5767 97.7406 100.182 96.7747 100.625C95.8145 101.068 94.6525 101.29 93.2889 101.29C91.9821 101.29 90.8514 101.082 89.8968 100.668C88.9423 100.253 88.1951 99.6648 87.6554 98.9034C87.1156 98.1364 86.8173 97.2273 86.7605 96.1761H89.4025C89.4537 96.8068 89.6582 97.3324 90.0162 97.7528C90.3798 98.1676 90.8429 98.4773 91.4054 98.6818C91.9735 98.8807 92.5957 98.9801 93.2718 98.9801C94.0162 98.9801 94.6781 98.8636 95.2576 98.6307C95.8429 98.392 96.3031 98.0625 96.6383 97.642C96.9735 97.2159 97.1412 96.7187 97.1412 96.1506C97.1412 95.6335 96.9934 95.2102 96.698 94.8807C96.4082 94.5511 96.0133 94.2784 95.5133 94.0625C95.019 93.8466 94.4593 93.6562 93.8343 93.4915L91.7718 92.929C90.3741 92.5483 89.2662 91.9886 88.448 91.25C87.6355 90.5114 87.2292 89.5341 87.2292 88.3182C87.2292 87.3125 87.502 86.4347 88.0474 85.6847C88.5929 84.9347 89.3315 84.3523 90.2633 83.9375C91.1951 83.517 92.2463 83.3068 93.4167 83.3068C94.5985 83.3068 95.6412 83.5142 96.5446 83.929C97.4537 84.3438 98.1696 84.9148 98.6923 85.642C99.215 86.3636 99.4877 87.1932 99.5105 88.1307H96.9707ZM108.521 101.239C107.35 101.239 106.305 101.037 105.385 100.634C104.47 100.23 103.745 99.6705 103.211 98.9545C102.683 98.233 102.399 97.3977 102.359 96.4489H105.035C105.069 96.9659 105.242 97.4148 105.555 97.7955C105.873 98.1705 106.288 98.4602 106.799 98.6648C107.311 98.8693 107.879 98.9716 108.504 98.9716C109.191 98.9716 109.799 98.8523 110.328 98.6136C110.862 98.375 111.279 98.0426 111.581 97.6165C111.882 97.1847 112.032 96.6875 112.032 96.125C112.032 95.5398 111.882 95.0256 111.581 94.5824C111.285 94.1335 110.85 93.7812 110.277 93.5256C109.708 93.2699 109.021 93.142 108.214 93.142H106.74V90.9943H108.214C108.862 90.9943 109.43 90.8778 109.919 90.6449C110.413 90.4119 110.799 90.0881 111.078 89.6733C111.356 89.2528 111.495 88.7614 111.495 88.1989C111.495 87.6591 111.373 87.1903 111.129 86.7926C110.89 86.3892 110.549 86.0739 110.106 85.8466C109.669 85.6193 109.152 85.5057 108.555 85.5057C107.987 85.5057 107.456 85.6108 106.961 85.821C106.473 86.0256 106.075 86.321 105.768 86.7074C105.461 87.0881 105.296 87.5455 105.274 88.0795H102.725C102.754 87.1364 103.032 86.3068 103.561 85.5909C104.095 84.875 104.799 84.3153 105.674 83.9119C106.549 83.5085 107.521 83.3068 108.589 83.3068C109.708 83.3068 110.674 83.5256 111.487 83.9631C112.305 84.3949 112.936 84.9716 113.379 85.6932C113.828 86.4148 114.049 87.2045 114.044 88.0625C114.049 89.0398 113.777 89.8693 113.225 90.5511C112.68 91.233 111.953 91.6903 111.044 91.9233V92.0597C112.203 92.2358 113.1 92.696 113.737 93.4403C114.379 94.1847 114.697 95.108 114.691 96.2102C114.697 97.1705 114.43 98.0312 113.89 98.7926C113.356 99.554 112.626 100.153 111.7 100.591C110.774 101.023 109.714 101.239 108.521 101.239ZM123.776 101.29C122.43 101.284 121.279 100.929 120.325 100.224C119.37 99.5199 118.64 98.4943 118.134 97.1477C117.629 95.8011 117.376 94.179 117.376 92.2812C117.376 90.3892 117.629 88.7727 118.134 87.4318C118.646 86.0909 119.379 85.0682 120.333 84.3636C121.293 83.6591 122.441 83.3068 123.776 83.3068C125.112 83.3068 126.256 83.6619 127.211 84.3722C128.165 85.0767 128.896 86.0994 129.401 87.4403C129.913 88.7756 130.168 90.3892 130.168 92.2812C130.168 94.1847 129.915 95.8097 129.41 97.1562C128.904 98.4972 128.174 99.5227 127.219 100.233C126.265 100.938 125.117 101.29 123.776 101.29ZM123.776 99.0142C124.958 99.0142 125.881 98.4375 126.546 97.2841C127.217 96.1307 127.552 94.4631 127.552 92.2812C127.552 90.8324 127.398 89.608 127.092 88.608C126.79 87.6023 126.356 86.8409 125.788 86.3239C125.225 85.8011 124.555 85.5398 123.776 85.5398C122.6 85.5398 121.677 86.1193 121.006 87.2784C120.336 88.4375 119.998 90.1051 119.992 92.2812C119.992 93.7358 120.143 94.9659 120.444 95.9716C120.751 96.9716 121.185 97.7301 121.748 98.2472C122.31 98.7585 122.987 99.0142 123.776 99.0142ZM139.055 101.29C137.709 101.284 136.558 100.929 135.603 100.224C134.649 99.5199 133.919 98.4943 133.413 97.1477C132.907 95.8011 132.655 94.179 132.655 92.2812C132.655 90.3892 132.907 88.7727 133.413 87.4318C133.924 86.0909 134.657 85.0682 135.612 84.3636C136.572 83.6591 137.72 83.3068 139.055 83.3068C140.39 83.3068 141.535 83.6619 142.49 84.3722C143.444 85.0767 144.174 86.0994 144.68 87.4403C145.191 88.7756 145.447 90.3892 145.447 92.2812C145.447 94.1847 145.194 95.8097 144.689 97.1562C144.183 98.4972 143.453 99.5227 142.498 100.233C141.544 100.938 140.396 101.29 139.055 101.29ZM139.055 99.0142C140.237 99.0142 141.16 98.4375 141.825 97.2841C142.495 96.1307 142.831 94.4631 142.831 92.2812C142.831 90.8324 142.677 89.608 142.37 88.608C142.069 87.6023 141.635 86.8409 141.066 86.3239C140.504 85.8011 139.834 85.5398 139.055 85.5398C137.879 85.5398 136.956 86.1193 136.285 87.2784C135.615 88.4375 135.277 90.1051 135.271 92.2812C135.271 93.7358 135.422 94.9659 135.723 95.9716C136.03 96.9716 136.464 97.7301 137.027 98.2472C137.589 98.7585 138.265 99.0142 139.055 99.0142ZM149.338 101.162C148.872 101.162 148.471 100.997 148.136 100.668C147.801 100.332 147.633 99.929 147.633 99.4574C147.633 98.9915 147.801 98.5937 148.136 98.2642C148.471 97.929 148.872 97.7614 149.338 97.7614C149.803 97.7614 150.204 97.929 150.539 98.2642C150.874 98.5937 151.042 98.9915 151.042 99.4574C151.042 99.7699 150.963 100.057 150.803 100.318C150.65 100.574 150.445 100.778 150.19 100.932C149.934 101.085 149.65 101.162 149.338 101.162ZM159.652 101.29C158.305 101.284 157.155 100.929 156.2 100.224C155.246 99.5199 154.516 98.4943 154.01 97.1477C153.504 95.8011 153.251 94.179 153.251 92.2812C153.251 90.3892 153.504 88.7727 154.01 87.4318C154.521 86.0909 155.254 85.0682 156.209 84.3636C157.169 83.6591 158.317 83.3068 159.652 83.3068C160.987 83.3068 162.132 83.6619 163.087 84.3722C164.041 85.0767 164.771 86.0994 165.277 87.4403C165.788 88.7756 166.044 90.3892 166.044 92.2812C166.044 94.1847 165.791 95.8097 165.285 97.1562C164.78 98.4972 164.05 99.5227 163.095 100.233C162.141 100.938 160.993 101.29 159.652 101.29ZM159.652 99.0142C160.834 99.0142 161.757 98.4375 162.422 97.2841C163.092 96.1307 163.427 94.4631 163.427 92.2812C163.427 90.8324 163.274 89.608 162.967 88.608C162.666 87.6023 162.231 86.8409 161.663 86.3239C161.101 85.8011 160.43 85.5398 159.652 85.5398C158.476 85.5398 157.552 86.1193 156.882 87.2784C156.212 88.4375 155.873 90.1051 155.868 92.2812C155.868 93.7358 156.018 94.9659 156.32 95.9716C156.626 96.9716 157.061 97.7301 157.623 98.2472C158.186 98.7585 158.862 99.0142 159.652 99.0142ZM174.931 101.29C173.584 101.284 172.434 100.929 171.479 100.224C170.525 99.5199 169.794 98.4943 169.289 97.1477C168.783 95.8011 168.53 94.179 168.53 92.2812C168.53 90.3892 168.783 88.7727 169.289 87.4318C169.8 86.0909 170.533 85.0682 171.488 84.3636C172.448 83.6591 173.596 83.3068 174.931 83.3068C176.266 83.3068 177.411 83.6619 178.365 84.3722C179.32 85.0767 180.05 86.0994 180.556 87.4403C181.067 88.7756 181.323 90.3892 181.323 92.2812C181.323 94.1847 181.07 95.8097 180.564 97.1562C180.059 98.4972 179.328 99.5227 178.374 100.233C177.419 100.938 176.272 101.29 174.931 101.29ZM174.931 99.0142C176.113 99.0142 177.036 98.4375 177.701 97.2841C178.371 96.1307 178.706 94.4631 178.706 92.2812C178.706 90.8324 178.553 89.608 178.246 88.608C177.945 87.6023 177.51 86.8409 176.942 86.3239C176.38 85.8011 175.709 85.5398 174.931 85.5398C173.755 85.5398 172.831 86.1193 172.161 87.2784C171.49 88.4375 171.152 90.1051 171.147 92.2812C171.147 93.7358 171.297 94.9659 171.598 95.9716C171.905 96.9716 172.34 97.7301 172.902 98.2472C173.465 98.7585 174.141 99.0142 174.931 99.0142Z" fill="#131314"/>
<path d="M77.5796 120H75.9419V112.256H73.1235V110.84H80.4043V112.256H77.5796V120ZM81.099 120V113.056H82.6161V114.135H82.724C82.9145 113.449 83.6635 112.941 84.5585 112.941C84.787 112.941 85.0663 112.967 85.2123 113.011V114.471C85.0917 114.427 84.6728 114.382 84.4062 114.382C83.3842 114.382 82.6732 115.017 82.6732 115.988V120H81.099ZM88.7508 118.876C89.7029 118.876 90.4139 118.261 90.4139 117.455V116.902L88.846 117.004C87.9637 117.061 87.5511 117.378 87.5511 117.943C87.5511 118.527 88.0525 118.876 88.7508 118.876ZM88.2874 120.114C86.948 120.114 85.9896 119.302 85.9896 118.032C85.9896 116.775 86.9354 116.052 88.6238 115.95L90.4139 115.842V115.258C90.4139 114.579 89.9568 114.198 89.1063 114.198C88.3826 114.198 87.8875 114.452 87.7415 114.922H86.2562C86.3831 113.697 87.532 112.916 89.1824 112.916C90.9661 112.916 91.969 113.786 91.969 115.258V120H90.452V119.048H90.344C89.9568 119.721 89.1951 120.114 88.2874 120.114ZM93.8254 120V113.056H95.3425V114.167H95.4504C95.7805 113.392 96.4787 112.916 97.5134 112.916C99.0622 112.916 99.9065 113.849 99.9065 115.506V120H98.3322V115.88C98.3322 114.82 97.8879 114.287 96.9294 114.287C95.9899 114.287 95.3996 114.935 95.3996 115.957V120H93.8254ZM101.572 115.042C101.572 113.786 102.715 112.916 104.353 112.916C106.003 112.916 107.038 113.646 107.152 114.909H105.673C105.559 114.42 105.095 114.109 104.359 114.109C103.642 114.109 103.102 114.452 103.102 114.954C103.102 115.347 103.432 115.588 104.13 115.747L105.356 116.026C106.682 116.325 107.298 116.896 107.298 117.918C107.298 119.251 106.073 120.14 104.34 120.14C102.607 120.14 101.515 119.391 101.395 118.127H102.95C103.102 118.642 103.591 118.946 104.378 118.946C105.171 118.946 105.724 118.597 105.724 118.083C105.724 117.689 105.425 117.442 104.765 117.296L103.534 117.01C102.201 116.706 101.572 116.09 101.572 115.042ZM109.357 120V114.357H108.221V113.1H109.357V112.37C109.357 110.993 110.062 110.301 111.604 110.301C111.941 110.301 112.227 110.326 112.48 110.371V111.526C112.354 111.507 112.163 111.494 111.941 111.494C111.198 111.494 110.906 111.818 110.906 112.472V113.1H112.417V114.357H110.925V120H109.357ZM116.559 114.167C115.619 114.167 114.959 114.839 114.889 115.855H118.158C118.126 114.827 117.504 114.167 116.559 114.167ZM118.171 118.089H119.663C119.364 119.353 118.215 120.14 116.578 120.14C114.534 120.14 113.302 118.788 113.302 116.553C113.302 114.319 114.553 112.916 116.565 112.916C118.545 112.916 119.732 114.23 119.732 116.42V116.928H114.883V117.01C114.921 118.166 115.587 118.889 116.622 118.889C117.403 118.889 117.942 118.604 118.171 118.089ZM121.271 120V113.056H122.788V114.135H122.896C123.087 113.449 123.836 112.941 124.731 112.941C124.959 112.941 125.239 112.967 125.385 113.011V114.471C125.264 114.427 124.845 114.382 124.578 114.382C123.556 114.382 122.846 115.017 122.846 115.988V120H121.271ZM136.061 115.392H134.563C134.417 114.719 133.896 114.236 133.033 114.236C131.954 114.236 131.313 115.068 131.313 116.509C131.313 117.969 131.96 118.819 133.033 118.819C133.852 118.819 134.398 118.432 134.563 117.708H136.061C135.889 119.162 134.797 120.14 133.039 120.14C130.951 120.14 129.719 118.794 129.719 116.509C129.719 114.255 130.944 112.916 133.033 112.916C134.817 112.916 135.896 113.932 136.061 115.392ZM140.52 120.14C138.438 120.14 137.181 118.781 137.181 116.528C137.181 114.287 138.457 112.916 140.52 112.916C142.589 112.916 143.858 114.281 143.858 116.528C143.858 118.781 142.595 120.14 140.52 120.14ZM140.52 118.819C141.618 118.819 142.24 117.981 142.24 116.528C142.24 115.081 141.611 114.236 140.52 114.236C139.421 114.236 138.793 115.081 138.793 116.528C138.793 117.981 139.421 118.819 140.52 118.819ZM145.404 120V113.056H146.921V114.179H147.029C147.327 113.386 148.038 112.916 148.958 112.916C149.917 112.916 150.583 113.398 150.875 114.179H150.983C151.326 113.417 152.126 112.916 153.091 112.916C154.481 112.916 155.319 113.786 155.319 115.227V120H153.751V115.626C153.751 114.731 153.326 114.287 152.481 114.287C151.663 114.287 151.123 114.884 151.123 115.677V120H149.593V115.512C149.593 114.75 149.111 114.287 148.336 114.287C147.556 114.287 146.978 114.928 146.978 115.779V120H145.404ZM160.927 112.941C162.685 112.941 163.789 114.3 163.789 116.528C163.789 118.743 162.698 120.114 160.946 120.114C159.949 120.114 159.181 119.683 158.826 118.946H158.718V122.311H157.143V113.056H158.66V114.205H158.768C159.168 113.417 159.974 112.941 160.927 112.941ZM160.431 118.775C161.523 118.775 162.171 117.931 162.171 116.528C162.171 115.125 161.517 114.281 160.438 114.281C159.365 114.281 158.692 115.144 158.686 116.528C158.692 117.918 159.359 118.775 160.431 118.775ZM165.392 120V110.371H166.966V120H165.392ZM171.831 114.167C170.892 114.167 170.232 114.839 170.162 115.855H173.431C173.399 114.827 172.777 114.167 171.831 114.167ZM173.443 118.089H174.935C174.637 119.353 173.488 120.14 171.85 120.14C169.806 120.14 168.575 118.788 168.575 116.553C168.575 114.319 169.825 112.916 171.838 112.916C173.818 112.916 175.005 114.23 175.005 116.42V116.928H170.155V117.01C170.193 118.166 170.86 118.889 171.895 118.889C172.675 118.889 173.215 118.604 173.443 118.089ZM177.045 111.354H178.613V113.1H180.099V114.357H178.613V117.766C178.613 118.451 178.905 118.756 179.565 118.756C179.788 118.756 179.908 118.743 180.099 118.724V119.956C179.87 120 179.578 120.032 179.273 120.032C177.68 120.032 177.045 119.492 177.045 118.146V114.357H175.947V113.1H177.045V111.354ZM184.481 114.167C183.542 114.167 182.882 114.839 182.812 115.855H186.081C186.049 114.827 185.427 114.167 184.481 114.167ZM186.094 118.089H187.585C187.287 119.353 186.138 120.14 184.5 120.14C182.456 120.14 181.225 118.788 181.225 116.553C181.225 114.319 182.476 112.916 184.488 112.916C186.468 112.916 187.655 114.23 187.655 116.42V116.928H182.806V117.01C182.844 118.166 183.51 118.889 184.545 118.889C185.326 118.889 185.865 118.604 186.094 118.089ZM191.708 120.114C189.95 120.114 188.851 118.73 188.851 116.521C188.851 114.325 189.956 112.941 191.708 112.941C192.66 112.941 193.447 113.398 193.815 114.16H193.923V110.371H195.497V120H193.974V118.902H193.866C193.472 119.664 192.673 120.114 191.708 120.114ZM192.197 114.281C191.124 114.281 190.464 115.131 190.464 116.528C190.464 117.931 191.118 118.775 192.197 118.775C193.282 118.775 193.942 117.924 193.942 116.528C193.942 115.144 193.276 114.281 192.197 114.281Z" fill="#0DBD8B"/>
<defs>
<filter id="filter0_d_901_7089" x="201.638" y="156.911" width="31.2727" height="31.2731" filterUnits="userSpaceOnUse" color-interpolation-filters="sRGB">
<feFlood flood-opacity="0" result="BackgroundImageFix"/>
<feColorMatrix in="SourceAlpha" type="matrix" values="0 0 0 0 0 0 0 0 0 0 0 0 0 0 0 0 0 0 127 0" result="hardAlpha"/>
<feOffset dy="2.18182"/>
<feGaussianBlur stdDeviation="2.90909"/>
<feColorMatrix type="matrix" values="0 0 0 0 0 0 0 0 0 0 0 0 0 0 0 0 0 0 0.15 0"/>
<feBlend mode="normal" in2="BackgroundImageFix" result="effect1_dropShadow_901_7089"/>
<feBlend mode="normal" in="SourceGraphic" in2="effect1_dropShadow_901_7089" result="shape"/>
</filter>
</defs>
</svg>
