<svg width="102" height="102" viewBox="0 0 102 102" fill="none" xmlns="http://www.w3.org/2000/svg">
<rect x="0.679028" y="0.771923" width="100.642" height="100.642" rx="18.7613" stroke="#FFA95A" stroke-width="0.47744"/>
<path d="M66.3559 53.88C66.1456 53.5164 65.7591 53.2902 65.339 53.2842C65.3334 53.2842 65.3283 53.2842 65.3227 53.2842C64.9087 53.2842 64.524 53.4991 64.3063 53.8521L59.717 61.3097L52.1936 49.0842V34.8598H70.0976C70.5564 34.8598 70.9746 34.5969 71.1732 34.1833C71.3723 33.7697 71.3163 33.2788 71.0296 32.9207L66.8515 27.6982L71.0296 22.4758C71.3163 22.1177 71.3723 21.6267 71.1732 21.2132C70.9746 20.7996 70.5564 20.5366 70.0976 20.5366H51C50.3407 20.5366 49.8064 21.0709 49.8064 21.7302V49.0842L42.2829 61.3102L37.6932 53.8521C37.4731 53.4944 37.0824 53.2786 36.6609 53.2842C36.2403 53.2898 35.8543 53.5164 35.6435 53.88L20.6042 79.8572C20.3906 80.2269 20.3902 80.682 20.6032 81.0517C20.8163 81.4214 21.2108 81.649 21.6374 81.649H80.3625C80.7892 81.649 81.1836 81.4214 81.3967 81.0517C81.6098 80.682 81.6093 80.2264 81.3953 79.8572L66.3559 53.88ZM43.3143 64.1884C43.3157 64.186 43.3171 64.1842 43.3185 64.1818L51 51.6994L67.9612 79.2618H34.0382L43.3143 64.1884ZM64.3911 26.9527C64.0424 27.3886 64.0424 28.0078 64.3911 28.4438L67.6139 32.4726H52.1936V22.9238H67.6139L64.3911 26.9527ZM36.708 56.8058L40.8814 63.5874L31.2351 79.2618H23.7075L36.708 56.8058ZM70.7643 79.2618L61.1185 63.5869L65.2919 56.8058L78.2924 79.2618H70.7643Z" fill="#FFA95A"/>
</svg>
