<svg width="328" height="300" viewBox="0 0 328 300" fill="none" xmlns="http://www.w3.org/2000/svg">
<rect x="14" y="30" width="300" height="240" rx="18" fill="white"/>
<rect x="32" y="48" width="264" height="72" rx="10" fill="#F4FCF8"/>
<rect x="52.25" y="64.25" width="39.5" height="39.5" rx="19.75" stroke="black" stroke-opacity="0.08" stroke-width="0.5"/>
<circle cx="72" cy="84" r="20" fill="#0DBD8B"/>
<path fill-rule="evenodd" clip-rule="evenodd" d="M64.5 76H79.5C80.1904 76 80.75 76.5596 80.75 77.25V78.5H63.25V77.25C63.25 76.5596 63.8096 76 64.5 76ZM63.25 79.75H80.75C81.4404 79.75 82 80.2588 82 80.8864V91.1136C82 91.7412 81.4404 92.25 80.75 92.25H63.25C62.5596 92.25 62 91.7412 62 91.1136V80.8864C62 80.2588 62.5596 79.75 63.25 79.75ZM75.125 86C75.125 87.7259 73.7259 89.125 72 89.125C70.2741 89.125 68.875 87.7259 68.875 86C68.875 84.2741 70.2741 82.875 72 82.875C73.7259 82.875 75.125 84.2741 75.125 86Z" fill="white"/>
<path d="M106.628 69.5611V68.5455H113.719V69.5611H110.746V78H109.601V69.5611H106.628ZM114.524 78V70.9091H115.576V71.9801H115.65C115.779 71.6293 116.013 71.3446 116.352 71.1261C116.69 70.9076 117.072 70.7983 117.497 70.7983C117.577 70.7983 117.677 70.7998 117.797 70.8029C117.917 70.806 118.008 70.8106 118.069 70.8168V71.9247C118.032 71.9155 117.948 71.9016 117.815 71.8832C117.686 71.8616 117.549 71.8509 117.404 71.8509C117.06 71.8509 116.752 71.9232 116.481 72.0678C116.213 72.2094 116.001 72.4064 115.844 72.6587C115.69 72.908 115.613 73.1927 115.613 73.5128V78H114.524ZM121.369 78.1662C120.92 78.1662 120.512 78.0816 120.146 77.9123C119.78 77.7399 119.489 77.4922 119.273 77.169C119.058 76.8428 118.95 76.4489 118.95 75.9872C118.95 75.581 119.03 75.2517 119.19 74.9993C119.35 74.7438 119.564 74.5438 119.832 74.3991C120.1 74.2545 120.395 74.1468 120.718 74.076C121.045 74.0021 121.372 73.9437 121.702 73.9006C122.132 73.8452 122.482 73.8036 122.75 73.7759C123.02 73.7451 123.217 73.6944 123.34 73.6236C123.467 73.5528 123.53 73.4297 123.53 73.2543V73.2173C123.53 72.7618 123.405 72.4079 123.156 72.1555C122.91 71.9032 122.536 71.777 122.034 71.777C121.514 71.777 121.106 71.8909 120.811 72.1186C120.515 72.3464 120.307 72.5895 120.187 72.848L119.153 72.4787C119.338 72.0478 119.584 71.7124 119.892 71.4723C120.203 71.2292 120.541 71.0599 120.908 70.9645C121.277 70.866 121.64 70.8168 121.997 70.8168C122.225 70.8168 122.486 70.8445 122.782 70.8999C123.08 70.9522 123.368 71.0614 123.645 71.2276C123.925 71.3938 124.158 71.6446 124.342 71.9801C124.527 72.3156 124.619 72.7649 124.619 73.3281V78H123.53V77.0398H123.474C123.4 77.1937 123.277 77.3583 123.105 77.5337C122.933 77.7092 122.703 77.8584 122.417 77.9815C122.131 78.1046 121.782 78.1662 121.369 78.1662ZM121.535 77.1875C121.966 77.1875 122.329 77.1029 122.625 76.9336C122.923 76.7643 123.148 76.5458 123.299 76.2781C123.453 76.0103 123.53 75.7287 123.53 75.4332V74.4361C123.484 74.4915 123.382 74.5423 123.225 74.5884C123.071 74.6315 122.893 74.67 122.69 74.7038C122.489 74.7346 122.294 74.7623 122.103 74.7869C121.915 74.8085 121.763 74.8269 121.646 74.8423C121.363 74.8793 121.098 74.9393 120.852 75.0224C120.609 75.1024 120.412 75.224 120.261 75.3871C120.114 75.5471 120.04 75.7656 120.04 76.0426C120.04 76.4212 120.18 76.7074 120.46 76.9013C120.743 77.0921 121.101 77.1875 121.535 77.1875ZM127.619 73.7344V78H126.53V70.9091H127.582V72.017H127.675C127.841 71.657 128.093 71.3677 128.432 71.1491C128.77 70.9276 129.207 70.8168 129.743 70.8168C130.223 70.8168 130.643 70.9152 131.003 71.1122C131.363 71.3061 131.643 71.6016 131.843 71.9986C132.043 72.3925 132.143 72.8911 132.143 73.4943V78H131.054V73.5682C131.054 73.0111 130.909 72.5772 130.62 72.2663C130.331 71.9524 129.934 71.7955 129.429 71.7955C129.081 71.7955 128.77 71.8709 128.496 72.0217C128.226 72.1725 128.012 72.3925 127.855 72.6818C127.698 72.9711 127.619 73.322 127.619 73.7344ZM139.079 72.4972L138.1 72.7741C138.039 72.611 137.948 72.4525 137.828 72.2987C137.711 72.1417 137.551 72.0124 137.348 71.9109C137.145 71.8093 136.885 71.7585 136.568 71.7585C136.134 71.7585 135.772 71.8585 135.483 72.0586C135.197 72.2556 135.053 72.5064 135.053 72.8111C135.053 73.0819 135.152 73.2958 135.349 73.4528C135.546 73.6097 135.854 73.7405 136.272 73.8452L137.325 74.1037C137.959 74.2576 138.431 74.493 138.742 74.81C139.053 75.1239 139.208 75.5286 139.208 76.0241C139.208 76.4304 139.091 76.7936 138.857 77.1136C138.627 77.4337 138.303 77.6861 137.888 77.8707C137.472 78.0554 136.989 78.1477 136.438 78.1477C135.715 78.1477 135.117 77.9908 134.643 77.6768C134.169 77.3629 133.869 76.9044 133.742 76.3011L134.776 76.0426C134.875 76.4242 135.061 76.7105 135.335 76.9013C135.612 77.0921 135.974 77.1875 136.42 77.1875C136.928 77.1875 137.331 77.0798 137.629 76.8643C137.931 76.6458 138.082 76.3842 138.082 76.0795C138.082 75.8333 137.996 75.6271 137.823 75.4609C137.651 75.2917 137.386 75.1655 137.029 75.0824L135.847 74.8054C135.198 74.6515 134.721 74.413 134.416 74.0898C134.115 73.7636 133.964 73.3558 133.964 72.8665C133.964 72.4664 134.076 72.1125 134.301 71.8047C134.529 71.4969 134.838 71.2553 135.229 71.0799C135.623 70.9045 136.069 70.8168 136.568 70.8168C137.269 70.8168 137.82 70.9706 138.22 71.2784C138.623 71.5862 138.91 71.9924 139.079 72.4972ZM143.928 70.9091V71.8324H140.105V70.9091H143.928ZM141.25 78V69.9304C141.25 69.5241 141.346 69.1856 141.537 68.9148C141.727 68.6439 141.975 68.4408 142.28 68.3054C142.585 68.17 142.906 68.1023 143.245 68.1023C143.512 68.1023 143.731 68.1238 143.9 68.1669C144.069 68.21 144.196 68.25 144.279 68.2869L143.965 69.2287C143.909 69.2102 143.833 69.1871 143.734 69.1594C143.639 69.1317 143.512 69.1179 143.355 69.1179C142.995 69.1179 142.735 69.2087 142.575 69.3903C142.418 69.5719 142.34 69.8381 142.34 70.1889V78H141.25ZM148.058 78.1477C147.375 78.1477 146.785 77.9969 146.29 77.6953C145.797 77.3906 145.417 76.9659 145.149 76.4212C144.885 75.8733 144.752 75.2363 144.752 74.5099C144.752 73.7836 144.885 73.1435 145.149 72.5895C145.417 72.0324 145.79 71.5985 146.267 71.2876C146.747 70.9737 147.307 70.8168 147.947 70.8168C148.316 70.8168 148.681 70.8783 149.041 71.0014C149.401 71.1245 149.729 71.3246 150.024 71.6016C150.32 71.8755 150.555 72.2386 150.731 72.6911C150.906 73.1435 150.994 73.7005 150.994 74.3622V74.8239H145.528V73.8821H149.886C149.886 73.482 149.806 73.125 149.646 72.8111C149.489 72.4972 149.264 72.2494 148.972 72.0678C148.683 71.8862 148.341 71.7955 147.947 71.7955C147.513 71.7955 147.138 71.9032 146.821 72.1186C146.507 72.331 146.265 72.608 146.096 72.9496C145.927 73.2912 145.842 73.6574 145.842 74.0483V74.6761C145.842 75.2116 145.934 75.6656 146.119 76.038C146.307 76.4073 146.567 76.6889 146.899 76.8828C147.231 77.0736 147.618 77.169 148.058 77.169C148.344 77.169 148.603 77.129 148.833 77.049C149.067 76.9659 149.269 76.8428 149.438 76.6797C149.607 76.5135 149.738 76.3073 149.831 76.0611L150.883 76.3565C150.772 76.7135 150.586 77.0275 150.325 77.2983C150.063 77.5661 149.74 77.7753 149.355 77.9261C148.97 78.0739 148.538 78.1477 148.058 78.1477ZM152.573 78V70.9091H153.626V71.9801H153.7C153.829 71.6293 154.063 71.3446 154.401 71.1261C154.74 70.9076 155.122 70.7983 155.546 70.7983C155.626 70.7983 155.726 70.7998 155.846 70.8029C155.966 70.806 156.057 70.8106 156.119 70.8168V71.9247C156.082 71.9155 155.997 71.9016 155.865 71.8832C155.736 71.8616 155.599 71.8509 155.454 71.8509C155.109 71.8509 154.801 71.9232 154.531 72.0678C154.263 72.2094 154.051 72.4064 153.894 72.6587C153.74 72.908 153.663 73.1927 153.663 73.5128V78H152.573ZM164.068 70.9091V71.8324H160.246V70.9091H164.068ZM161.391 78V69.9304C161.391 69.5241 161.486 69.1856 161.677 68.9148C161.868 68.6439 162.115 68.4408 162.42 68.3054C162.725 68.17 163.046 68.1023 163.385 68.1023C163.653 68.1023 163.871 68.1238 164.04 68.1669C164.21 68.21 164.336 68.25 164.419 68.2869L164.105 69.2287C164.05 69.2102 163.973 69.1871 163.874 69.1594C163.779 69.1317 163.653 69.1179 163.496 69.1179C163.136 69.1179 162.875 69.2087 162.715 69.3903C162.558 69.5719 162.48 69.8381 162.48 70.1889V78H161.391ZM165.517 78V70.9091H166.57V71.9801H166.643C166.773 71.6293 167.007 71.3446 167.345 71.1261C167.684 70.9076 168.065 70.7983 168.49 70.7983C168.57 70.7983 168.67 70.7998 168.79 70.8029C168.91 70.806 169.001 70.8106 169.062 70.8168V71.9247C169.025 71.9155 168.941 71.9016 168.809 71.8832C168.679 71.8616 168.542 71.8509 168.398 71.8509C168.053 71.8509 167.745 71.9232 167.474 72.0678C167.207 72.2094 166.994 72.4064 166.837 72.6587C166.683 72.908 166.606 73.1927 166.606 73.5128V78H165.517ZM172.941 78.1477C172.301 78.1477 171.739 77.9954 171.256 77.6907C170.776 77.386 170.4 76.9598 170.129 76.4119C169.862 75.8641 169.728 75.224 169.728 74.4915C169.728 73.7528 169.862 73.1081 170.129 72.5572C170.4 72.0063 170.776 71.5785 171.256 71.2738C171.739 70.9691 172.301 70.8168 172.941 70.8168C173.581 70.8168 174.141 70.9691 174.621 71.2738C175.104 71.5785 175.48 72.0063 175.748 72.5572C176.018 73.1081 176.154 73.7528 176.154 74.4915C176.154 75.224 176.018 75.8641 175.748 76.4119C175.48 76.9598 175.104 77.386 174.621 77.6907C174.141 77.9954 173.581 78.1477 172.941 78.1477ZM172.941 77.169C173.427 77.169 173.827 77.0444 174.141 76.7951C174.455 76.5458 174.687 76.218 174.838 75.8118C174.989 75.4055 175.064 74.9654 175.064 74.4915C175.064 74.0175 174.989 73.5759 174.838 73.1665C174.687 72.7572 174.455 72.4264 174.141 72.174C173.827 71.9216 173.427 71.7955 172.941 71.7955C172.454 71.7955 172.054 71.9216 171.74 72.174C171.427 72.4264 171.194 72.7572 171.043 73.1665C170.893 73.5759 170.817 74.0175 170.817 74.4915C170.817 74.9654 170.893 75.4055 171.043 75.8118C171.194 76.218 171.427 76.5458 171.74 76.7951C172.054 77.0444 172.454 77.169 172.941 77.169ZM177.739 78V70.9091H178.791V72.017H178.884C179.032 71.6385 179.27 71.3446 179.599 71.1353C179.929 70.9229 180.324 70.8168 180.786 70.8168C181.254 70.8168 181.643 70.9229 181.954 71.1353C182.268 71.3446 182.512 71.6385 182.688 72.017H182.762C182.943 71.6508 183.216 71.36 183.579 71.1445C183.942 70.926 184.377 70.8168 184.885 70.8168C185.519 70.8168 186.038 71.0153 186.441 71.4123C186.844 71.8062 187.046 72.4202 187.046 73.2543V78H185.956V73.2543C185.956 72.7311 185.813 72.3571 185.527 72.1325C185.241 71.9078 184.904 71.7955 184.516 71.7955C184.017 71.7955 183.631 71.9463 183.357 72.2479C183.083 72.5464 182.946 72.925 182.946 73.3835V78H181.838V73.1435C181.838 72.7403 181.708 72.4156 181.446 72.1694C181.184 71.9201 180.847 71.7955 180.435 71.7955C180.152 71.7955 179.887 71.8709 179.641 72.0217C179.398 72.1725 179.201 72.3817 179.05 72.6495C178.902 72.9142 178.828 73.2204 178.828 73.5682V78H177.739ZM189.754 78.0739C189.526 78.0739 189.331 77.9923 189.167 77.8292C189.004 77.6661 188.923 77.4706 188.923 77.2429C188.923 77.0152 189.004 76.8197 189.167 76.6566C189.331 76.4935 189.526 76.4119 189.754 76.4119C189.982 76.4119 190.177 76.4935 190.34 76.6566C190.503 76.8197 190.585 77.0152 190.585 77.2429C190.585 77.3937 190.546 77.5322 190.469 77.6584C190.395 77.7846 190.295 77.8861 190.169 77.9631C190.046 78.0369 189.908 78.0739 189.754 78.0739ZM189.754 72.8111C189.526 72.8111 189.331 72.7295 189.167 72.5664C189.004 72.4033 188.923 72.2079 188.923 71.9801C188.923 71.7524 189.004 71.5569 189.167 71.3938C189.331 71.2307 189.526 71.1491 189.754 71.1491C189.982 71.1491 190.177 71.2307 190.34 71.3938C190.503 71.5569 190.585 71.7524 190.585 71.9801C190.585 72.1309 190.546 72.2694 190.469 72.3956C190.395 72.5218 190.295 72.6233 190.169 72.7003C190.046 72.7741 189.908 72.8111 189.754 72.8111Z" fill="#96969C"/>
<path d="M109.335 98L106.309 87.0909H108.04L110.165 95.5391H110.267L112.477 87.0909H114.192L116.403 95.5444H116.504L118.624 87.0909H120.361L117.33 98H115.673L113.377 89.8288H113.292L110.996 98H109.335ZM123.309 98.1811C122.791 98.1811 122.322 98.0852 121.903 97.8935C121.484 97.6982 121.152 97.4158 120.907 97.0465C120.665 96.6772 120.545 96.2244 120.545 95.6882C120.545 95.2266 120.633 94.8466 120.811 94.5483C120.988 94.25 121.228 94.0138 121.53 93.8398C121.832 93.6658 122.169 93.5344 122.542 93.4457C122.915 93.3569 123.295 93.2894 123.682 93.2433C124.172 93.1864 124.57 93.1403 124.875 93.1048C125.181 93.0657 125.403 93.0036 125.541 92.9183C125.68 92.8331 125.749 92.6946 125.749 92.5028V92.4656C125.749 92.0004 125.617 91.6399 125.355 91.3842C125.095 91.1286 124.708 91.0007 124.193 91.0007C123.657 91.0007 123.235 91.1197 122.926 91.3576C122.62 91.592 122.409 91.853 122.292 92.1406L120.795 91.7997C120.972 91.3026 121.232 90.9013 121.573 90.5959C121.917 90.2869 122.313 90.0632 122.76 89.9247C123.208 89.7827 123.678 89.7116 124.172 89.7116C124.499 89.7116 124.845 89.7507 125.211 89.8288C125.58 89.9034 125.925 90.0419 126.244 90.2443C126.567 90.4467 126.832 90.7362 127.038 91.1126C127.244 91.4854 127.347 91.9702 127.347 92.5668V98H125.791V96.8814H125.727C125.624 97.0874 125.47 97.2898 125.264 97.4886C125.058 97.6875 124.794 97.8526 124.47 97.984C124.147 98.1154 123.76 98.1811 123.309 98.1811ZM123.655 96.9027C124.096 96.9027 124.472 96.8157 124.785 96.6417C125.101 96.4677 125.34 96.2404 125.504 95.9599C125.671 95.6758 125.754 95.3722 125.754 95.049V93.9943C125.697 94.0511 125.587 94.1044 125.424 94.1541C125.264 94.2003 125.081 94.2411 124.875 94.2766C124.669 94.3086 124.469 94.3388 124.273 94.3672C124.078 94.392 123.915 94.4134 123.783 94.4311C123.474 94.4702 123.192 94.5359 122.936 94.6282C122.684 94.7205 122.482 94.8537 122.329 95.0277C122.18 95.1982 122.105 95.4254 122.105 95.7095C122.105 96.1037 122.251 96.402 122.542 96.6044C122.833 96.8033 123.204 96.9027 123.655 96.9027ZM131.061 87.0909V98H129.468V87.0909H131.061ZM134.796 87.0909V98H133.203V87.0909H134.796ZM140.465 98.1651C139.659 98.1651 138.965 97.9929 138.382 97.6484C137.804 97.3004 137.356 96.8121 137.04 96.1836C136.728 95.5515 136.571 94.8111 136.571 93.9624C136.571 93.1243 136.728 92.3857 137.04 91.7464C137.356 91.1072 137.796 90.6083 138.361 90.2496C138.929 89.891 139.593 89.7116 140.353 89.7116C140.815 89.7116 141.262 89.788 141.696 89.9407C142.129 90.0934 142.518 90.3331 142.862 90.6598C143.207 90.9865 143.478 91.4109 143.677 91.9329C143.876 92.4513 143.975 93.0817 143.975 93.8239V94.3885H137.472V93.1953H142.415C142.415 92.7763 142.329 92.4052 142.159 92.082C141.989 91.7553 141.749 91.4979 141.44 91.3097C141.134 91.1214 140.776 91.0273 140.364 91.0273C139.916 91.0273 139.526 91.1374 139.192 91.3576C138.862 91.5742 138.606 91.8583 138.425 92.2099C138.247 92.5579 138.159 92.9361 138.159 93.3445V94.2766C138.159 94.8235 138.255 95.2887 138.446 95.6722C138.642 96.0558 138.913 96.3487 139.261 96.5511C139.609 96.75 140.016 96.8494 140.481 96.8494C140.783 96.8494 141.058 96.8068 141.307 96.7216C141.555 96.6328 141.77 96.5014 141.951 96.3274C142.132 96.1534 142.271 95.9386 142.367 95.6829L143.874 95.9545C143.753 96.3984 143.537 96.7873 143.224 97.1211C142.915 97.4513 142.527 97.7088 142.058 97.8935C141.593 98.0746 141.062 98.1651 140.465 98.1651ZM149.562 89.8182V91.0966H145.093V89.8182H149.562ZM146.291 87.858H147.884V95.5977C147.884 95.9066 147.93 96.1392 148.022 96.2955C148.115 96.4482 148.234 96.5529 148.379 96.6097C148.528 96.663 148.69 96.6896 148.864 96.6896C148.992 96.6896 149.104 96.6808 149.2 96.663C149.295 96.6452 149.37 96.631 149.423 96.6204L149.711 97.9361C149.619 97.9716 149.487 98.0071 149.317 98.0426C149.146 98.0817 148.933 98.103 148.678 98.1065C148.259 98.1136 147.868 98.0391 147.506 97.8828C147.143 97.7266 146.85 97.4851 146.627 97.1584C146.403 96.8317 146.291 96.4215 146.291 95.9279V87.858ZM152.373 98.1012C152.082 98.1012 151.831 97.9982 151.622 97.7923C151.412 97.5827 151.308 97.3306 151.308 97.0359C151.308 96.7447 151.412 96.4961 151.622 96.2901C151.831 96.0806 152.082 95.9759 152.373 95.9759C152.664 95.9759 152.915 96.0806 153.124 96.2901C153.334 96.4961 153.438 96.7447 153.438 97.0359C153.438 97.2312 153.389 97.4105 153.289 97.5739C153.193 97.7337 153.065 97.8615 152.906 97.9574C152.746 98.0533 152.568 98.1012 152.373 98.1012ZM152.373 92.146C152.082 92.146 151.831 92.0412 151.622 91.8317C151.412 91.6222 151.308 91.3718 151.308 91.0806C151.308 90.7894 151.412 90.5408 151.622 90.3349C151.831 90.1254 152.082 90.0206 152.373 90.0206C152.664 90.0206 152.915 90.1254 153.124 90.3349C153.334 90.5408 153.438 90.7894 153.438 91.0806C153.438 91.2759 153.389 91.4553 153.289 91.6186C153.193 91.7784 153.065 91.9062 152.906 92.0021C152.746 92.098 152.568 92.146 152.373 92.146ZM166.684 87.0909H168.336V94.266C168.336 95.0295 168.156 95.706 167.798 96.2955C167.439 96.8814 166.935 97.343 166.285 97.6804C165.635 98.0142 164.873 98.1811 164 98.1811C163.13 98.1811 162.37 98.0142 161.72 97.6804C161.07 97.343 160.566 96.8814 160.207 96.2955C159.849 95.706 159.669 95.0295 159.669 94.266V87.0909H161.315V94.1328C161.315 94.6264 161.423 95.065 161.64 95.4485C161.86 95.832 162.171 96.1339 162.572 96.354C162.974 96.5707 163.449 96.679 164 96.679C164.554 96.679 165.031 96.5707 165.433 96.354C165.838 96.1339 166.146 95.832 166.36 95.4485C166.576 95.065 166.684 94.6264 166.684 94.1328V87.0909ZM176.679 89.9567C176.622 89.4524 176.388 89.0618 175.976 88.7848C175.564 88.5043 175.045 88.364 174.42 88.364C173.973 88.364 173.586 88.435 173.259 88.5771C172.932 88.7156 172.678 88.9073 172.497 89.1523C172.32 89.3938 172.231 89.669 172.231 89.978C172.231 90.2372 172.291 90.4609 172.412 90.6491C172.536 90.8374 172.698 90.9954 172.897 91.1232C173.099 91.2475 173.316 91.3523 173.547 91.4375C173.777 91.5192 173.999 91.5866 174.212 91.6399L175.278 91.9169C175.626 92.0021 175.983 92.1175 176.348 92.2631C176.714 92.4087 177.053 92.6005 177.366 92.8384C177.678 93.0763 177.93 93.3711 178.122 93.7227C178.318 94.0742 178.415 94.495 178.415 94.9851C178.415 95.603 178.255 96.1516 177.936 96.631C177.62 97.1104 177.16 97.4886 176.556 97.7656C175.956 98.0426 175.23 98.1811 174.378 98.1811C173.561 98.1811 172.854 98.0515 172.258 97.7923C171.661 97.533 171.194 97.1655 170.857 96.6896C170.519 96.2102 170.333 95.642 170.297 94.9851H171.949C171.981 95.3793 172.108 95.7077 172.332 95.9705C172.559 96.2298 172.849 96.4233 173.2 96.5511C173.555 96.6754 173.944 96.7376 174.367 96.7376C174.832 96.7376 175.246 96.6648 175.608 96.5192C175.974 96.37 176.261 96.1641 176.471 95.9013C176.68 95.6349 176.785 95.3242 176.785 94.9691C176.785 94.646 176.693 94.3814 176.508 94.1754C176.327 93.9695 176.08 93.799 175.768 93.6641C175.459 93.5291 175.109 93.4102 174.718 93.3072L173.429 92.9556C172.556 92.7177 171.863 92.3679 171.352 91.9062C170.844 91.4446 170.59 90.8338 170.59 90.0739C170.59 89.4453 170.761 88.8967 171.102 88.4279C171.443 87.9592 171.904 87.5952 172.487 87.3359C173.069 87.0732 173.726 86.9418 174.457 86.9418C175.196 86.9418 175.848 87.0714 176.412 87.3306C176.981 87.5898 177.428 87.9467 177.755 88.4013C178.081 88.8523 178.252 89.3707 178.266 89.9567H176.679ZM183.914 98H180.382V87.0909H184.026C185.094 87.0909 186.012 87.3093 186.779 87.7461C187.547 88.1793 188.134 88.8026 188.543 89.6158C188.955 90.4254 189.161 91.3967 189.161 92.5295C189.161 93.6658 188.953 94.6424 188.537 95.4592C188.125 96.2759 187.529 96.9045 186.748 97.3448C185.966 97.7816 185.022 98 183.914 98ZM182.028 96.5618H183.823C184.654 96.5618 185.345 96.4055 185.895 96.093C186.446 95.777 186.858 95.3207 187.131 94.7241C187.404 94.1239 187.541 93.3924 187.541 92.5295C187.541 91.6737 187.404 90.9474 187.131 90.3509C186.861 89.7543 186.458 89.3015 185.922 88.9925C185.386 88.6836 184.72 88.5291 183.924 88.5291H182.028V96.5618Z" fill="#131314"/>
<path d="M33.1186 140.818H34.983L38.2244 148.733H38.3438L41.5852 140.818H43.4496V151H41.9879V143.632H41.8935L38.8906 150.985H37.6776L34.6747 143.627H34.5803V151H33.1186V140.818ZM48.8549 151.154C48.1026 151.154 47.4546 150.993 46.911 150.672C46.3708 150.347 45.9532 149.891 45.6582 149.305C45.3665 148.715 45.2207 148.024 45.2207 147.232C45.2207 146.449 45.3665 145.76 45.6582 145.163C45.9532 144.567 46.3642 144.101 46.8912 143.766C47.4215 143.432 48.0413 143.264 48.7505 143.264C49.1814 143.264 49.599 143.335 50.0034 143.478C50.4077 143.621 50.7707 143.844 51.0922 144.149C51.4136 144.454 51.6672 144.85 51.8528 145.337C52.0384 145.821 52.1312 146.41 52.1312 147.102V147.629H46.0609V146.516H50.6745C50.6745 146.125 50.595 145.778 50.4359 145.477C50.2768 145.172 50.0531 144.931 49.7647 144.756C49.4797 144.58 49.1449 144.492 48.7605 144.492C48.3429 144.492 47.9783 144.595 47.6667 144.8C47.3585 145.003 47.1199 145.268 46.9508 145.596C46.7851 145.921 46.7022 146.274 46.7022 146.655V147.525C46.7022 148.035 46.7917 148.469 46.9707 148.827C47.153 149.185 47.4065 149.459 47.7314 149.648C48.0562 149.833 48.4357 149.926 48.8699 149.926C49.1516 149.926 49.4084 149.886 49.6404 149.807C49.8725 149.724 50.073 149.601 50.242 149.439C50.411 149.277 50.5403 149.076 50.6298 148.837L52.0368 149.091C51.9241 149.505 51.7219 149.868 51.4302 150.18C51.1419 150.488 50.7789 150.728 50.3414 150.901C49.9073 151.07 49.4118 151.154 48.8549 151.154ZM53.7805 151V143.364H55.2173V144.577H55.2969C55.4361 144.166 55.6813 143.843 56.0327 143.607C56.3873 143.369 56.7884 143.249 57.2358 143.249C57.3286 143.249 57.438 143.253 57.5639 143.259C57.6932 143.266 57.7943 143.274 57.8672 143.284V144.706C57.8075 144.689 57.7015 144.671 57.549 144.651C57.3965 144.628 57.2441 144.616 57.0916 144.616C56.7403 144.616 56.4271 144.691 56.152 144.84C55.8802 144.986 55.6648 145.19 55.5057 145.452C55.3466 145.71 55.267 146.005 55.267 146.337V151H53.7805ZM62.0968 151.154C61.3577 151.154 60.7213 150.987 60.1877 150.652C59.6574 150.314 59.2497 149.848 58.9647 149.255C58.6796 148.662 58.5371 147.982 58.5371 147.217C58.5371 146.441 58.6829 145.757 58.9746 145.163C59.2663 144.567 59.6773 144.101 60.2076 143.766C60.7379 143.432 61.3626 143.264 62.0819 143.264C62.6619 143.264 63.1789 143.372 63.633 143.587C64.0871 143.799 64.4533 144.098 64.7317 144.482C65.0134 144.867 65.1808 145.316 65.2338 145.83H63.7871C63.7076 145.472 63.5253 145.163 63.2402 144.905C62.9585 144.646 62.5807 144.517 62.1067 144.517C61.6924 144.517 61.3295 144.626 61.0179 144.845C60.7097 145.061 60.4694 145.369 60.2971 145.77C60.1247 146.168 60.0385 146.638 60.0385 147.182C60.0385 147.739 60.123 148.219 60.2921 148.624C60.4611 149.028 60.6998 149.341 61.008 149.563C61.3195 149.785 61.6858 149.896 62.1067 149.896C62.3884 149.896 62.6436 149.845 62.8723 149.742C63.1043 149.636 63.2982 149.485 63.454 149.29C63.6131 149.094 63.7241 148.859 63.7871 148.584H65.2338C65.1808 149.078 65.0201 149.518 64.7516 149.906C64.4831 150.294 64.1235 150.599 63.6728 150.821C63.2253 151.043 62.7 151.154 62.0968 151.154ZM68.31 146.466V151H66.8235V140.818H68.2901V144.607H68.3846C68.5636 144.196 68.837 143.869 69.2049 143.627C69.5728 143.385 70.0534 143.264 70.6467 143.264C71.1703 143.264 71.6277 143.372 72.0188 143.587C72.4132 143.803 72.7182 144.124 72.9336 144.552C73.1523 144.976 73.2617 145.506 73.2617 146.143V151H71.7752V146.322C71.7752 145.762 71.631 145.327 71.3427 145.019C71.0543 144.708 70.6533 144.552 70.1396 144.552C69.7882 144.552 69.4734 144.626 69.195 144.776C68.9199 144.925 68.7028 145.143 68.5437 145.432C68.3879 145.717 68.31 146.062 68.31 146.466ZM77.4677 151.169C76.9838 151.169 76.5463 151.08 76.1552 150.901C75.7641 150.718 75.4542 150.455 75.2255 150.11C75.0001 149.765 74.8874 149.343 74.8874 148.842C74.8874 148.411 74.9703 148.057 75.136 147.778C75.3017 147.5 75.5254 147.28 75.8072 147.117C76.0889 146.955 76.4038 146.832 76.7518 146.749C77.0998 146.666 77.4544 146.603 77.8157 146.56C78.2731 146.507 78.6443 146.464 78.9293 146.431C79.2144 146.395 79.4215 146.337 79.5508 146.257C79.68 146.178 79.7447 146.048 79.7447 145.869V145.835C79.7447 145.4 79.622 145.064 79.3768 144.825C79.1348 144.587 78.7736 144.467 78.293 144.467C77.7925 144.467 77.3981 144.578 77.1097 144.8C76.8247 145.019 76.6275 145.263 76.5181 145.531L75.1211 145.213C75.2868 144.749 75.5288 144.375 75.8469 144.089C76.1684 143.801 76.538 143.592 76.9556 143.463C77.3732 143.33 77.8124 143.264 78.2731 143.264C78.578 143.264 78.9012 143.301 79.2425 143.374C79.5872 143.443 79.9087 143.572 80.207 143.761C80.5086 143.95 80.7556 144.22 80.9478 144.572C81.14 144.92 81.2362 145.372 81.2362 145.929V151H79.7844V149.956H79.7248C79.6287 150.148 79.4845 150.337 79.2923 150.523C79.1 150.708 78.8531 150.862 78.5515 150.985C78.2499 151.108 77.8886 151.169 77.4677 151.169ZM77.7908 149.976C78.2018 149.976 78.5531 149.895 78.8448 149.732C79.1398 149.57 79.3635 149.358 79.516 149.096C79.6718 148.831 79.7496 148.547 79.7496 148.246V147.261C79.6966 147.314 79.5939 147.364 79.4414 147.411C79.2923 147.454 79.1216 147.492 78.9293 147.525C78.7371 147.555 78.5498 147.583 78.3675 147.609C78.1853 147.633 78.0328 147.652 77.9102 147.669C77.6218 147.705 77.3583 147.767 77.1197 147.853C76.8844 147.939 76.6954 148.063 76.5529 148.226C76.4137 148.385 76.3441 148.597 76.3441 148.862C76.3441 149.23 76.48 149.509 76.7518 149.697C77.0236 149.883 77.3699 149.976 77.7908 149.976ZM84.7026 146.466V151H83.2161V143.364H84.6429V144.607H84.7374C84.9131 144.202 85.1882 143.877 85.5627 143.632C85.9405 143.387 86.4161 143.264 86.9895 143.264C87.5099 143.264 87.9656 143.374 88.3567 143.592C88.7478 143.808 89.0511 144.129 89.2665 144.557C89.4819 144.984 89.5897 145.513 89.5897 146.143V151H88.1032V146.322C88.1032 145.768 87.959 145.336 87.6706 145.024C87.3823 144.709 86.9862 144.552 86.4824 144.552C86.1377 144.552 85.8311 144.626 85.5627 144.776C85.2975 144.925 85.0871 145.143 84.9313 145.432C84.7788 145.717 84.7026 146.062 84.7026 146.466ZM95.1479 143.364V144.557H90.9767V143.364H95.1479ZM92.0953 141.534H93.5819V148.758C93.5819 149.046 93.6249 149.263 93.7111 149.409C93.7973 149.552 93.9083 149.649 94.0442 149.702C94.1834 149.752 94.3342 149.777 94.4966 149.777C94.6159 149.777 94.7203 149.769 94.8098 149.752C94.8993 149.736 94.9689 149.722 95.0186 149.712L95.2871 150.94C95.2009 150.973 95.0783 151.007 94.9192 151.04C94.7601 151.076 94.5613 151.096 94.3226 151.099C93.9315 151.106 93.5669 151.036 93.2289 150.891C92.8908 150.745 92.6174 150.519 92.4086 150.214C92.1998 149.91 92.0953 149.527 92.0953 149.066V141.534ZM101.984 146.466V151H100.497V143.364H101.924V144.607H102.019C102.194 144.202 102.469 143.877 102.844 143.632C103.222 143.387 103.697 143.264 104.271 143.264C104.791 143.264 105.247 143.374 105.638 143.592C106.029 143.808 106.332 144.129 106.548 144.557C106.763 144.984 106.871 145.513 106.871 146.143V151H105.384V146.322C105.384 145.768 105.24 145.336 104.952 145.024C104.664 144.709 104.267 144.552 103.764 144.552C103.419 144.552 103.112 144.626 102.844 144.776C102.579 144.925 102.368 145.143 102.213 145.432C102.06 145.717 101.984 146.062 101.984 146.466ZM111.087 151.169C110.603 151.169 110.165 151.08 109.774 150.901C109.383 150.718 109.073 150.455 108.845 150.11C108.619 149.765 108.507 149.343 108.507 148.842C108.507 148.411 108.589 148.057 108.755 147.778C108.921 147.5 109.145 147.28 109.426 147.117C109.708 146.955 110.023 146.832 110.371 146.749C110.719 146.666 111.074 146.603 111.435 146.56C111.892 146.507 112.263 146.464 112.548 146.431C112.834 146.395 113.041 146.337 113.17 146.257C113.299 146.178 113.364 146.048 113.364 145.869V145.835C113.364 145.4 113.241 145.064 112.996 144.825C112.754 144.587 112.393 144.467 111.912 144.467C111.412 144.467 111.017 144.578 110.729 144.8C110.444 145.019 110.247 145.263 110.137 145.531L108.74 145.213C108.906 144.749 109.148 144.375 109.466 144.089C109.788 143.801 110.157 143.592 110.575 143.463C110.992 143.33 111.432 143.264 111.892 143.264C112.197 143.264 112.52 143.301 112.862 143.374C113.206 143.443 113.528 143.572 113.826 143.761C114.128 143.95 114.375 144.22 114.567 144.572C114.759 144.92 114.855 145.372 114.855 145.929V151H113.404V149.956H113.344C113.248 150.148 113.104 150.337 112.911 150.523C112.719 150.708 112.472 150.862 112.171 150.985C111.869 151.108 111.508 151.169 111.087 151.169ZM111.41 149.976C111.821 149.976 112.172 149.895 112.464 149.732C112.759 149.57 112.983 149.358 113.135 149.096C113.291 148.831 113.369 148.547 113.369 148.246V147.261C113.316 147.314 113.213 147.364 113.061 147.411C112.911 147.454 112.741 147.492 112.548 147.525C112.356 147.555 112.169 147.583 111.987 147.609C111.804 147.633 111.652 147.652 111.529 147.669C111.241 147.705 110.977 147.767 110.739 147.853C110.503 147.939 110.315 148.063 110.172 148.226C110.033 148.385 109.963 148.597 109.963 148.862C109.963 149.23 110.099 149.509 110.371 149.697C110.643 149.883 110.989 149.976 111.41 149.976ZM116.835 151V143.364H118.262V144.607H118.357C118.516 144.186 118.776 143.857 119.137 143.622C119.498 143.384 119.931 143.264 120.435 143.264C120.945 143.264 121.373 143.384 121.717 143.622C122.065 143.861 122.322 144.189 122.488 144.607H122.567C122.75 144.199 123.04 143.874 123.438 143.632C123.835 143.387 124.309 143.264 124.859 143.264C125.552 143.264 126.117 143.481 126.555 143.915C126.996 144.35 127.216 145.004 127.216 145.879V151H125.729V146.018C125.729 145.501 125.589 145.127 125.307 144.895C125.025 144.663 124.689 144.547 124.298 144.547C123.814 144.547 123.438 144.696 123.169 144.994C122.901 145.289 122.766 145.669 122.766 146.133V151H121.285V145.924C121.285 145.51 121.156 145.177 120.897 144.925C120.638 144.673 120.302 144.547 119.888 144.547C119.606 144.547 119.346 144.621 119.107 144.771C118.872 144.916 118.681 145.12 118.536 145.382C118.393 145.644 118.322 145.947 118.322 146.292V151H116.835ZM132.499 151.154C131.747 151.154 131.099 150.993 130.556 150.672C130.015 150.347 129.598 149.891 129.303 149.305C129.011 148.715 128.865 148.024 128.865 147.232C128.865 146.449 129.011 145.76 129.303 145.163C129.598 144.567 130.009 144.101 130.536 143.766C131.066 143.432 131.686 143.264 132.395 143.264C132.826 143.264 133.244 143.335 133.648 143.478C134.052 143.621 134.415 143.844 134.737 144.149C135.058 144.454 135.312 144.85 135.497 145.337C135.683 145.821 135.776 146.41 135.776 147.102V147.629H129.705V146.516H134.319C134.319 146.125 134.24 145.778 134.08 145.477C133.921 145.172 133.698 144.931 133.409 144.756C133.124 144.58 132.789 144.492 132.405 144.492C131.987 144.492 131.623 144.595 131.311 144.8C131.003 145.003 130.764 145.268 130.595 145.596C130.43 145.921 130.347 146.274 130.347 146.655V147.525C130.347 148.035 130.436 148.469 130.615 148.827C130.798 149.185 131.051 149.459 131.376 149.648C131.701 149.833 132.08 149.926 132.514 149.926C132.796 149.926 133.053 149.886 133.285 149.807C133.517 149.724 133.718 149.601 133.887 149.439C134.056 149.277 134.185 149.076 134.274 148.837L135.681 149.091C135.569 149.505 135.366 149.868 135.075 150.18C134.786 150.488 134.423 150.728 133.986 150.901C133.552 151.07 133.056 151.154 132.499 151.154ZM138.404 151.094C138.133 151.094 137.899 150.998 137.703 150.806C137.508 150.611 137.41 150.375 137.41 150.1C137.41 149.828 137.508 149.596 137.703 149.404C137.899 149.209 138.133 149.111 138.404 149.111C138.676 149.111 138.91 149.209 139.105 149.404C139.301 149.596 139.399 149.828 139.399 150.1C139.399 150.282 139.352 150.45 139.26 150.602C139.17 150.751 139.051 150.871 138.902 150.96C138.752 151.05 138.587 151.094 138.404 151.094ZM138.404 145.536C138.133 145.536 137.899 145.438 137.703 145.243C137.508 145.047 137.41 144.814 137.41 144.542C137.41 144.27 137.508 144.038 137.703 143.846C137.899 143.65 138.133 143.553 138.404 143.553C138.676 143.553 138.91 143.65 139.105 143.846C139.301 144.038 139.399 144.27 139.399 144.542C139.399 144.724 139.352 144.892 139.26 145.044C139.17 145.193 139.051 145.312 138.902 145.402C138.752 145.491 138.587 145.536 138.404 145.536Z" fill="#131314" fill-opacity="0.9"/>
<path d="M191.119 151V140.818H192.655V145.243H197.731V140.818H199.272V151H197.731V146.56H192.655V151H191.119ZM204.681 151.154C203.929 151.154 203.281 150.993 202.737 150.672C202.197 150.347 201.779 149.891 201.484 149.305C201.193 148.715 201.047 148.024 201.047 147.232C201.047 146.449 201.193 145.76 201.484 145.163C201.779 144.567 202.19 144.101 202.717 143.766C203.248 143.432 203.867 143.264 204.577 143.264C205.008 143.264 205.425 143.335 205.83 143.478C206.234 143.621 206.597 143.844 206.918 144.149C207.24 144.454 207.493 144.85 207.679 145.337C207.865 145.821 207.957 146.41 207.957 147.102V147.629H201.887V146.516H206.501C206.501 146.125 206.421 145.778 206.262 145.477C206.103 145.172 205.879 144.931 205.591 144.756C205.306 144.58 204.971 144.492 204.587 144.492C204.169 144.492 203.804 144.595 203.493 144.8C203.185 145.003 202.946 145.268 202.777 145.596C202.611 145.921 202.528 146.274 202.528 146.655V147.525C202.528 148.035 202.618 148.469 202.797 148.827C202.979 149.185 203.233 149.459 203.558 149.648C203.882 149.833 204.262 149.926 204.696 149.926C204.978 149.926 205.235 149.886 205.467 149.807C205.699 149.724 205.899 149.601 206.068 149.439C206.237 149.277 206.366 149.076 206.456 148.837L207.863 149.091C207.75 149.505 207.548 149.868 207.256 150.18C206.968 150.488 206.605 150.728 206.168 150.901C205.733 151.07 205.238 151.154 204.681 151.154ZM211.093 146.466V151H209.607V143.364H211.034V144.607H211.128C211.304 144.202 211.579 143.877 211.953 143.632C212.331 143.387 212.807 143.264 213.38 143.264C213.901 143.264 214.356 143.374 214.747 143.592C215.138 143.808 215.442 144.129 215.657 144.557C215.873 144.984 215.98 145.513 215.98 146.143V151H214.494V146.322C214.494 145.768 214.35 145.336 214.061 145.024C213.773 144.709 213.377 144.552 212.873 144.552C212.528 144.552 212.222 144.626 211.953 144.776C211.688 144.925 211.478 145.143 211.322 145.432C211.169 145.717 211.093 146.062 211.093 146.466ZM217.974 151V143.364H219.411V144.577H219.49C219.629 144.166 219.875 143.843 220.226 143.607C220.581 143.369 220.982 143.249 221.429 143.249C221.522 143.249 221.631 143.253 221.757 143.259C221.887 143.266 221.988 143.274 222.061 143.284V144.706C222.001 144.689 221.895 144.671 221.742 144.651C221.59 144.628 221.437 144.616 221.285 144.616C220.934 144.616 220.62 144.691 220.345 144.84C220.074 144.986 219.858 145.19 219.699 145.452C219.54 145.71 219.46 146.005 219.46 146.337V151H217.974ZM224.519 153.864C224.297 153.864 224.095 153.845 223.912 153.809C223.73 153.776 223.594 153.739 223.505 153.7L223.863 152.482C224.135 152.554 224.376 152.586 224.589 152.576C224.801 152.566 224.988 152.487 225.15 152.337C225.316 152.188 225.462 151.945 225.588 151.607L225.772 151.099L222.978 143.364H224.569L226.503 149.29H226.582L228.516 143.364H230.112L226.965 152.019C226.819 152.417 226.634 152.753 226.408 153.028C226.183 153.307 225.914 153.516 225.603 153.655C225.291 153.794 224.93 153.864 224.519 153.864ZM240.887 143.493C240.834 143.022 240.615 142.658 240.23 142.399C239.846 142.137 239.362 142.006 238.779 142.006C238.361 142.006 238 142.073 237.695 142.205C237.39 142.335 237.153 142.513 236.984 142.742C236.818 142.968 236.735 143.224 236.735 143.513C236.735 143.755 236.792 143.964 236.904 144.139C237.02 144.315 237.171 144.462 237.357 144.582C237.546 144.698 237.748 144.795 237.963 144.875C238.179 144.951 238.386 145.014 238.585 145.064L239.579 145.322C239.904 145.402 240.237 145.51 240.578 145.646C240.92 145.781 241.236 145.96 241.528 146.183C241.82 146.405 242.055 146.68 242.234 147.008C242.416 147.336 242.507 147.729 242.507 148.186C242.507 148.763 242.358 149.275 242.06 149.722C241.765 150.17 241.336 150.523 240.772 150.781C240.212 151.04 239.534 151.169 238.739 151.169C237.977 151.169 237.317 151.048 236.76 150.806C236.203 150.564 235.768 150.221 235.453 149.777C235.138 149.33 234.964 148.799 234.931 148.186H236.472C236.502 148.554 236.621 148.861 236.83 149.106C237.042 149.348 237.312 149.528 237.64 149.648C237.972 149.764 238.335 149.822 238.729 149.822C239.163 149.822 239.549 149.754 239.887 149.618C240.229 149.479 240.497 149.286 240.693 149.041C240.888 148.793 240.986 148.503 240.986 148.171C240.986 147.87 240.9 147.623 240.728 147.43C240.559 147.238 240.328 147.079 240.037 146.953C239.748 146.827 239.422 146.716 239.057 146.62L237.854 146.292C237.039 146.07 236.392 145.743 235.915 145.312C235.441 144.882 235.204 144.312 235.204 143.602C235.204 143.016 235.363 142.504 235.681 142.066C236 141.629 236.431 141.289 236.974 141.047C237.518 140.802 238.131 140.679 238.814 140.679C239.503 140.679 240.111 140.8 240.638 141.042C241.168 141.284 241.586 141.617 241.891 142.041C242.196 142.462 242.355 142.946 242.368 143.493H240.887ZM244.224 151V143.364H245.71V151H244.224ZM244.975 142.185C244.716 142.185 244.494 142.099 244.308 141.927C244.126 141.751 244.035 141.542 244.035 141.3C244.035 141.055 244.126 140.846 244.308 140.674C244.494 140.498 244.716 140.411 244.975 140.411C245.233 140.411 245.454 140.498 245.636 140.674C245.821 140.846 245.914 141.055 245.914 141.3C245.914 141.542 245.821 141.751 245.636 141.927C245.454 142.099 245.233 142.185 244.975 142.185ZM247.71 151V143.364H249.137V144.607H249.232C249.391 144.186 249.651 143.857 250.012 143.622C250.373 143.384 250.806 143.264 251.31 143.264C251.82 143.264 252.248 143.384 252.592 143.622C252.94 143.861 253.197 144.189 253.363 144.607H253.442C253.625 144.199 253.915 143.874 254.312 143.632C254.71 143.387 255.184 143.264 255.734 143.264C256.427 143.264 256.992 143.481 257.43 143.915C257.871 144.35 258.091 145.004 258.091 145.879V151H256.604V146.018C256.604 145.501 256.464 145.127 256.182 144.895C255.9 144.663 255.564 144.547 255.173 144.547C254.689 144.547 254.312 144.696 254.044 144.994C253.776 145.289 253.641 145.669 253.641 146.133V151H252.16V145.924C252.16 145.51 252.031 145.177 251.772 144.925C251.513 144.673 251.177 144.547 250.763 144.547C250.481 144.547 250.221 144.621 249.982 144.771C249.747 144.916 249.556 145.12 249.411 145.382C249.268 145.644 249.197 145.947 249.197 146.292V151H247.71ZM260.083 151V143.364H261.51V144.607H261.605C261.764 144.186 262.024 143.857 262.385 143.622C262.746 143.384 263.179 143.264 263.683 143.264C264.193 143.264 264.621 143.384 264.965 143.622C265.313 143.861 265.57 144.189 265.736 144.607H265.816C265.998 144.199 266.288 143.874 266.686 143.632C267.083 143.387 267.557 143.264 268.107 143.264C268.8 143.264 269.365 143.481 269.803 143.915C270.244 144.35 270.464 145.004 270.464 145.879V151H268.977V146.018C268.977 145.501 268.837 145.127 268.555 144.895C268.273 144.663 267.937 144.547 267.546 144.547C267.062 144.547 266.686 144.696 266.417 144.994C266.149 145.289 266.014 145.669 266.014 146.133V151H264.533V145.924C264.533 145.51 264.404 145.177 264.145 144.925C263.887 144.673 263.55 144.547 263.136 144.547C262.854 144.547 262.594 144.621 262.355 144.771C262.12 144.916 261.929 145.12 261.784 145.382C261.641 145.644 261.57 145.947 261.57 146.292V151H260.083ZM275.673 151.154C274.957 151.154 274.332 150.99 273.799 150.662C273.265 150.334 272.851 149.875 272.556 149.285C272.261 148.695 272.113 148.005 272.113 147.217C272.113 146.424 272.261 145.732 272.556 145.138C272.851 144.545 273.265 144.085 273.799 143.756C274.332 143.428 274.957 143.264 275.673 143.264C276.389 143.264 277.014 143.428 277.547 143.756C278.081 144.085 278.495 144.545 278.79 145.138C279.085 145.732 279.233 146.424 279.233 147.217C279.233 148.005 279.085 148.695 278.79 149.285C278.495 149.875 278.081 150.334 277.547 150.662C277.014 150.99 276.389 151.154 275.673 151.154ZM275.678 149.906C276.142 149.906 276.526 149.784 276.831 149.538C277.136 149.293 277.362 148.967 277.507 148.559C277.657 148.151 277.731 147.702 277.731 147.212C277.731 146.724 277.657 146.277 277.507 145.869C277.362 145.458 277.136 145.129 276.831 144.88C276.526 144.631 276.142 144.507 275.678 144.507C275.211 144.507 274.823 144.631 274.515 144.88C274.21 145.129 273.983 145.458 273.833 145.869C273.688 146.277 273.615 146.724 273.615 147.212C273.615 147.702 273.688 148.151 273.833 148.559C273.983 148.967 274.21 149.293 274.515 149.538C274.823 149.784 275.211 149.906 275.678 149.906ZM282.378 146.466V151H280.892V143.364H282.319V144.607H282.413C282.589 144.202 282.864 143.877 283.238 143.632C283.616 143.387 284.092 143.264 284.665 143.264C285.186 143.264 285.641 143.374 286.032 143.592C286.424 143.808 286.727 144.129 286.942 144.557C287.158 144.984 287.265 145.513 287.265 146.143V151H285.779V146.322C285.779 145.768 285.635 145.336 285.346 145.024C285.058 144.709 284.662 144.552 284.158 144.552C283.814 144.552 283.507 144.626 283.238 144.776C282.973 144.925 282.763 145.143 282.607 145.432C282.455 145.717 282.378 146.062 282.378 146.466ZM294.981 145.228L293.634 145.467C293.578 145.294 293.488 145.13 293.366 144.974C293.246 144.819 293.084 144.691 292.878 144.592C292.673 144.492 292.416 144.442 292.108 144.442C291.687 144.442 291.336 144.537 291.054 144.726C290.772 144.911 290.631 145.152 290.631 145.447C290.631 145.702 290.726 145.907 290.915 146.063C291.104 146.219 291.408 146.347 291.829 146.446L293.042 146.724C293.745 146.887 294.269 147.137 294.613 147.475C294.958 147.813 295.131 148.252 295.131 148.793C295.131 149.25 294.998 149.658 294.733 150.016C294.471 150.37 294.105 150.649 293.634 150.851C293.167 151.053 292.625 151.154 292.008 151.154C291.153 151.154 290.456 150.972 289.915 150.607C289.375 150.239 289.044 149.717 288.921 149.041L290.358 148.822C290.447 149.197 290.631 149.48 290.91 149.673C291.188 149.862 291.551 149.956 291.998 149.956C292.486 149.956 292.875 149.855 293.167 149.653C293.458 149.447 293.604 149.197 293.604 148.902C293.604 148.663 293.515 148.463 293.336 148.3C293.16 148.138 292.89 148.015 292.525 147.933L291.233 147.649C290.52 147.487 289.993 147.228 289.652 146.874C289.314 146.519 289.145 146.07 289.145 145.526C289.145 145.076 289.271 144.681 289.523 144.343C289.774 144.005 290.122 143.741 290.567 143.553C291.011 143.36 291.519 143.264 292.093 143.264C292.918 143.264 293.568 143.443 294.042 143.801C294.516 144.156 294.829 144.631 294.981 145.228Z" fill="#131314" fill-opacity="0.9"/>
<path d="M33.9787 195H32.348L36.0121 184.818H37.7869L41.451 195H39.8203L36.9418 186.668H36.8622L33.9787 195ZM34.2521 191.013H39.5419V192.305H34.2521V191.013ZM42.802 195V187.364H44.2289V188.607H44.3233C44.4824 188.186 44.7426 187.857 45.1039 187.622C45.4651 187.384 45.8977 187.264 46.4015 187.264C46.9119 187.264 47.3394 187.384 47.6841 187.622C48.0321 187.861 48.289 188.189 48.4547 188.607H48.5343C48.7166 188.199 49.0066 187.874 49.4043 187.632C49.802 187.387 50.276 187.264 50.8262 187.264C51.5189 187.264 52.084 187.481 52.5215 187.915C52.9623 188.35 53.1827 189.004 53.1827 189.879V195H51.6962V190.018C51.6962 189.501 51.5553 189.127 51.2736 188.895C50.9919 188.663 50.6555 188.547 50.2644 188.547C49.7805 188.547 49.4043 188.696 49.1358 188.994C48.8674 189.289 48.7331 189.669 48.7331 190.133V195H47.2516V189.924C47.2516 189.51 47.1223 189.177 46.8638 188.925C46.6053 188.673 46.2689 188.547 45.8546 188.547C45.5729 188.547 45.3127 188.621 45.074 188.771C44.8387 188.916 44.6481 189.12 44.5023 189.382C44.3598 189.644 44.2885 189.947 44.2885 190.292V195H42.802ZM58.3917 195.154C57.6758 195.154 57.051 194.99 56.5174 194.662C55.9838 194.334 55.5695 193.875 55.2745 193.285C54.9795 192.695 54.832 192.005 54.832 191.217C54.832 190.424 54.9795 189.732 55.2745 189.138C55.5695 188.545 55.9838 188.085 56.5174 187.756C57.051 187.428 57.6758 187.264 58.3917 187.264C59.1076 187.264 59.7324 187.428 60.266 187.756C60.7996 188.085 61.2139 188.545 61.5089 189.138C61.8039 189.732 61.9513 190.424 61.9513 191.217C61.9513 192.005 61.8039 192.695 61.5089 193.285C61.2139 193.875 60.7996 194.334 60.266 194.662C59.7324 194.99 59.1076 195.154 58.3917 195.154ZM58.3967 193.906C58.8607 193.906 59.2451 193.784 59.5501 193.538C59.855 193.293 60.0804 192.967 60.2262 192.559C60.3754 192.151 60.4499 191.702 60.4499 191.212C60.4499 190.724 60.3754 190.277 60.2262 189.869C60.0804 189.458 59.855 189.129 59.5501 188.88C59.2451 188.631 58.8607 188.507 58.3967 188.507C57.9293 188.507 57.5415 188.631 57.2333 188.88C56.9284 189.129 56.7013 189.458 56.5522 189.869C56.4064 190.277 56.3335 190.724 56.3335 191.212C56.3335 191.702 56.4064 192.151 56.5522 192.559C56.7013 192.967 56.9284 193.293 57.2333 193.538C57.5415 193.784 57.9293 193.906 58.3967 193.906ZM68.448 191.833V187.364H69.9395V195H68.4778V193.678H68.3983C68.2226 194.085 67.9409 194.425 67.5531 194.697C67.1686 194.965 66.6897 195.099 66.1163 195.099C65.6258 195.099 65.1916 194.992 64.8137 194.776C64.4392 194.558 64.1442 194.234 63.9288 193.807C63.7167 193.379 63.6106 192.851 63.6106 192.221V187.364H65.0971V192.042C65.0971 192.562 65.2413 192.977 65.5297 193.285C65.818 193.593 66.1925 193.747 66.6532 193.747C66.9316 193.747 67.2084 193.678 67.4835 193.538C67.7619 193.399 67.9922 193.189 68.1745 192.907C68.3601 192.625 68.4513 192.267 68.448 191.833ZM73.4233 190.466V195H71.9368V187.364H73.3636V188.607H73.4581C73.6338 188.202 73.9089 187.877 74.2834 187.632C74.6612 187.387 75.1368 187.264 75.7102 187.264C76.2306 187.264 76.6863 187.374 77.0774 187.592C77.4685 187.808 77.7718 188.129 77.9872 188.557C78.2027 188.984 78.3104 189.513 78.3104 190.143V195H76.8239V190.322C76.8239 189.768 76.6797 189.336 76.3913 189.024C76.103 188.709 75.7069 188.552 75.2031 188.552C74.8584 188.552 74.5518 188.626 74.2834 188.776C74.0182 188.925 73.8078 189.143 73.652 189.432C73.4995 189.717 73.4233 190.062 73.4233 190.466ZM83.8686 187.364V188.557H79.6974V187.364H83.8686ZM80.8161 185.534H82.3026V192.758C82.3026 193.046 82.3456 193.263 82.4318 193.409C82.518 193.552 82.629 193.649 82.7649 193.702C82.9041 193.752 83.0549 193.777 83.2173 193.777C83.3366 193.777 83.4411 193.769 83.5305 193.752C83.62 193.736 83.6896 193.722 83.7393 193.712L84.0078 194.94C83.9216 194.973 83.799 195.007 83.6399 195.04C83.4808 195.076 83.282 195.096 83.0433 195.099C82.6522 195.106 82.2876 195.036 81.9496 194.891C81.6115 194.745 81.3381 194.519 81.1293 194.214C80.9205 193.91 80.8161 193.527 80.8161 193.066V185.534ZM86.4924 195.094C86.2206 195.094 85.9869 194.998 85.7914 194.806C85.5958 194.611 85.498 194.375 85.498 194.1C85.498 193.828 85.5958 193.596 85.7914 193.404C85.9869 193.209 86.2206 193.111 86.4924 193.111C86.7641 193.111 86.9978 193.209 87.1934 193.404C87.3889 193.596 87.4867 193.828 87.4867 194.1C87.4867 194.282 87.4403 194.45 87.3475 194.602C87.258 194.751 87.1387 194.871 86.9895 194.96C86.8404 195.05 86.6747 195.094 86.4924 195.094ZM86.4924 189.536C86.2206 189.536 85.9869 189.438 85.7914 189.243C85.5958 189.047 85.498 188.814 85.498 188.542C85.498 188.27 85.5958 188.038 85.7914 187.846C85.9869 187.65 86.2206 187.553 86.4924 187.553C86.7641 187.553 86.9978 187.65 87.1934 187.846C87.3889 188.038 87.4867 188.27 87.4867 188.542C87.4867 188.724 87.4403 188.892 87.3475 189.044C87.258 189.193 87.1387 189.312 86.9895 189.402C86.8404 189.491 86.6747 189.536 86.4924 189.536Z" fill="#131314" fill-opacity="0.9"/>
<path d="M254.121 196.273V183.545H254.937V196.273H254.121ZM256.672 187.493C256.619 187.022 256.4 186.658 256.016 186.399C255.631 186.137 255.147 186.006 254.564 186.006C254.146 186.006 253.785 186.073 253.48 186.205C253.175 186.335 252.938 186.513 252.769 186.742C252.603 186.968 252.521 187.224 252.521 187.513C252.521 187.755 252.577 187.964 252.69 188.139C252.806 188.315 252.956 188.462 253.142 188.582C253.331 188.698 253.533 188.795 253.749 188.875C253.964 188.951 254.171 189.014 254.37 189.064L255.364 189.322C255.689 189.402 256.022 189.51 256.364 189.646C256.705 189.781 257.022 189.96 257.313 190.183C257.605 190.405 257.84 190.68 258.019 191.008C258.201 191.336 258.293 191.729 258.293 192.186C258.293 192.763 258.143 193.275 257.845 193.722C257.55 194.17 257.121 194.523 256.558 194.781C255.997 195.04 255.32 195.169 254.524 195.169C253.762 195.169 253.102 195.048 252.545 194.806C251.989 194.564 251.553 194.221 251.238 193.777C250.923 193.33 250.749 192.799 250.716 192.186H252.257C252.287 192.554 252.406 192.861 252.615 193.106C252.827 193.348 253.097 193.528 253.425 193.648C253.757 193.764 254.12 193.822 254.514 193.822C254.948 193.822 255.335 193.754 255.673 193.618C256.014 193.479 256.282 193.286 256.478 193.041C256.674 192.793 256.771 192.503 256.771 192.171C256.771 191.87 256.685 191.623 256.513 191.43C256.344 191.238 256.113 191.079 255.822 190.953C255.533 190.827 255.207 190.716 254.842 190.62L253.639 190.292C252.824 190.07 252.178 189.743 251.7 189.312C251.226 188.882 250.989 188.312 250.989 187.602C250.989 187.016 251.148 186.504 251.467 186.066C251.785 185.629 252.216 185.289 252.759 185.047C253.303 184.802 253.916 184.679 254.599 184.679C255.288 184.679 255.896 184.8 256.423 185.042C256.954 185.284 257.371 185.617 257.676 186.041C257.981 186.462 258.14 186.946 258.153 187.493H256.672ZM263.544 195.139C263.09 195.133 262.642 195.05 262.202 194.891C261.764 194.732 261.366 194.466 261.008 194.095C260.65 193.724 260.364 193.225 260.148 192.599C259.936 191.972 259.83 191.19 259.83 190.252C259.83 189.364 259.918 188.575 260.094 187.886C260.273 187.196 260.529 186.615 260.864 186.141C261.199 185.663 261.603 185.3 262.077 185.052C262.551 184.803 263.083 184.679 263.673 184.679C264.28 184.679 264.818 184.798 265.289 185.037C265.76 185.276 266.141 185.605 266.432 186.026C266.727 186.447 266.915 186.926 266.994 187.463H265.478C265.375 187.039 265.171 186.692 264.866 186.424C264.561 186.156 264.164 186.021 263.673 186.021C262.927 186.021 262.346 186.346 261.928 186.996C261.514 187.645 261.305 188.549 261.302 189.705H261.376C261.552 189.417 261.767 189.172 262.023 188.969C262.281 188.764 262.569 188.607 262.888 188.497C263.209 188.384 263.547 188.328 263.902 188.328C264.492 188.328 265.025 188.472 265.503 188.761C265.983 189.046 266.366 189.44 266.651 189.944C266.936 190.448 267.079 191.024 267.079 191.674C267.079 192.324 266.931 192.912 266.636 193.439C266.345 193.966 265.934 194.384 265.403 194.692C264.873 194.997 264.253 195.146 263.544 195.139ZM263.539 193.847C263.93 193.847 264.28 193.75 264.588 193.558C264.896 193.366 265.14 193.107 265.319 192.783C265.498 192.458 265.587 192.095 265.587 191.694C265.587 191.303 265.499 190.946 265.324 190.625C265.151 190.304 264.913 190.048 264.608 189.859C264.306 189.67 263.961 189.576 263.574 189.576C263.279 189.576 263.005 189.632 262.753 189.745C262.505 189.858 262.286 190.013 262.097 190.212C261.908 190.411 261.759 190.64 261.65 190.898C261.544 191.154 261.491 191.424 261.491 191.709C261.491 192.09 261.578 192.443 261.754 192.768C261.933 193.093 262.177 193.354 262.485 193.553C262.796 193.749 263.148 193.847 263.539 193.847ZM269.233 195L273.677 186.21V186.136H268.537V184.818H275.268V186.18L270.838 195H269.233ZM276.246 195.094C275.974 195.094 275.741 194.998 275.545 194.806C275.35 194.611 275.252 194.375 275.252 194.1C275.252 193.828 275.35 193.596 275.545 193.404C275.741 193.209 275.974 193.111 276.246 193.111C276.518 193.111 276.752 193.209 276.947 193.404C277.143 193.596 277.241 193.828 277.241 194.1C277.241 194.282 277.194 194.45 277.101 194.602C277.012 194.751 276.893 194.871 276.743 194.96C276.594 195.05 276.429 195.094 276.246 195.094ZM282.387 195.169C281.602 195.166 280.931 194.959 280.374 194.548C279.817 194.137 279.391 193.538 279.096 192.753C278.801 191.967 278.654 191.021 278.654 189.914C278.654 188.81 278.801 187.867 279.096 187.085C279.395 186.303 279.822 185.706 280.379 185.295C280.939 184.884 281.609 184.679 282.387 184.679C283.166 184.679 283.834 184.886 284.391 185.3C284.948 185.711 285.374 186.308 285.669 187.09C285.967 187.869 286.116 188.81 286.116 189.914C286.116 191.024 285.969 191.972 285.674 192.758C285.379 193.54 284.953 194.138 284.396 194.553C283.839 194.964 283.17 195.169 282.387 195.169ZM282.387 193.842C283.077 193.842 283.615 193.505 284.003 192.832C284.394 192.16 284.59 191.187 284.59 189.914C284.59 189.069 284.5 188.355 284.321 187.771C284.146 187.185 283.892 186.741 283.561 186.439C283.233 186.134 282.842 185.982 282.387 185.982C281.701 185.982 281.163 186.32 280.772 186.996C280.381 187.672 280.183 188.645 280.18 189.914C280.18 190.763 280.268 191.48 280.444 192.067C280.623 192.65 280.876 193.093 281.204 193.394C281.532 193.692 281.927 193.842 282.387 193.842ZM291.425 195.169C290.639 195.166 289.968 194.959 289.411 194.548C288.854 194.137 288.428 193.538 288.133 192.753C287.838 191.967 287.691 191.021 287.691 189.914C287.691 188.81 287.838 187.867 288.133 187.085C288.432 186.303 288.859 185.706 289.416 185.295C289.976 184.884 290.646 184.679 291.425 184.679C292.203 184.679 292.871 184.886 293.428 185.3C293.985 185.711 294.411 186.308 294.706 187.09C295.004 187.869 295.153 188.81 295.153 189.914C295.153 191.024 295.006 191.972 294.711 192.758C294.416 193.54 293.99 194.138 293.433 194.553C292.876 194.964 292.207 195.169 291.425 195.169ZM291.425 193.842C292.114 193.842 292.653 193.505 293.04 192.832C293.431 192.16 293.627 191.187 293.627 189.914C293.627 189.069 293.537 188.355 293.358 187.771C293.183 187.185 292.929 186.741 292.598 186.439C292.27 186.134 291.879 185.982 291.425 185.982C290.738 185.982 290.2 186.32 289.809 186.996C289.418 187.672 289.22 188.645 289.217 189.914C289.217 190.763 289.305 191.48 289.481 192.067C289.66 192.65 289.913 193.093 290.241 193.394C290.569 193.692 290.964 193.842 291.425 193.842Z" fill="#131314" fill-opacity="0.9"/>
<path d="M38.6719 231.493C38.6188 231.022 38.4001 230.658 38.0156 230.399C37.6312 230.137 37.1473 230.006 36.5639 230.006C36.1463 230.006 35.785 230.073 35.4801 230.205C35.1752 230.335 34.9382 230.513 34.7692 230.742C34.6035 230.968 34.5206 231.224 34.5206 231.513C34.5206 231.755 34.5769 231.964 34.6896 232.139C34.8056 232.315 34.9564 232.462 35.142 232.582C35.331 232.698 35.5331 232.795 35.7486 232.875C35.964 232.951 36.1712 233.014 36.37 233.064L37.3643 233.322C37.6892 233.402 38.0223 233.51 38.3636 233.646C38.705 233.781 39.0215 233.96 39.3132 234.183C39.6049 234.405 39.8402 234.68 40.0192 235.008C40.2015 235.336 40.2926 235.729 40.2926 236.186C40.2926 236.763 40.1435 237.275 39.8452 237.722C39.5502 238.17 39.121 238.523 38.5575 238.781C37.9974 239.04 37.3196 239.169 36.5241 239.169C35.7618 239.169 35.1023 239.048 34.5455 238.806C33.9886 238.564 33.5528 238.221 33.2379 237.777C32.9231 237.33 32.7491 236.799 32.7159 236.186H34.2571C34.2869 236.554 34.4063 236.861 34.6151 237.106C34.8272 237.348 35.0973 237.528 35.4254 237.648C35.7569 237.764 36.1198 237.822 36.5142 237.822C36.9484 237.822 37.3345 237.754 37.6726 237.618C38.014 237.479 38.2824 237.286 38.478 237.041C38.6735 236.793 38.7713 236.503 38.7713 236.171C38.7713 235.87 38.6851 235.623 38.5128 235.43C38.3438 235.238 38.1134 235.079 37.8217 234.953C37.5334 234.827 37.2069 234.716 36.8423 234.62L35.6392 234.292C34.8239 234.07 34.1776 233.743 33.7003 233.312C33.2263 232.882 32.9893 232.312 32.9893 231.602C32.9893 231.016 33.1484 230.504 33.4666 230.066C33.7848 229.629 34.2157 229.289 34.7592 229.047C35.3028 228.802 35.916 228.679 36.5987 228.679C37.2881 228.679 37.8963 228.8 38.4233 229.042C38.9536 229.284 39.3712 229.617 39.6761 230.041C39.9811 230.462 40.1402 230.946 40.1534 231.493H38.6719ZM45.3002 239.154C44.5479 239.154 43.8999 238.993 43.3564 238.672C42.8161 238.347 42.3985 237.891 42.1035 237.305C41.8118 236.715 41.666 236.024 41.666 235.232C41.666 234.449 41.8118 233.76 42.1035 233.163C42.3985 232.567 42.8095 232.101 43.3365 231.766C43.8668 231.432 44.4866 231.264 45.1958 231.264C45.6267 231.264 46.0443 231.335 46.4487 231.478C46.853 231.621 47.216 231.844 47.5375 232.149C47.859 232.454 48.1125 232.85 48.2981 233.337C48.4837 233.821 48.5765 234.41 48.5765 235.102V235.629H42.5062V234.516H47.1199C47.1199 234.125 47.0403 233.778 46.8812 233.477C46.7221 233.172 46.4984 232.931 46.21 232.756C45.925 232.58 45.5903 232.492 45.2058 232.492C44.7882 232.492 44.4236 232.595 44.112 232.8C43.8038 233.003 43.5652 233.268 43.3961 233.596C43.2304 233.921 43.1475 234.274 43.1475 234.655V235.525C43.1475 236.035 43.237 236.469 43.416 236.827C43.5983 237.185 43.8519 237.459 44.1767 237.648C44.5015 237.833 44.881 237.926 45.3152 237.926C45.5969 237.926 45.8538 237.886 46.0858 237.807C46.3178 237.724 46.5183 237.601 46.6873 237.439C46.8564 237.277 46.9856 237.076 47.0751 236.837L48.4821 237.091C48.3694 237.505 48.1672 237.868 47.8755 238.18C47.5872 238.488 47.2243 238.728 46.7868 238.901C46.3526 239.07 45.8571 239.154 45.3002 239.154ZM51.7124 234.466V239H50.2259V231.364H51.6527V232.607H51.7472C51.9228 232.202 52.1979 231.877 52.5724 231.632C52.9503 231.387 53.4259 231.264 53.9993 231.264C54.5196 231.264 54.9754 231.374 55.3665 231.592C55.7576 231.808 56.0608 232.129 56.2763 232.557C56.4917 232.984 56.5994 233.513 56.5994 234.143V239H55.1129V234.322C55.1129 233.768 54.9688 233.336 54.6804 233.024C54.392 232.709 53.996 232.552 53.4922 232.552C53.1475 232.552 52.8409 232.626 52.5724 232.776C52.3073 232.925 52.0968 233.143 51.9411 233.432C51.7886 233.717 51.7124 234.062 51.7124 234.466ZM61.4517 239.149C60.8352 239.149 60.285 238.992 59.8011 238.677C59.3205 238.359 58.9427 237.906 58.6676 237.32C58.3958 236.73 58.2599 236.022 58.2599 235.197C58.2599 234.371 58.3975 233.665 58.6726 233.079C58.951 232.492 59.3321 232.043 59.8161 231.732C60.3 231.42 60.8485 231.264 61.4616 231.264C61.9356 231.264 62.3168 231.344 62.6051 231.503C62.8968 231.659 63.1222 231.841 63.2812 232.05C63.4437 232.259 63.5696 232.442 63.6591 232.602H63.7486V228.818H65.2351V239H63.7834V237.812H63.6591C63.5696 237.974 63.4403 238.16 63.2713 238.369C63.1056 238.577 62.8769 238.76 62.5852 238.915C62.2936 239.071 61.9157 239.149 61.4517 239.149ZM61.7798 237.881C62.2074 237.881 62.5687 237.769 62.8636 237.543C63.1619 237.315 63.3873 236.998 63.5398 236.594C63.6955 236.189 63.7734 235.719 63.7734 235.182C63.7734 234.652 63.6972 234.187 63.5447 233.79C63.3923 233.392 63.1686 233.082 62.8736 232.86C62.5786 232.638 62.214 232.527 61.7798 232.527C61.3324 232.527 60.9595 232.643 60.6612 232.875C60.3629 233.107 60.1375 233.424 59.9851 233.825C59.8359 234.226 59.7614 234.678 59.7614 235.182C59.7614 235.692 59.8376 236.151 59.9901 236.559C60.1425 236.967 60.3679 237.29 60.6662 237.528C60.9678 237.764 61.339 237.881 61.7798 237.881ZM71.0618 239V231.364H72.5483V239H71.0618ZM71.8125 230.185C71.554 230.185 71.3319 230.099 71.1463 229.927C70.964 229.751 70.8729 229.542 70.8729 229.3C70.8729 229.055 70.964 228.846 71.1463 228.674C71.3319 228.498 71.554 228.411 71.8125 228.411C72.071 228.411 72.2914 228.498 72.4737 228.674C72.6593 228.846 72.7521 229.055 72.7521 229.3C72.7521 229.542 72.6593 229.751 72.4737 229.927C72.2914 230.099 72.071 230.185 71.8125 230.185ZM76.0346 234.466V239H74.5481V231.364H75.975V232.607H76.0694C76.2451 232.202 76.5202 231.877 76.8947 231.632C77.2725 231.387 77.7482 231.264 78.3216 231.264C78.8419 231.264 79.2976 231.374 79.6887 231.592C80.0798 231.808 80.3831 232.129 80.5985 232.557C80.814 232.984 80.9217 233.513 80.9217 234.143V239H79.4352V234.322C79.4352 233.768 79.291 233.336 79.0027 233.024C78.7143 232.709 78.3182 232.552 77.8145 232.552C77.4698 232.552 77.1632 232.626 76.8947 232.776C76.6296 232.925 76.4191 233.143 76.2633 233.432C76.1109 233.717 76.0346 234.062 76.0346 234.466ZM89.1745 231.364L86.4054 239H84.8145L82.0403 231.364H83.6362L85.5701 237.24H85.6497L87.5787 231.364H89.1745ZM93.5284 239.154C92.8125 239.154 92.1877 238.99 91.6541 238.662C91.1205 238.334 90.7062 237.875 90.4112 237.285C90.1162 236.695 89.9688 236.005 89.9688 235.217C89.9688 234.424 90.1162 233.732 90.4112 233.138C90.7062 232.545 91.1205 232.085 91.6541 231.756C92.1877 231.428 92.8125 231.264 93.5284 231.264C94.2443 231.264 94.8691 231.428 95.4027 231.756C95.9363 232.085 96.3506 232.545 96.6456 233.138C96.9406 233.732 97.0881 234.424 97.0881 235.217C97.0881 236.005 96.9406 236.695 96.6456 237.285C96.3506 237.875 95.9363 238.334 95.4027 238.662C94.8691 238.99 94.2443 239.154 93.5284 239.154ZM93.5334 237.906C93.9974 237.906 94.3819 237.784 94.6868 237.538C94.9917 237.293 95.2171 236.967 95.3629 236.559C95.5121 236.151 95.5866 235.702 95.5866 235.212C95.5866 234.724 95.5121 234.277 95.3629 233.869C95.2171 233.458 94.9917 233.129 94.6868 232.88C94.3819 232.631 93.9974 232.507 93.5334 232.507C93.0661 232.507 92.6783 232.631 92.37 232.88C92.0651 233.129 91.8381 233.458 91.6889 233.869C91.5431 234.277 91.4702 234.724 91.4702 235.212C91.4702 235.702 91.5431 236.151 91.6889 236.559C91.8381 236.967 92.0651 237.293 92.37 237.538C92.6783 237.784 93.0661 237.906 93.5334 237.906ZM98.7473 239V231.364H100.234V239H98.7473ZM99.498 230.185C99.2395 230.185 99.0175 230.099 98.8319 229.927C98.6496 229.751 98.5584 229.542 98.5584 229.3C98.5584 229.055 98.6496 228.846 98.8319 228.674C99.0175 228.498 99.2395 228.411 99.498 228.411C99.7566 228.411 99.977 228.498 100.159 228.674C100.345 228.846 100.438 229.055 100.438 229.3C100.438 229.542 100.345 229.751 100.159 229.927C99.977 230.099 99.7566 230.185 99.498 230.185ZM105.45 239.154C104.711 239.154 104.075 238.987 103.541 238.652C103.011 238.314 102.603 237.848 102.318 237.255C102.033 236.662 101.891 235.982 101.891 235.217C101.891 234.441 102.036 233.757 102.328 233.163C102.62 232.567 103.031 232.101 103.561 231.766C104.091 231.432 104.716 231.264 105.435 231.264C106.015 231.264 106.532 231.372 106.987 231.587C107.441 231.799 107.807 232.098 108.085 232.482C108.367 232.867 108.534 233.316 108.587 233.83H107.141C107.061 233.472 106.879 233.163 106.594 232.905C106.312 232.646 105.934 232.517 105.46 232.517C105.046 232.517 104.683 232.626 104.371 232.845C104.063 233.061 103.823 233.369 103.651 233.77C103.478 234.168 103.392 234.638 103.392 235.182C103.392 235.739 103.477 236.219 103.646 236.624C103.815 237.028 104.053 237.341 104.362 237.563C104.673 237.785 105.039 237.896 105.46 237.896C105.742 237.896 105.997 237.845 106.226 237.742C106.458 237.636 106.652 237.485 106.808 237.29C106.967 237.094 107.078 236.859 107.141 236.584H108.587C108.534 237.078 108.374 237.518 108.105 237.906C107.837 238.294 107.477 238.599 107.026 238.821C106.579 239.043 106.054 239.154 105.45 239.154ZM113.468 239.154C112.716 239.154 112.068 238.993 111.524 238.672C110.984 238.347 110.566 237.891 110.271 237.305C109.98 236.715 109.834 236.024 109.834 235.232C109.834 234.449 109.98 233.76 110.271 233.163C110.566 232.567 110.977 232.101 111.504 231.766C112.035 231.432 112.655 231.264 113.364 231.264C113.795 231.264 114.212 231.335 114.617 231.478C115.021 231.621 115.384 231.844 115.705 232.149C116.027 232.454 116.28 232.85 116.466 233.337C116.652 233.821 116.744 234.41 116.744 235.102V235.629H110.674V234.516H115.288C115.288 234.125 115.208 233.778 115.049 233.477C114.89 233.172 114.666 232.931 114.378 232.756C114.093 232.58 113.758 232.492 113.374 232.492C112.956 232.492 112.592 232.595 112.28 232.8C111.972 233.003 111.733 233.268 111.564 233.596C111.398 233.921 111.316 234.274 111.316 234.655V235.525C111.316 236.035 111.405 236.469 111.584 236.827C111.766 237.185 112.02 237.459 112.345 237.648C112.669 237.833 113.049 237.926 113.483 237.926C113.765 237.926 114.022 237.886 114.254 237.807C114.486 237.724 114.686 237.601 114.855 237.439C115.024 237.277 115.154 237.076 115.243 236.837L116.65 237.091C116.537 237.505 116.335 237.868 116.044 238.18C115.755 238.488 115.392 238.728 114.955 238.901C114.521 239.07 114.025 239.154 113.468 239.154ZM119.373 239.094C119.101 239.094 118.868 238.998 118.672 238.806C118.477 238.611 118.379 238.375 118.379 238.1C118.379 237.828 118.477 237.596 118.672 237.404C118.868 237.209 119.101 237.111 119.373 237.111C119.645 237.111 119.879 237.209 120.074 237.404C120.27 237.596 120.368 237.828 120.368 238.1C120.368 238.282 120.321 238.45 120.228 238.602C120.139 238.751 120.02 238.871 119.87 238.96C119.721 239.05 119.556 239.094 119.373 239.094ZM119.373 233.536C119.101 233.536 118.868 233.438 118.672 233.243C118.477 233.047 118.379 232.814 118.379 232.542C118.379 232.27 118.477 232.038 118.672 231.846C118.868 231.65 119.101 231.553 119.373 231.553C119.645 231.553 119.879 231.65 120.074 231.846C120.27 232.038 120.368 232.27 120.368 232.542C120.368 232.724 120.321 232.892 120.228 233.044C120.139 233.193 120.02 233.312 119.87 233.402C119.721 233.491 119.556 233.536 119.373 233.536Z" fill="#131314" fill-opacity="0.9"/>
<path fill-rule="evenodd" clip-rule="evenodd" d="M267.533 223.159C268.798 223.086 270.062 223.092 271.328 223.092C271.336 223.092 277.74 223.092 277.74 223.092C279.03 223.092 280.294 223.086 281.559 223.159C282.709 223.224 283.829 223.364 284.944 223.676C287.291 224.332 289.34 225.702 290.822 227.645C292.294 229.575 293.091 231.938 293.091 234.364C293.091 236.793 292.294 239.154 290.822 241.085C289.34 243.026 287.291 244.397 284.944 245.053C283.829 245.365 282.709 245.504 281.559 245.57C280.294 245.643 279.03 245.637 277.765 245.637C277.756 245.637 271.351 245.637 271.351 245.637C270.062 245.637 268.798 245.643 267.533 245.57C266.384 245.504 265.264 245.365 264.149 245.053C261.802 244.397 259.752 243.026 258.271 241.085C256.798 239.154 256 236.793 256 234.365C256 231.938 256.798 229.575 258.271 227.645C259.752 225.702 261.802 224.332 264.149 223.676C265.264 223.364 266.384 223.224 267.533 223.159Z" fill="#96969C" fill-opacity="0.2"/>
<g filter="url(#filter0_d_901_7259)">
<path fill-rule="evenodd" clip-rule="evenodd" d="M267.274 244.183C272.696 244.183 277.092 239.787 277.092 234.365C277.092 228.943 272.696 224.547 267.274 224.547C261.851 224.547 257.456 228.943 257.456 234.365C257.456 239.787 261.851 244.183 267.274 244.183Z" fill="white"/>
</g>
<defs>
<filter id="filter0_d_901_7259" x="251.638" y="220.911" width="31.2727" height="31.2731" filterUnits="userSpaceOnUse" color-interpolation-filters="sRGB">
<feFlood flood-opacity="0" result="BackgroundImageFix"/>
<feColorMatrix in="SourceAlpha" type="matrix" values="0 0 0 0 0 0 0 0 0 0 0 0 0 0 0 0 0 0 127 0" result="hardAlpha"/>
<feOffset dy="2.18182"/>
<feGaussianBlur stdDeviation="2.90909"/>
<feColorMatrix type="matrix" values="0 0 0 0 0 0 0 0 0 0 0 0 0 0 0 0 0 0 0.15 0"/>
<feBlend mode="normal" in2="BackgroundImageFix" result="effect1_dropShadow_901_7259"/>
<feBlend mode="normal" in="SourceGraphic" in2="effect1_dropShadow_901_7259" result="shape"/>
</filter>
</defs>
</svg>
