<svg width="112" height="113" viewBox="0 0 112 113" fill="none" xmlns="http://www.w3.org/2000/svg">
<rect x="0.426893" y="1.13575" width="110.961" height="110.961" rx="18.7368" stroke="#4B9EFF" stroke-width="0.526393"/>
<path d="M80.8661 39.2215C81.4973 39.2215 82.1058 38.971 82.5547 38.522L89.1698 31.9069C90.0538 31.0229 89.4782 29.5059 88.2327 29.4277L84.7125 29.2067L87.0095 26.9097C87.395 26.5242 87.395 25.8993 87.0095 25.514C86.6239 25.1285 85.9991 25.1285 85.6137 25.514L83.3166 27.811L83.0957 24.2908C83.0174 23.0431 81.4989 22.4714 80.6165 23.3537L74.0012 29.9688C73.5168 30.4532 73.2637 31.1232 73.3066 31.8068L73.534 35.4295C68.013 30.722 60.8973 28.0224 53.3597 28.0224C36.148 28.0224 22.2182 41.9504 22.2182 59.1637C22.2182 66.932 25.0949 74.3725 30.3187 80.1141C30.6857 80.5172 31.3099 80.5466 31.713 80.1799C32.1162 79.813 32.1457 79.1888 31.7789 78.7856C26.8865 73.4082 24.1922 66.4397 24.1922 59.1637C24.1922 43.0807 37.2767 29.9962 53.3597 29.9962C60.8965 29.9962 67.9886 32.8848 73.2935 37.834L68.7899 42.3374C64.7171 38.5989 59.2943 36.3111 53.3597 36.3111C40.7588 36.3111 30.5072 46.5627 30.5072 59.1636C30.5072 62.7901 31.382 66.4024 33.0375 69.6099C33.0377 69.6101 33.0377 69.6102 33.0378 69.6103C36.8737 77.0431 44.5992 82.0161 53.3598 82.0161C64.1546 82.0161 73.5432 74.3914 75.7375 63.81C75.8482 63.2763 75.5052 62.7538 74.9715 62.6431C74.4378 62.5325 73.9154 62.8754 73.8047 63.4092C71.806 73.0469 63.2078 80.0421 53.3599 80.0421C45.5155 80.0421 38.4005 75.6979 34.792 68.7051C34.792 68.7049 34.7919 68.7048 34.7919 68.7047C33.2587 65.7338 32.4813 62.5238 32.4813 59.1636C32.4813 47.6511 41.8473 38.285 53.3598 38.285C58.7514 38.285 63.6808 40.3514 67.3946 43.7328L62.9312 48.1962C60.3698 45.958 57.0206 44.5999 53.3598 44.5999C45.3294 44.5999 38.7962 51.1331 38.7962 59.1634C38.7962 67.1938 45.3294 73.727 53.3598 73.727C61.3902 73.727 67.9235 67.1938 67.9235 59.1634C67.9235 55.5026 66.5654 52.1535 64.327 49.592L68.7907 45.1284C72.1459 48.8123 74.2074 53.6941 74.2379 59.042C74.241 59.5851 74.6823 60.0233 75.2248 60.0233H75.2306C75.7757 60.0201 76.2149 59.5757 76.2119 59.0306C76.1782 53.1436 73.8962 47.7727 70.1866 43.7324L74.6904 39.2286C79.6183 44.4976 82.5272 51.5476 82.5272 59.1633C82.527 75.2467 69.4426 88.3312 53.3597 88.3312C46.697 88.3312 40.1821 86.0264 35.0152 81.8414C34.5913 81.4985 33.9703 81.5636 33.627 81.9871C33.2839 82.4107 33.3491 83.0323 33.7726 83.3753C39.29 87.8441 46.2461 90.3052 53.3597 90.3052C70.5714 90.3052 84.5011 76.3771 84.5011 59.1637C84.5011 52.4242 82.3832 46.01 78.3766 40.6147C77.9618 40.0561 77.5297 39.5145 77.0832 38.9885C80.9523 39.2316 80.7437 39.2215 80.8661 39.2215ZM65.9494 59.1637C65.9494 66.1056 60.3017 71.7533 53.3597 71.7533C46.4177 71.7533 40.7701 66.1056 40.7701 59.1637C40.7701 52.2218 46.4177 46.5741 53.3597 46.5741C56.4762 46.5741 59.3313 47.7128 61.5322 49.5953L57.0407 54.0868C56.0058 53.3344 54.7341 52.889 53.3597 52.889C49.8998 52.889 47.0849 55.7038 47.0849 59.1637C47.0849 62.6235 49.8998 65.4384 53.3597 65.4384C56.8196 65.4384 59.6345 62.6235 59.6345 59.1637C59.6345 57.7892 59.1891 56.5174 58.4367 55.4826L62.9282 50.9912C64.8105 53.192 65.9494 56.0472 65.9494 59.1637ZM52.6617 59.8617C53.0473 60.2471 53.6721 60.2471 54.0575 59.8617L57.0161 56.9031C57.4241 57.5604 57.6604 58.3349 57.6604 59.1638C57.6604 61.5353 55.7311 63.4646 53.3595 63.4646C50.988 63.4646 49.0588 61.5352 49.0588 59.1638C49.0588 56.7924 50.988 54.8631 53.3595 54.8631C54.1885 54.8631 54.9629 55.0994 55.6203 55.5072L52.6615 58.466C52.2762 58.8513 52.2762 59.4762 52.6617 59.8617ZM75.2768 31.6831C75.2693 31.5646 75.3132 31.4484 75.3972 31.3645L81.1978 25.5641L81.4556 29.6721L75.5229 35.6048L75.2768 31.6831ZM76.9187 37.0005L82.8514 31.0678L86.9594 31.3256L81.1588 37.1262C81.075 37.2101 80.9579 37.2547 80.8402 37.2466L76.9187 37.0005Z" fill="#4B9EFF"/>
</svg>
