<svg width="58" height="58" viewBox="0 0 58 58" fill="none" xmlns="http://www.w3.org/2000/svg">
<rect width="58" height="58" rx="9.66667" fill="#7A6EF6"/>
<path d="M14.5 18.1265V35.8487C14.5 38.5181 16.664 40.6821 19.3333 40.6821H41.8889C42.7787 40.6821 43.5 39.9608 43.5 39.071V34.2376M40.2778 21.3487H17.7222C15.9426 21.3487 14.5 19.9061 14.5 18.1265V18.1265C14.5 16.3469 15.9426 14.9043 17.7222 14.9043H38.6667C39.5565 14.9043 40.2778 15.6256 40.2778 16.5154V21.3487ZM40.2778 21.3487H41.8889C42.7787 21.3487 43.5 22.0701 43.5 22.9599V27.7932M43.5 27.7932H38.6667C36.8871 27.7932 35.4444 29.2358 35.4444 31.0154V31.0154C35.4444 32.795 36.8871 34.2376 38.6667 34.2376H43.5M43.5 27.7932V34.2376" stroke="white" stroke-width="2.175" stroke-linecap="round" stroke-linejoin="round"/>
</svg>
