<svg width="58" height="58" viewBox="0 0 58 58" fill="none" xmlns="http://www.w3.org/2000/svg">
<g clip-path="url(#clip0_901_7229)">
<rect width="58" height="58" rx="9.66667" fill="#0DBD8B"/>
<path d="M41.889 21.75L29.79 14.9443C29.2995 14.6684 28.7007 14.6684 28.2102 14.9443L22.5557 18.125M41.889 21.75V35.3077C41.889 35.8898 41.575 36.4266 41.0677 36.712L29.0001 43.5M41.889 21.75L35.4445 25.375M29.0001 43.5L16.9325 36.712C16.4252 36.4266 16.1112 35.8898 16.1112 35.3077V21.75M29.0001 43.5V29M16.1112 21.75L29.0001 29M16.1112 21.75L22.5557 18.125M29.0001 29L35.4445 25.375M35.4445 25.375L22.5557 18.125" stroke="white" stroke-width="2.175" stroke-linecap="round" stroke-linejoin="round"/>
</g>
<defs>
<clipPath id="clip0_901_7229">
<rect width="58" height="58" rx="9.66667" fill="white"/>
</clipPath>
</defs>
</svg>
