<svg width="114" height="114" viewBox="0 0 114 114" fill="none" xmlns="http://www.w3.org/2000/svg">
<rect x="5.64009" y="5.75251" width="102.751" height="102.751" rx="18.7563" stroke="#FA4C56" stroke-width="0.487446"/>
<path d="M90.0749 58.3318C89.6004 57.3702 79.4476 40.6345 79.1903 40.2166C77.2951 37.1409 74.0099 35.3047 70.4025 35.3047C69.8879 35.3047 69.3824 35.3437 68.8877 35.4169C68.8873 35.4159 68.8859 35.4139 68.8855 35.4134C68.0113 33.9968 66.4983 33.1509 64.8382 33.1509C62.2171 33.1509 60.0846 35.2833 60.0846 37.9045V46.2105H53.947V37.9045C53.947 35.2834 51.8145 33.1509 49.1933 33.1509C47.5363 33.1509 46.026 33.9936 45.1441 35.4169C44.6495 35.3437 44.1438 35.3047 43.629 35.3047C40.0216 35.3047 36.7365 37.141 34.8411 40.2169C34.8149 40.2593 34.7354 40.3885 32.825 43.5911C32.4966 44.1417 32.6768 44.8543 33.2272 45.1826C33.7778 45.5109 34.4904 45.3311 34.8187 44.7804C36.3907 42.1453 36.7736 41.5064 36.8179 41.4345C38.2872 39.0499 40.8335 37.6263 43.6292 37.6263C48.0384 37.6263 51.6254 41.2134 51.6254 45.6225V45.6232V57.0621C48.8442 52.5265 43.8404 49.4943 38.1413 49.4943C35.5675 49.4943 33.1357 50.1131 30.9862 51.2089C31.5382 50.2827 32.1214 49.3042 32.7066 48.3228C33.0349 47.7722 32.8547 47.0596 32.304 46.7313C31.7533 46.4031 31.0409 46.5833 30.7125 47.134C28.2461 51.2704 24.3642 57.4771 23.8738 58.5018C22.8882 60.5619 22.3354 62.8676 22.3354 65.3002C22.3354 74.0155 29.4259 81.106 38.1413 81.106C46.8566 81.106 53.947 74.0155 53.947 65.3002V62.216H60.0846V65.3002C60.0846 74.0155 67.1751 81.106 75.8903 81.106C84.6056 81.106 91.6961 74.0155 91.6961 65.3002C91.6962 62.8005 91.1127 60.4349 90.0749 58.3318ZM51.6254 39.1109C50.553 37.7964 49.1639 36.7509 47.5753 36.0907C48.0147 35.6965 48.5845 35.4724 49.1935 35.4724C50.5345 35.4724 51.6254 36.5634 51.6254 37.9044V39.1109ZM38.1413 78.7842C30.706 78.7842 24.657 72.7354 24.657 65.3001C24.657 57.8648 30.706 51.8158 38.1413 51.8158C45.5765 51.8158 51.6254 57.8648 51.6254 65.3001C51.6254 72.7354 45.5764 78.7842 38.1413 78.7842ZM53.9468 55.4372V48.5319H60.0844V55.4372H53.9468ZM60.0846 59.8944H53.947V57.7589H60.0846V59.8944ZM62.4061 37.9045C62.4061 36.5635 63.4971 35.4726 64.8381 35.4726C65.4489 35.4726 66.0206 35.6981 66.4578 36.0903C64.8686 36.7505 63.4788 37.7963 62.4061 39.111V37.9045ZM62.4061 45.6232V45.6225C62.4061 41.2132 65.9932 37.6263 70.4024 37.6263C73.1982 37.6263 75.7444 39.0501 77.2137 41.4345C77.3529 41.6606 80.2542 46.526 83.0454 51.2089C80.8957 50.1129 78.4639 49.4941 75.8901 49.4941C70.191 49.4941 65.1872 52.5265 62.406 57.062V45.6232H62.4061ZM75.8904 78.7842C68.4551 78.7842 62.4062 72.7352 62.4062 65.2999C62.4062 57.8647 68.4553 51.8157 75.8904 51.8157C83.3257 51.8157 89.3747 57.8647 89.3747 65.2999C89.3747 72.7352 83.3255 78.7842 75.8904 78.7842Z" fill="#FA4C56"/>
<path d="M86.0671 61.6417C85.8501 61.0386 85.1855 60.7252 84.5821 60.9421C83.979 61.159 83.6656 61.8239 83.8825 62.4272C84.2128 63.346 84.3804 64.3125 84.3804 65.2995C84.3804 69.981 80.5719 73.7896 75.8903 73.7896C71.2089 73.7896 67.4003 69.981 67.4003 65.2995C67.4003 60.6181 71.2089 56.8095 75.8903 56.8095C78.2398 56.8095 80.5057 57.7965 82.1072 59.5174C82.5439 59.9867 83.2783 60.0131 83.7479 59.5763C84.2171 59.1396 84.2435 58.4052 83.8068 57.9356C81.7678 55.7446 78.8823 54.4878 75.8903 54.4878C69.9287 54.4878 65.0787 59.3378 65.0787 65.2994C65.0787 71.261 69.9287 76.111 75.8903 76.111C81.852 76.111 86.7019 71.261 86.7019 65.2994C86.7021 64.0441 86.4884 62.8134 86.0671 61.6417Z" fill="#FA4C56"/>
<path d="M38.1412 54.4883C32.1796 54.4883 27.3296 59.3382 27.3296 65.2999C27.3296 71.2615 32.1796 76.1115 38.1412 76.1115C44.1028 76.1115 48.9528 71.2615 48.9528 65.2999C48.9528 59.3382 44.1027 54.4883 38.1412 54.4883ZM38.1412 73.7898C33.4597 73.7898 29.6511 69.9813 29.6511 65.2997C29.6511 60.6183 33.4596 56.8097 38.1412 56.8097C42.8228 56.8097 46.6312 60.6182 46.6312 65.2997C46.6312 69.9813 42.8225 73.7898 38.1412 73.7898Z" fill="#FA4C56"/>
</svg>
